<?xml version="1.0" standalone="no"?>
<!DOCTYPE svg PUBLIC "-//W3C//DTD SVG 1.1//EN" "http://www.w3.org/Graphics/SVG/1.1/DTD/svg11.dtd" >
<svg xmlns="http://www.w3.org/2000/svg" xmlns:xlink="http://www.w3.org/1999/xlink" version="1.1">
<metadata>
Created by FontForge 20170731 at Fri Mar 21 17:48:00 2014
 By Aleksey,,,
Copyright (c) 2014 by The Entente (AS&#38;EH). All rights reserved.
</metadata>
<defs>
<font id="Castledown" horiz-adv-x="1140" >
  <font-face 
    font-family="Castledown"
    font-weight="400"
    font-stretch="normal"
    units-per-em="1000"
    panose-1="2 0 5 6 0 0 0 2 0 3"
    ascent="800"
    descent="-200"
    x-height="470"
    cap-height="700"
    bbox="-59 -258 1138 1130"
    underline-thickness="50"
    underline-position="-200"
    unicode-range="U+000D-FB02"
  />
<missing-glyph horiz-adv-x="629" 
d="M86 20v660q0 20 20 20h417q20 0 20 -20v-660q0 -20 -20 -20h-417q-20 0 -20 20zM168 72h293v556h-293v-556z" />
    <glyph glyph-name="fi" unicode="fi" horiz-adv-x="567" 
d="M110 14v390h-77q-14 0 -14 14v38q0 14 14 14h77v109q0 67 43 109t109 42q30 0 56 -9q10 -3 10 -15v-38q0 -13 -10 -13q-2 0 -19 4.5t-37 4.5q-36 0 -56 -26.5t-20 -73.5v-94h118q14 0 14 -14v-38q0 -14 -14 -14h-118v-390q0 -14 -14 -14h-48q-14 0 -14 14zM419 14v442
q0 14 14 14h48q14 0 14 -14v-442q0 -14 -14 -14h-48q-14 0 -14 14zM401 614q0 23 16.5 39.5t39.5 16.5t39.5 -16.5t16.5 -39.5t-16.5 -39.5t-39.5 -16.5t-39.5 16.5t-16.5 39.5z" />
    <glyph glyph-name="fl" unicode="fl" horiz-adv-x="574" 
d="M110 14v390h-77q-14 0 -14 14v38q0 14 14 14h77v109q0 67 43 109t109 42q30 0 56 -9q10 -3 10 -15v-38q0 -13 -10 -13q-2 0 -19 4.5t-37 4.5q-36 0 -56 -26.5t-20 -73.5v-94h118q14 0 14 -14v-38q0 -14 -14 -14h-118v-390q0 -14 -14 -14h-48q-14 0 -14 14zM383 91v615
q0 14 14 14h48q14 0 14 -14v-600q0 -23 10.5 -36.5t25.5 -13.5q13 0 22 5t13 5q10 0 10 -13v-38q0 -11 -10 -15q-23 -10 -46 -10q-47 0 -74 25.5t-27 75.5z" />
    <glyph glyph-name=".notdef" horiz-adv-x="629" 
d="M86 20v660q0 20 20 20h417q20 0 20 -20v-660q0 -20 -20 -20h-417q-20 0 -20 20zM168 72h293v556h-293v-556z" />
    <glyph glyph-name=".null" horiz-adv-x="0" 
 />
    <glyph glyph-name=".null" horiz-adv-x="0" 
 />
    <glyph glyph-name="nonmarkingreturn" horiz-adv-x="333" 
 />
    <glyph glyph-name="CR" unicode="&#xd;" horiz-adv-x="0" 
 />
    <glyph glyph-name="space" unicode=" " horiz-adv-x="242" 
 />
    <glyph glyph-name="exclam" unicode="!" horiz-adv-x="258" 
d="M68 50q0 26 17.5 44t42.5 18q26 0 44 -18t18 -44q0 -25 -18 -42.5t-44 -17.5q-25 0 -42.5 17.5t-17.5 42.5zM86 183v503q0 14 14 14h54q14 0 14 -14v-503q0 -14 -14 -14h-54q-14 0 -14 14z" />
    <glyph glyph-name="quotedbl" unicode="&#x22;" horiz-adv-x="352" 
d="M68 518v168q0 14 14 14h48q14 0 14 -14v-168q0 -14 -14 -14h-48q-14 0 -14 14zM208 518v168q0 14 14 14h48q14 0 14 -14v-168q0 -14 -14 -14h-48q-14 0 -14 14z" />
    <glyph glyph-name="numbersign" unicode="#" horiz-adv-x="608" 
d="M97 16l36 182h-91q-14 0 -14 14v44q0 14 14 14h106l31 160h-97q-14 0 -14 14v44q0 14 14 14h111l36 182q4 16 19 16h50q10 0 10 -9q0 -2 -1 -7l-36 -182h126l36 182q4 16 19 16h50q10 0 10 -9q0 -2 -1 -7l-36 -182h91q14 0 14 -14v-44q0 -14 -14 -14h-106l-31 -160h97
q14 0 14 -14v-44q0 -14 -14 -14h-111l-36 -182q-4 -16 -19 -16h-50q-10 0 -10 9q0 2 1 7l36 182h-126l-36 -182q-4 -16 -19 -16h-50q-10 0 -10 9q0 2 1 7zM226 270h125l31 160h-125z" />
    <glyph glyph-name="dollar" unicode="$" horiz-adv-x="571" 
d="M258 -96v89q-74 9 -130.5 50.5t-84.5 101.5q-4 8 -4 12q0 5 6 8l50 26q6 3 9 3q5 0 9 -7q56 -104 145 -121v268q-78 24 -131 73t-53 120q0 76 51 125.5t133 57.5v86q0 14 14 14h48q14 0 14 -14v-89q96 -16 162 -102q4 -5 4 -9q0 -5 -6 -10l-38 -31q-7 -5 -10 -5
q-5 0 -10 6q-48 61 -102 76v-239q87 -28 139 -73t52 -121q0 -83 -53 -140t-138 -67v-88q0 -14 -14 -14h-48q-14 0 -14 14zM334 309v-245q47 9 75 42t28 87q0 40 -25.5 67.5t-77.5 48.5zM258 419v217q-46 -6 -74 -32t-28 -68q0 -74 102 -117z" />
    <glyph glyph-name="percent" unicode="%" horiz-adv-x="799" 
d="M606 -10q-71 0 -116 44t-45 123q0 76 44 121.5t117 45.5t117 -45.5t44 -121.5q0 -79 -45 -123t-116 -44zM606 50q42 0 67.5 29t25.5 77t-26.5 78t-66.5 30t-66.5 -30t-26.5 -78t25.5 -77t67.5 -29zM193 376q-71 0 -116 44t-45 123q0 76 44 121.5t117 45.5t117 -45.5
t44 -121.5q0 -79 -45 -123t-116 -44zM193 436q42 0 67.5 29t25.5 77t-26.5 78t-66.5 30t-66.5 -30t-26.5 -78t25.5 -77t67.5 -29zM123 20l474 665q11 15 25 15h45q12 0 12 -11q0 -5 -3 -9l-474 -665q-11 -15 -25 -15h-45q-12 0 -12 11q0 5 3 9z" />
    <glyph glyph-name="ampersand" unicode="&#x26;" horiz-adv-x="634" 
d="M477 18l-34 40q-76 -68 -190 -68q-94 0 -152.5 56t-58.5 147q0 125 128 196l-13 17q-58 76 -58 142q0 73 50.5 117.5t125.5 44.5q78 0 125.5 -43.5t47.5 -111.5q0 -58 -41 -111t-114 -78l154 -187q34 52 67 141q3 9 10 9q3 0 9 -2l45 -20q7 -3 7 -10q0 -3 -1 -6
q-47 -112 -88 -172l79 -96q5 -6 5 -12q0 -11 -11 -11h-58q-18 0 -34 18zM395 116l-178 217q-93 -52 -93 -142q0 -58 38.5 -93.5t96.5 -35.5q79 0 136 54zM229 444l19 -24q62 23 91 55t29 80q0 39 -25.5 62t-67.5 23t-68 -25t-26 -64q0 -47 48 -107z" />
    <glyph glyph-name="quotesingle" unicode="'" horiz-adv-x="212" 
d="M68 518v168q0 14 14 14h48q14 0 14 -14v-168q0 -14 -14 -14h-48q-14 0 -14 14z" />
    <glyph glyph-name="parenleft" unicode="(" horiz-adv-x="295" 
d="M269 -73l-23 -28q-6 -7 -16 -7q-7 0 -12 4q-84 71 -130 178t-46 236t46 236t130 178q5 4 12 4q10 0 16 -7l23 -28q6 -8 6 -13q0 -8 -9 -15q-65 -58 -103.5 -150.5t-38.5 -204.5t38.5 -204.5t103.5 -150.5q9 -7 9 -15q0 -6 -6 -13z" />
    <glyph glyph-name="parenright" unicode=")" horiz-adv-x="295" 
d="M49 -101l-23 28q-6 7 -6 13q0 8 9 15q65 58 103.5 150.5t38.5 204.5t-38.5 204.5t-103.5 150.5q-9 7 -9 15q0 5 6 13l23 28q6 7 16 7q7 0 12 -4q84 -71 130 -178t46 -236t-46 -236t-130 -178q-5 -4 -12 -4q-10 0 -16 7z" />
    <glyph glyph-name="asterisk" unicode="*" horiz-adv-x="400" 
d="M56 425l-15 25q-3 6 -3 9q0 6 8 11l96 55l-96 55q-8 5 -8 11q0 3 3 9l15 25q4 9 10 9q3 0 9 -3l96 -56v111q0 14 14 14h30q14 0 14 -14v-111l96 56q6 3 9 3q6 0 10 -9l15 -25q3 -6 3 -9q0 -6 -8 -11l-96 -55l96 -55q8 -5 8 -11q0 -3 -3 -9l-15 -25q-4 -9 -10 -9
q-3 0 -9 3l-96 56v-111q0 -14 -14 -14h-30q-14 0 -14 14v111l-96 -56q-6 -3 -9 -3q-6 0 -10 9z" />
    <glyph glyph-name="plus" unicode="+" horiz-adv-x="510" 
d="M218 144v166h-166q-14 0 -14 14v42q0 14 14 14h166v166q0 14 14 14h42q14 0 14 -14v-166h166q14 0 14 -14v-42q0 -14 -14 -14h-166v-166q0 -14 -14 -14h-42q-14 0 -14 14z" />
    <glyph glyph-name="comma" unicode="," horiz-adv-x="218" 
d="M74 -95l-23 15q-13 8 -13 16q0 7 3 11q45 59 45 136q0 13 9 18q6 2 12 2h39q19 0 19 -20q0 -87 -64 -171q-9 -10 -16 -10q-5 0 -11 3z" />
    <glyph glyph-name="hyphen" unicode="-" horiz-adv-x="430" 
d="M38 324v42q0 14 14 14h322q14 0 14 -14v-42q0 -14 -14 -14h-322q-14 0 -14 14z" />
    <glyph glyph-name="period" unicode="." horiz-adv-x="218" 
d="M52 50q0 24 16.5 41t39.5 17q24 0 41 -17t17 -41q0 -23 -17 -39.5t-41 -16.5q-23 0 -39.5 16.5t-16.5 39.5z" />
    <glyph glyph-name="slash" unicode="/" horiz-adv-x="466" 
d="M25 20l333 666q6 14 21 14h53q12 0 12 -10q0 -4 -3 -10l-333 -666q-6 -14 -21 -14h-53q-12 0 -12 10q0 4 3 10z" />
    <glyph glyph-name="zero" unicode="0" horiz-adv-x="638" 
d="M319 -10q-128 0 -201.5 96t-73.5 264q0 169 76.5 264.5t198.5 95.5t198.5 -95.5t76.5 -264.5q0 -168 -73.5 -264t-201.5 -96zM319 62q85 0 136 73t51 215q0 138 -51.5 213t-135.5 75t-135.5 -75t-51.5 -213q0 -142 51 -215t136 -73z" />
    <glyph glyph-name="one" unicode="1" horiz-adv-x="436" 
d="M48 14v44q0 14 14 14h121v524l-91 -85q-5 -5 -10 -5t-9 5l-31 41q-4 5 -4 10t4 9l129 116q13 13 30 13h50q14 0 14 -14v-614h121q14 0 14 -14v-44q0 -14 -14 -14h-324q-14 0 -14 14z" />
    <glyph glyph-name="two" unicode="2" horiz-adv-x="549" 
d="M60 14v41q0 16 12 29l220 222q61 63 85.5 107t24.5 100q0 57 -37 91t-98 34q-99 0 -146 -117q-4 -9 -12 -9q-4 0 -8 2l-47 21q-8 3 -8 10q0 2 2 8q23 66 79.5 111.5t139.5 45.5q96 0 157.5 -53t61.5 -136q0 -76 -32.5 -131.5t-106.5 -131.5l-183 -186h321q14 0 14 -14
v-44q0 -14 -14 -14h-411q-14 0 -14 14z" />
    <glyph glyph-name="three" unicode="3" horiz-adv-x="557" 
d="M47 157l44 26q4 3 8 3q6 0 9 -6q58 -118 172 -118q58 0 99.5 39t41.5 105q0 75 -44 120.5t-127 45.5h-27q-20 0 -20 20v24q0 16 12 30l161 182h-277q-20 0 -20 20v32q0 20 20 20h348q20 0 20 -20v-42q0 -18 -14 -35l-148 -164q98 -19 148 -80t50 -152q0 -93 -63 -155
t-160 -62q-90 0 -149 42.5t-89 105.5q-2 5 -2 8q0 7 7 11z" />
    <glyph glyph-name="four" unicode="4" horiz-adv-x="585" 
d="M40 189v48q0 9 9 25l237 428q5 10 15 10h67q7 0 7 -6q0 -2 -1 -4l-246 -443h212v209q0 14 10 14h58q14 0 14 -14v-209h105q14 0 14 -14v-44q0 -14 -14 -14h-105v-155q0 -20 -20 -20h-42q-20 0 -20 20v155h-286q-14 0 -14 14z" />
    <glyph glyph-name="five" unicode="5" horiz-adv-x="559" 
d="M54 161l46 27q4 3 8 3q6 0 9 -7q58 -122 165 -122q68 0 110 43t42 117q0 78 -43 119t-105 41q-86 0 -145 -67q-6 -7 -12 -7q-3 0 -7 1l-49 11q-6 2 -6 7v4l51 350q3 19 20 19h315q14 0 14 -14v-44q0 -14 -14 -14h-267l-33 -214q59 40 134 40q99 0 164 -58t65 -174
q0 -103 -66 -167.5t-168 -64.5q-85 0 -145 45.5t-88 110.5q-1 3 -1 5q0 6 6 10z" />
    <glyph glyph-name="six" unicode="6" horiz-adv-x="565" 
d="M488 620l-27 -33q-8 -9 -14 -9t-10 4q-59 56 -125 56q-70 0 -119 -72.5t-54 -169.5q24 31 70 52.5t95 21.5q94 0 157 -66.5t63 -173.5q0 -101 -68 -170.5t-167 -69.5q-104 0 -172.5 79.5t-68.5 218.5q0 186 70 304t194 118q99 0 176 -72q4 -4 4 -9q0 -4 -4 -9zM142 268
v-52q0 -69 43 -111.5t106 -42.5t107 45t44 123q0 77 -44.5 122.5t-106.5 45.5q-58 0 -107 -42q-41 -36 -42 -88z" />
    <glyph glyph-name="seven" unicode="7" horiz-adv-x="519" 
d="M138 19l262 609h-356q-14 0 -14 14v44q0 14 14 14h428q14 0 14 -14v-41q0 -12 -9 -32l-256 -600q-6 -13 -26 -13h-46q-13 0 -13 11q0 2 2 8z" />
    <glyph glyph-name="eight" unicode="8" horiz-adv-x="540" 
d="M162 390q-81 53 -81 142q0 79 56 128.5t133 49.5t133 -49.5t56 -128.5q0 -89 -81 -142q51 -25 83.5 -73.5t32.5 -110.5q0 -94 -62.5 -155t-161.5 -61t-161.5 61t-62.5 155q0 62 32.5 110.5t83.5 73.5zM270 62q59 0 100.5 39t41.5 105t-42.5 104.5t-99.5 38.5t-99.5 -38.5
t-42.5 -104.5q0 -67 41.5 -105.5t100.5 -38.5zM159 530q0 -49 34 -79t77 -30t77 30t34 79q0 50 -32 79t-79 29t-79 -29t-32 -79z" />
    <glyph glyph-name="nine" unicode="9" horiz-adv-x="565" 
d="M67 101l32 34q5 5 11 5t10 -4q69 -74 140 -74q73 0 116 58.5t46 163.5q-26 -25 -66 -39.5t-81 -14.5q-101 0 -167.5 66t-66.5 174q0 101 68 170.5t167 69.5q160 0 217 -138q24 -58 24 -174q0 -197 -65.5 -302.5t-191.5 -105.5q-110 0 -193 88q-5 5 -5 11q0 7 5 12z
M423 422v73q0 56 -24 88q-42 55 -125 55q-63 0 -107 -45t-44 -123q0 -77 44.5 -122.5t106.5 -45.5q66 0 107 32q42 32 42 88z" />
    <glyph glyph-name="colon" unicode=":" horiz-adv-x="218" 
d="M52 50q0 24 16.5 41t39.5 17q24 0 41 -17t17 -41q0 -23 -17 -39.5t-41 -16.5q-23 0 -39.5 16.5t-16.5 39.5zM52 430q0 24 16.5 41t39.5 17q24 0 41 -17t17 -41q0 -23 -17 -39.5t-41 -16.5q-23 0 -39.5 16.5t-16.5 39.5z" />
    <glyph glyph-name="semicolon" unicode=";" horiz-adv-x="218" 
d="M56 430q0 24 16.5 41t39.5 17q24 0 41 -17t17 -41q0 -23 -17 -39.5t-41 -16.5q-23 0 -39.5 16.5t-16.5 39.5zM68 -95l-23 15q-13 8 -13 16q0 7 3 11q45 59 45 136q0 13 9 18q6 2 12 2h39q19 0 19 -20q0 -87 -64 -171q-9 -10 -16 -10q-5 0 -11 3z" />
    <glyph glyph-name="less" unicode="&#x3c;" horiz-adv-x="458" 
d="M58 302v56q0 13 14 22l317 200q5 3 9 3q10 0 10 -11v-59q0 -13 -14 -22l-260 -161l260 -161q14 -9 14 -22v-59q0 -11 -10 -11q-4 0 -9 3l-317 200q-14 9 -14 22z" />
    <glyph glyph-name="equal" unicode="=" horiz-adv-x="510" 
d="M38 404v42q0 14 14 14h402q14 0 14 -14v-42q0 -14 -14 -14h-402q-14 0 -14 14zM38 194v42q0 14 14 14h402q14 0 14 -14v-42q0 -14 -14 -14h-402q-14 0 -14 14z" />
    <glyph glyph-name="greater" unicode="&#x3e;" horiz-adv-x="458" 
d="M50 88v59q0 13 14 22l260 161l-260 161q-14 9 -14 22v59q0 11 10 11q4 0 9 -3l317 -200q14 -9 14 -22v-56q0 -13 -14 -22l-317 -200q-5 -3 -9 -3q-10 0 -10 11z" />
    <glyph glyph-name="question" unicode="?" horiz-adv-x="526" 
d="M223 183v46q0 31 9 57t29.5 49.5t32.5 34.5t39 33q66 53 66 126q0 50 -37 79.5t-95 29.5q-96 0 -152 -126q-3 -6 -10 -6q-5 0 -10 2l-46 24q-7 4 -7 10q0 4 2 8q31 69 86.5 114.5t136.5 45.5q99 0 156.5 -48t57.5 -130q0 -95 -88 -169q-31 -26 -44.5 -39t-28.5 -40.5
t-15 -58.5v-42q0 -14 -14 -14h-54q-14 0 -14 14zM205 50q0 26 17.5 44t42.5 18t43.5 -18t18.5 -44q0 -25 -18 -42.5t-44 -17.5q-25 0 -42.5 17.5t-17.5 42.5z" />
    <glyph glyph-name="at" unicode="@" horiz-adv-x="794" 
d="M622 113l23 -44q2 -4 2 -7q0 -5 -6 -9q-61 -36 -115 -49.5t-127 -13.5q-66 0 -128.5 23.5t-113.5 67t-82 113.5t-31 156q0 162 104 261t251 99q148 0 250.5 -94t102.5 -253q0 -98 -37 -150.5t-101 -52.5q-68 0 -103 58q-48 -58 -124 -58q-72 0 -124 53t-52 140
q0 83 55.5 136.5t134.5 53.5q83 0 132 -49q21 -21 29 -37t8 -41v-95q0 -91 50 -91q27 0 39.5 30t12.5 100q0 135 -77 206.5t-196 71.5q-52 0 -100 -17.5t-88 -51.5t-63.5 -91t-23.5 -128q0 -138 82 -213t193 -75q66 0 107.5 12.5t96.5 43.5q5 3 9 3q6 0 10 -8zM494 328v57
q0 35 -20 58q-27 30 -71 30q-52 0 -82 -32t-30 -90q0 -55 30.5 -88t80.5 -33q43 0 71 30q21 22 21 68z" />
    <glyph glyph-name="A" unicode="A" horiz-adv-x="598" 
d="M8 14l251 670q5 16 23 16h34q18 0 23 -16l251 -670q0 -14 -14 -14h-52q-13 0 -18 14l-71 193h-272l-71 -193q-5 -14 -18 -14h-52q-14 0 -14 14zM190 279h218l-109 299z" />
    <glyph glyph-name="B" unicode="B" horiz-adv-x="636" 
d="M86 14v672q0 14 14 14h217q94 0 147.5 -51.5t53.5 -127.5q0 -40 -19.5 -76.5t-53.5 -58.5q147 -42 147 -184q0 -89 -56.5 -145.5t-164.5 -56.5h-271q-14 0 -14 14zM168 72h192q71 0 110.5 34.5t39.5 95.5q0 60 -38.5 95t-111.5 35h-192v-260zM168 404h149q51 0 85 30
t34 82q0 57 -33 84.5t-86 27.5h-149v-224z" />
    <glyph glyph-name="C" unicode="C" horiz-adv-x="657" 
d="M583 135l26 -32q4 -5 4 -10t-5 -10q-55 -53 -110 -73t-126 -20q-135 0 -229.5 95t-94.5 265q0 166 97 263t235 97q130 0 223 -85q5 -5 5 -9q0 -5 -4 -10l-24 -31q-7 -10 -15 -10q-5 0 -13 6q-46 38 -85 52.5t-92 14.5q-101 0 -170 -74t-69 -214q0 -137 70.5 -212.5
t168.5 -75.5q51 0 92 17.5t89 59.5q8 6 13 6q7 0 14 -10z" />
    <glyph glyph-name="D" unicode="D" horiz-adv-x="664" 
d="M86 14v672q0 14 14 14h170q147 0 246.5 -92t99.5 -258q0 -87 -27.5 -155t-75.5 -110t-109.5 -63.5t-133.5 -21.5h-170q-14 0 -14 14zM168 72h102q111 0 184.5 69.5t73.5 208.5q0 140 -73 209t-185 69h-102v-556z" />
    <glyph glyph-name="E" unicode="E" horiz-adv-x="594" 
d="M86 14v672q0 14 14 14h416q14 0 14 -14v-44q0 -14 -14 -14h-348v-224h282q14 0 14 -14v-44q0 -14 -14 -14h-282v-260h362q14 0 14 -14v-44q0 -14 -14 -14h-430q-14 0 -14 14z" />
    <glyph glyph-name="F" unicode="F" horiz-adv-x="588" 
d="M86 14v672q0 14 14 14h428q14 0 14 -14v-44q0 -14 -14 -14h-360v-236h294q14 0 14 -14v-44q0 -14 -14 -14h-294v-306q0 -14 -14 -14h-54q-14 0 -14 14z" />
    <glyph glyph-name="G" unicode="G" horiz-adv-x="734" 
d="M301 306v44q0 14 14 14h361q14 0 14 -14v-21q0 -147 -81.5 -243t-222.5 -96q-143 0 -240.5 94.5t-97.5 265.5q0 166 99.5 263t241.5 97q84 0 157.5 -37t114.5 -99q6 -9 6 -16t-6 -12l-34 -28q-7 -5 -11 -5q-8 0 -14 9q-81 116 -218 116q-48 0 -91.5 -17.5t-79 -51.5
t-56.5 -90.5t-21 -128.5q0 -136 72 -212t176 -76q101 0 158.5 61t62.5 169h-290q-14 0 -14 14z" />
    <glyph glyph-name="H" unicode="H" horiz-adv-x="671" 
d="M86 14v672q0 14 14 14h54q14 0 14 -14v-282h335v282q0 14 14 14h54q14 0 14 -14v-672q0 -14 -14 -14h-54q-14 0 -14 14v318h-335v-318q0 -14 -14 -14h-54q-14 0 -14 14z" />
    <glyph glyph-name="I" unicode="I" horiz-adv-x="412" 
d="M30 14v44q0 14 14 14h121v556h-111q-14 0 -14 14v44q0 14 14 14h304q14 0 14 -14v-44q0 -14 -14 -14h-111v-556h121q14 0 14 -14v-44q0 -14 -14 -14h-324q-14 0 -14 14z" />
    <glyph glyph-name="J" unicode="J" horiz-adv-x="567" 
d="M32 167l50 20q6 2 8 2q7 0 10 -8q37 -119 148 -119q63 0 98.5 40.5t35.5 120.5v405h-218q-14 0 -14 14v44q0 14 14 14h363q14 0 14 -14v-22q0 -13 -14 -18l-63 -18v-402q0 -112 -60.5 -174t-155.5 -62q-86 0 -141.5 45.5t-80.5 112.5q-2 6 -2 9q0 6 8 10z" />
    <glyph glyph-name="K" unicode="K" horiz-adv-x="585" 
d="M86 14v672q0 14 14 14h54q14 0 14 -14v-271l261 274q9 11 24 11h68q11 0 11 -9q0 -5 -4 -9l-245 -258l273 -401q4 -5 4 -11q0 -12 -12 -12h-59q-16 0 -27 16l-237 347l-57 -60v-289q0 -14 -14 -14h-54q-14 0 -14 14z" />
    <glyph glyph-name="L" unicode="L" horiz-adv-x="556" 
d="M86 14v672q0 14 14 14h54q14 0 14 -14v-614h343q14 0 14 -14v-44q0 -14 -14 -14h-411q-14 0 -14 14z" />
    <glyph glyph-name="M" unicode="M" horiz-adv-x="832" 
d="M51 14l71 672q2 14 15 14h49q13 0 19 -14l211 -560l211 560q6 14 19 14h49q13 0 15 -14l71 -672q0 -14 -15 -14h-52q-14 0 -15 14l-50 527l-193 -527q-5 -14 -18 -14h-44q-13 0 -18 14l-193 527l-50 -527q-1 -14 -15 -14h-52q-15 0 -15 14z" />
    <glyph glyph-name="N" unicode="N" horiz-adv-x="686" 
d="M86 14v672q0 14 14 14h41q14 0 23 -14l354 -531v531q0 14 14 14h54q14 0 14 -14v-672q0 -14 -14 -14h-41q-14 0 -23 14l-354 531v-531q0 -14 -14 -14h-54q-14 0 -14 14z" />
    <glyph glyph-name="O" unicode="O" horiz-adv-x="766" 
d="M383 -10q-89 0 -163.5 39.5t-123 123t-48.5 197.5q0 165 99.5 262.5t235.5 97.5t235.5 -97.5t99.5 -262.5q0 -114 -48.5 -197.5t-123 -123t-163.5 -39.5zM383 62q103 0 175 74.5t72 213.5q0 140 -72 214t-175 74t-175 -74t-72 -214q0 -139 72 -213.5t175 -74.5z" />
    <glyph glyph-name="P" unicode="P" horiz-adv-x="637" 
d="M86 14v672q0 14 14 14h261q101 0 164 -56.5t63 -148.5q0 -89 -58.5 -145.5t-151.5 -56.5h-210v-279q0 -14 -14 -14h-54q-14 0 -14 14zM168 365h204q65 0 99.5 36.5t34.5 93.5t-35 95t-99 38h-204v-263z" />
    <glyph glyph-name="Q" unicode="Q" horiz-adv-x="766" 
d="M559 -38l-33 58q-66 -30 -143 -30q-89 0 -163.5 39.5t-123 123t-48.5 197.5q0 165 99.5 262.5t235.5 97.5t235.5 -97.5t99.5 -262.5q0 -188 -126 -289l35 -64q2 -4 2 -8q0 -5 -5 -8l-41 -23q-7 -4 -12 -4q-7 0 -12 8zM491 86l-74 139q-2 4 -2 7q0 6 8 11l44 24q4 2 8 2
q6 0 10 -7l69 -129q76 79 76 217q0 140 -72 214t-175 74t-175 -74t-72 -214q0 -139 72 -213.5t175 -74.5q59 0 108 24z" />
    <glyph glyph-name="R" unicode="R" horiz-adv-x="615" 
d="M86 14v672q0 14 14 14h245q101 0 159.5 -51.5t58.5 -130.5q0 -78 -56 -130t-145 -52h-12l223 -316q3 -4 3 -9q0 -11 -13 -11h-59q-16 0 -27 15l-225 321h-84v-322q0 -14 -14 -14h-54q-14 0 -14 14zM168 408h178q135 0 135 110t-135 110h-178v-220z" />
    <glyph glyph-name="S" unicode="S" horiz-adv-x="571" 
d="M45 165l50 26q6 3 9 3q5 0 9 -7q34 -62 79 -93.5t112 -31.5q60 0 96.5 34.5t36.5 96.5q0 51 -41 82t-128 56q-82 23 -138 72.5t-56 123.5q0 83 59.5 133t153.5 50q129 0 209 -105q4 -5 4 -9q0 -5 -6 -10l-38 -31q-7 -5 -10 -5q-5 0 -10 6q-65 82 -149 82q-57 0 -94 -26.5
t-37 -75.5q0 -50 41.5 -82t115.5 -54q45 -14 79 -29t66.5 -38.5t49.5 -57t17 -76.5q0 -92 -63 -150.5t-162 -58.5q-89 0 -157 43t-100 112q-4 8 -4 12q0 5 6 8z" />
    <glyph glyph-name="T" unicode="T" horiz-adv-x="592" 
d="M255 14v614h-209q-14 0 -14 14v44q0 14 14 14h500q14 0 14 -14v-44q0 -14 -14 -14h-209v-614q0 -14 -14 -14h-54q-14 0 -14 14z" />
    <glyph glyph-name="U" unicode="U" horiz-adv-x="694" 
d="M82 299v387q0 14 14 14h54q14 0 14 -14v-376q0 -248 183 -248t183 248v376q0 14 14 14h54q14 0 14 -14v-387q0 -151 -66.5 -230t-198.5 -79t-198.5 79t-66.5 230z" />
    <glyph glyph-name="V" unicode="V" horiz-adv-x="574" 
d="M237 20l-229 664q0 16 14 16h55q14 0 20 -16l190 -574l190 574q6 16 20 16h55q14 0 14 -16l-229 -664q-6 -20 -24 -20h-52q-18 0 -24 20z" />
    <glyph glyph-name="W" unicode="W" horiz-adv-x="870" 
d="M190 20l-180 660q0 20 20 20h42q9 0 13 -4.5t7 -15.5l145 -546l156 546q6 20 25 20h34q19 0 25 -20l156 -546l145 546q3 11 7 15.5t13 4.5h42q20 0 20 -20l-180 -660q-6 -20 -26 -20h-37q-19 0 -25 20l-157 544l-157 -544q-6 -20 -25 -20h-37q-20 0 -26 20z" />
    <glyph glyph-name="X" unicode="X" horiz-adv-x="553" 
d="M17 22l214 349l-187 305q-4 7 -4 11q0 13 14 13h50q14 0 22 -12l150 -244l150 244q8 12 22 12h50q14 0 14 -13q0 -4 -4 -11l-187 -305l214 -349q4 -7 4 -11q0 -11 -11 -11h-50q-17 0 -26 15l-176 284l-176 -284q-9 -15 -26 -15h-50q-11 0 -11 11q0 4 4 11z" />
    <glyph glyph-name="Y" unicode="Y" horiz-adv-x="519" 
d="M121 15l107 240l-221 421q-3 6 -3 11q0 13 14 13h55q17 0 25 -15l171 -338l153 338q6 15 23 15h55q10 0 10 -8q0 -3 -2 -7l-300 -671q-6 -14 -20 -14h-59q-10 0 -10 8q0 3 2 7z" />
    <glyph glyph-name="Z" unicode="Z" horiz-adv-x="556" 
d="M31 20v32q0 13 11 30l359 546h-338q-14 0 -14 14v44q0 14 14 14h421q14 0 14 -14v-26q0 -18 -14 -40l-355 -548h375q14 0 14 -14v-44q0 -14 -14 -14h-453q-20 0 -20 20z" />
    <glyph glyph-name="bracketleft" unicode="[" horiz-adv-x="357" 
d="M86 -126v812q0 14 14 14h191q14 0 14 -14v-44q0 -14 -14 -14h-123v-696h123q14 0 14 -14v-44q0 -14 -14 -14h-191q-14 0 -14 14z" />
    <glyph glyph-name="backslash" unicode="\" horiz-adv-x="466" 
d="M358 14l-333 666q-3 6 -3 10q0 10 12 10h53q15 0 21 -14l333 -666q3 -6 3 -10q0 -10 -12 -10h-53q-15 0 -21 14z" />
    <glyph glyph-name="bracketright" unicode="]" horiz-adv-x="357" 
d="M52 -126v44q0 14 14 14h123v696h-123q-14 0 -14 14v44q0 14 14 14h191q14 0 14 -14v-812q0 -14 -14 -14h-191q-14 0 -14 14z" />
    <glyph glyph-name="asciicircum" unicode="^" horiz-adv-x="546" 
d="M31 403l192 283q9 14 22 14h56q13 0 22 -14l192 -283q3 -5 3 -9q0 -10 -11 -10h-63q-12 0 -20 11l-151 227l-151 -227q-8 -11 -20 -11h-63q-11 0 -11 10q0 4 3 9z" />
    <glyph glyph-name="underscore" unicode="_" horiz-adv-x="442" 
d="M6 -66v42q0 14 14 14h402q14 0 14 -14v-42q0 -14 -14 -14h-402q-14 0 -14 14z" />
    <glyph glyph-name="grave" unicode="`" horiz-adv-x="317" 
d="M53 657l26 36q4 7 11 7q4 0 9 -4l161 -115q7 -5 7 -10t-3 -9l-26 -36q-4 -7 -11 -7q-4 0 -9 4l-161 115q-7 5 -7 10q0 4 3 9z" />
    <glyph glyph-name="a" unicode="a" horiz-adv-x="579" 
d="M441 14l-14 38q-60 -62 -155 -62q-101 0 -165.5 64.5t-64.5 180.5q0 112 67 178.5t173 66.5q47 0 88 -17.5t61 -42.5v36q0 14 14 14h48q14 0 14 -14v-442q0 -14 -14 -14h-32q-15 0 -20 14zM431 200v84q0 46 -30 79q-48 51 -115 51q-73 0 -118.5 -48.5t-45.5 -131.5
q0 -81 44.5 -129.5t117.5 -48.5q76 0 123 61q24 29 24 83z" />
    <glyph glyph-name="b" unicode="b" horiz-adv-x="568" 
d="M72 14v692q0 14 14 14h48q14 0 14 -14v-315q29 38 74.5 63.5t101.5 25.5q95 0 148.5 -64.5t53.5 -178.5q0 -104 -64 -175.5t-174 -71.5q-76 0 -140 42v-18q0 -14 -14 -14h-48q-14 0 -14 14zM148 242v-95q0 -31 29 -53q50 -38 112 -38q75 0 116 49t41 131q0 178 -131 178
q-51 0 -90.5 -28.5t-61.5 -72.5q-15 -28 -15 -71z" />
    <glyph glyph-name="c" unicode="c" horiz-adv-x="512" 
d="M435 118l32 -30q5 -5 5 -11t-6 -12q-43 -43 -85.5 -59t-94.5 -16q-105 0 -174.5 65.5t-69.5 179.5q0 110 70 177.5t179 67.5q48 0 94 -18.5t73 -48.5q5 -6 5 -10q0 -5 -4 -10l-24 -33q-4 -5 -11 -5q-6 0 -12 6q-51 53 -126 53q-73 0 -118.5 -48.5t-45.5 -131.5
q0 -76 46.5 -127t117.5 -51q43 0 71 14.5t59 45.5q5 5 10 5q6 0 9 -3z" />
    <glyph glyph-name="d" unicode="d" horiz-adv-x="562" 
d="M424 14l-10 32q-63 -56 -154 -56q-99 0 -158.5 64t-59.5 181q0 112 64.5 178.5t169.5 66.5q41 0 80 -16.5t58 -39.5v282q0 14 14 14h48q14 0 14 -14v-692q0 -14 -14 -14h-32q-15 0 -20 14zM414 196v88q0 46 -30 79q-48 51 -110 51q-66 0 -109 -49t-43 -131
q0 -79 40 -128.5t110 -49.5q73 0 120 61q22 28 22 79z" />
    <glyph glyph-name="e" unicode="e" horiz-adv-x="552" 
d="M458 121l26 -26q5 -5 5 -11t-6 -12q-82 -82 -196 -82q-102 0 -173.5 66t-71.5 179q0 109 68 177t168 68t162 -67.5t68 -160.5v-26q0 -14 -14 -14h-372q4 -72 50 -114t115 -42q90 0 147 65q6 6 12 6t12 -6zM122 274h306q-3 58 -44.5 99t-103.5 41q-66 0 -107.5 -38
t-50.5 -102z" />
    <glyph glyph-name="f" unicode="f" horiz-adv-x="343" 
d="M110 14v390h-77q-14 0 -14 14v38q0 14 14 14h77v109q0 67 43 109t109 42q30 0 56 -9q10 -3 10 -15v-38q0 -13 -10 -13q-2 0 -19 4.5t-37 4.5q-36 0 -56 -26.5t-20 -73.5v-94h118q14 0 14 -14v-38q0 -14 -14 -14h-118v-390q0 -14 -14 -14h-48q-14 0 -14 14z" />
    <glyph glyph-name="g" unicode="g" horiz-adv-x="564" 
d="M66 -131l32 37q5 5 9 5t8 -3q84 -82 172 -82q64 0 99 42t35 116v56q-55 -50 -143 -50q-105 0 -170.5 66.5t-65.5 178.5q0 117 64 181t166 64q45 0 85.5 -15t63.5 -41v32q0 14 14 14h48q14 0 14 -14v-475q0 -99 -59.5 -160t-150.5 -61q-123 0 -222 91q-4 4 -4 8q0 5 5 10z
M421 181v93q0 51 -22 79q-47 61 -125 61q-71 0 -111.5 -49.5t-40.5 -128.5q0 -82 44 -131t110 -49q76 0 117 44q28 31 28 81z" />
    <glyph glyph-name="h" unicode="h" horiz-adv-x="554" 
d="M72 14v692q0 14 14 14h48q14 0 14 -14v-312q27 36 76.5 61t106.5 25q70 0 107.5 -37t37.5 -110v-319q0 -14 -14 -14h-48q-14 0 -14 14v318q0 40 -21.5 61t-59.5 21q-44 0 -85 -26t-62 -60q-24 -38 -24 -123v-191q0 -14 -14 -14h-48q-14 0 -14 14z" />
    <glyph glyph-name="i" unicode="i" horiz-adv-x="220" 
d="M72 14v442q0 14 14 14h48q14 0 14 -14v-442q0 -14 -14 -14h-48q-14 0 -14 14zM54 614q0 23 16.5 39.5t39.5 16.5t39.5 -16.5t16.5 -39.5t-16.5 -39.5t-39.5 -16.5t-39.5 16.5t-16.5 39.5z" />
    <glyph glyph-name="j" unicode="j" horiz-adv-x="220" 
d="M54 614q0 23 16.5 39.5t39.5 16.5t39.5 -16.5t16.5 -39.5t-16.5 -39.5t-39.5 -16.5t-39.5 16.5t-16.5 39.5zM-38 -223v38q0 15 14 15q2 0 12 -2t16 -2q37 0 52.5 19.5t15.5 65.5v545q0 14 14 14h48q14 0 14 -14v-525q0 -171 -144 -171q-14 0 -29 3q-13 3 -13 14z" />
    <glyph glyph-name="k" unicode="k" horiz-adv-x="468" 
d="M72 14v692q0 14 14 14h48q14 0 14 -14v-419l165 169q12 14 27 14h60q12 0 12 -10q0 -5 -4 -9l-162 -164l194 -268q3 -5 3 -9q0 -10 -12 -10h-56q-15 0 -24 14l-158 219l-45 -46v-173q0 -14 -14 -14h-48q-14 0 -14 14z" />
    <glyph glyph-name="l" unicode="l" horiz-adv-x="263" 
d="M72 91v615q0 14 14 14h48q14 0 14 -14v-600q0 -23 10.5 -36.5t25.5 -13.5q12 0 22 5t13 5q10 0 10 -13v-38q0 -11 -10 -15q-23 -10 -46 -10q-47 0 -74 25.5t-27 75.5z" />
    <glyph glyph-name="m" unicode="m" horiz-adv-x="780" 
d="M72 14v442q0 14 14 14h48q14 0 14 -14v-62q22 37 61 61.5t90 24.5q98 0 121 -89q57 89 148 89q64 0 99 -32.5t35 -97.5v-336q0 -14 -14 -14h-48q-14 0 -14 14v326q0 34 -17 54t-51 20q-35 0 -59 -17.5t-50 -52.5q-24 -33 -24 -82v-248q0 -14 -14 -14h-48q-14 0 -14 14
v326q0 35 -17.5 54.5t-50.5 19.5q-61 0 -106 -65q-27 -40 -27 -75v-260q0 -14 -14 -14h-48q-14 0 -14 14z" />
    <glyph glyph-name="n" unicode="n" horiz-adv-x="554" 
d="M72 14v442q0 14 14 14h48q14 0 14 -14v-62q22 34 72.5 60t104.5 26q72 0 111.5 -37.5t39.5 -109.5v-319q0 -14 -14 -14h-48q-14 0 -14 14v315q0 85 -87 85q-42 0 -81 -25.5t-60 -60.5q-24 -38 -24 -123v-191q0 -14 -14 -14h-48q-14 0 -14 14z" />
    <glyph glyph-name="o" unicode="o" horiz-adv-x="556" 
d="M278 -10q-101 0 -168.5 65.5t-67.5 179.5q0 111 66 178t170 67t170 -67t66 -178q0 -114 -67.5 -179.5t-168.5 -65.5zM278 56q70 0 113 50.5t43 127.5q0 82 -44.5 131t-111.5 49t-111.5 -49t-44.5 -131q0 -77 43 -127.5t113 -50.5z" />
    <glyph glyph-name="p" unicode="p" horiz-adv-x="560" 
d="M72 -216v672q0 14 14 14h32q17 0 20 -14l10 -44q25 27 68 47.5t91 20.5q96 0 153.5 -63t57.5 -182q0 -116 -62.5 -180.5t-167.5 -64.5q-41 0 -79.5 13t-60.5 32v-251q0 -14 -14 -14h-48q-14 0 -14 14zM148 262v-93q0 -48 30 -73q47 -40 109 -40q67 0 109 48.5t42 131.5
q0 79 -38 128.5t-104 49.5q-74 0 -124 -66q-24 -30 -24 -86z" />
    <glyph glyph-name="q" unicode="q" horiz-adv-x="564" 
d="M416 -210v252q-55 -52 -146 -52q-100 0 -164 65t-64 178q0 105 63 176t176 71q71 0 135 -42v18q0 14 14 14h48q14 0 14 -14v-584q11 12 29.5 21t31.5 9q20 0 20 -21v-27q0 -18 -21 -20q-50 -4 -73 -52q-5 -12 -27 -12h-16q-20 0 -20 20zM416 166v157q0 31 -29 53
q-50 38 -106 38q-78 0 -118.5 -48.5t-40.5 -131.5q0 -87 45 -132.5t112 -45.5q69 0 113 46q24 25 24 64z" />
    <glyph glyph-name="r" unicode="r" horiz-adv-x="481" 
d="M72 14v442q0 14 14 14h48q14 0 14 -14v-62q68 86 168 86q66 0 103.5 -36.5t37.5 -104.5q0 -10 -14 -10h-48q-12 0 -14 10q-6 40 -25 57.5t-56 17.5q-75 0 -126 -85q-26 -44 -26 -124v-191q0 -14 -14 -14h-48q-14 0 -14 14z" />
    <glyph glyph-name="s" unicode="s" horiz-adv-x="453" 
d="M45 122l36 20q5 3 9 3q8 0 13 -7q31 -46 64 -64t80 -18q43 0 63 18.5t20 48.5q0 37 -29 56t-97 36q-143 36 -143 136q0 62 47 95.5t113 33.5q94 0 162 -69q4 -4 4 -10t-5 -11l-21 -24q-7 -7 -13 -7q-8 0 -15 6q-55 49 -115 49q-36 0 -58.5 -15.5t-22.5 -44.5
q0 -22 18.5 -38.5t39.5 -24.5t57 -18q73 -20 114.5 -52.5t41.5 -89.5q0 -59 -43 -100t-121 -41q-136 0 -205 107q-3 4 -3 11q0 9 9 14z" />
    <glyph glyph-name="t" unicode="t" horiz-adv-x="358" 
d="M121 110v294h-87q-14 0 -14 14v38q0 14 14 14h87v148q0 14 14 14h48q14 0 14 -14v-148h119q14 0 14 -14v-38q0 -14 -14 -14h-119v-272q0 -76 61 -76q10 0 22 2.5t14 2.5q10 0 10 -13v-43q0 -9 -10 -10q-30 -5 -66 -5q-44 0 -75.5 32t-31.5 88z" />
    <glyph glyph-name="u" unicode="u" horiz-adv-x="555" 
d="M78 157v299q0 14 14 14h48q14 0 14 -14v-287q0 -113 104 -113q32 0 68 14t58 36q23 23 23 54v296q0 14 14 14h48q14 0 14 -14v-442q0 -14 -14 -14h-48q-14 0 -14 14v32q-70 -56 -163 -56q-82 0 -124 43t-42 124z" />
    <glyph glyph-name="v" unicode="v" horiz-adv-x="474" 
d="M195 14l-177 442q0 14 14 14h50q13 0 18 -14l137 -354l137 354q5 14 18 14h50q14 0 14 -14l-177 -442q-5 -14 -19 -14h-46q-14 0 -19 14z" />
    <glyph glyph-name="w" unicode="w" horiz-adv-x="694" 
d="M174 12l-155 444q0 14 14 14h49q11 0 16 -14l107 -315l108 315q5 14 16 14h36q11 0 16 -14l108 -315l107 315q5 14 16 14h49q14 0 14 -14l-155 -444q-4 -12 -14 -12h-29q-11 0 -16 12l-114 337l-114 -337q-5 -12 -16 -12h-29q-10 0 -14 12z" />
    <glyph glyph-name="x" unicode="x" horiz-adv-x="447" 
d="M26 18l153 223l-143 211q-3 4 -3 9q0 9 10 9h58q9 0 15 -8l107 -157l107 157q6 8 15 8h58q10 0 10 -9q0 -5 -3 -9l-143 -211l154 -223q3 -4 3 -9q0 -9 -10 -9h-57q-12 0 -22 14l-112 163l-111 -163q-10 -14 -22 -14h-57q-10 0 -10 9q0 5 3 9z" />
    <glyph glyph-name="y" unicode="y" horiz-adv-x="489" 
d="M117 -213l90 224q-1 1 -1 3l-186 442q0 14 14 14h54q13 0 18 -14l139 -349l140 349q5 14 18 14h50q14 0 14 -14l-270 -672q-5 -14 -19 -14h-53q-10 0 -10 8q0 3 2 9z" />
    <glyph glyph-name="z" unicode="z" horiz-adv-x="432" 
d="M30 14v44q0 13 8 23l260 323h-242q-14 0 -14 14v38q0 14 14 14h312q14 0 14 -14v-37q0 -13 -10 -30l-260 -323h274q14 0 14 -14v-38q0 -14 -14 -14h-342q-14 0 -14 14z" />
    <glyph glyph-name="braceleft" unicode="{" horiz-adv-x="371" 
d="M114 -12v196q0 33 -11 46.5t-44 13.5h-29q-14 0 -14 14v44q0 14 14 14h29q33 0 44 13.5t11 46.5v196q0 67 30.5 97.5t97.5 30.5h63q14 0 14 -14v-44q0 -14 -14 -14h-54q-29 0 -42 -13t-13 -42v-198q0 -78 -67 -95q67 -17 67 -95v-198q0 -29 13 -42t42 -13h54q14 0 14 -14
v-44q0 -14 -14 -14h-63q-67 0 -97.5 30.5t-30.5 97.5z" />
    <glyph glyph-name="bar" unicode="|" horiz-adv-x="254" 
d="M86 -216v902q0 14 14 14h54q14 0 14 -14v-902q0 -14 -14 -14h-54q-14 0 -14 14z" />
    <glyph glyph-name="braceright" unicode="}" horiz-adv-x="371" 
d="M52 -126v44q0 14 14 14h54q29 0 42 13t13 42v198q0 78 67 95q-67 17 -67 95v198q0 29 -13 42t-42 13h-54q-14 0 -14 14v44q0 14 14 14h63q67 0 97.5 -30.5t30.5 -97.5v-196q0 -33 11 -46.5t44 -13.5h29q14 0 14 -14v-44q0 -14 -14 -14h-29q-33 0 -44 -13.5t-11 -46.5
v-196q0 -67 -30.5 -97.5t-97.5 -30.5h-63q-14 0 -14 14z" />
    <glyph glyph-name="asciitilde" unicode="~" horiz-adv-x="489" 
d="M86 288l-44 23q-9 5 -9 11q0 2 2 8q43 101 132 101q30 0 53.5 -10.5t36 -22.5t29.5 -22.5t34 -10.5q39 0 65 59q4 9 10 9q4 0 8 -2l44 -23q9 -5 9 -11q0 -2 -2 -8q-43 -101 -132 -101q-30 0 -53.5 10.5t-36 22.5t-29.5 22.5t-34 10.5q-39 0 -65 -59q-4 -9 -10 -9
q-4 0 -8 2z" />
    <glyph glyph-name="exclamdown" unicode="&#xa1;" horiz-adv-x="258" 
d="M68 420q0 25 17.5 42.5t42.5 17.5q26 0 44 -17.5t18 -42.5q0 -26 -18 -44t-44 -18q-25 0 -42.5 18t-17.5 44zM86 -216v503q0 14 14 14h54q14 0 14 -14v-503q0 -14 -14 -14h-54q-14 0 -14 14z" />
    <glyph glyph-name="cent" unicode="&#xa2;" horiz-adv-x="512" 
d="M242 14v95q-89 13 -144.5 76.5t-55.5 165.5q0 97 55 161.5t145 79.5v94q0 14 14 14h48q14 0 14 -14v-92q90 -10 140 -65q5 -6 5 -10q0 -5 -4 -10l-24 -33q-4 -5 -11 -5q-6 0 -12 6q-39 39 -94 50v-353q50 9 98 58q5 5 10 5q6 0 9 -3l32 -30q5 -5 5 -11t-6 -12
q-66 -66 -148 -74v-93q0 -14 -14 -14h-48q-14 0 -14 14zM242 178v347q-55 -14 -87.5 -60t-32.5 -115q0 -64 33 -111t87 -61z" />
    <glyph glyph-name="sterling" unicode="&#xa3;" horiz-adv-x="545" 
d="M60 14v53q0 19 18 37q32 32 32 102v134h-66q-14 0 -14 14v42q0 14 14 14h66v86q0 104 56.5 159t142.5 55q135 0 197 -125q2 -4 2 -7q0 -6 -5 -8l-45 -27q-4 -2 -8 -2q-6 0 -10 6q-27 47 -56 70t-75 23q-54 0 -85.5 -37t-31.5 -102v-91h163q14 0 14 -14v-42q0 -14 -14 -14
h-163v-168q0 -68 -38 -100h343q14 0 14 -14v-44q0 -14 -14 -14h-423q-14 0 -14 14z" />
    <glyph glyph-name="currency" unicode="&#xa4;" horiz-adv-x="628" 
d="M83 86l-33 33q-6 6 -6 10t6 10l62 62q-46 60 -46 149q0 88 45 149l-61 62q-6 6 -6 10t6 10l33 33q6 6 10 6t10 -6l62 -63q64 44 149 44t149 -44l62 63q6 6 10 6t10 -6l33 -33q6 -6 6 -10t-6 -10l-61 -62q45 -61 45 -149q0 -87 -46 -149l62 -62q6 -6 6 -10t-6 -10l-33 -33
q-6 -6 -10 -6t-10 6l-63 63q-65 -44 -148 -44t-148 44l-63 -63q-6 -6 -10 -6t-10 6zM314 171q77 0 122.5 47.5t45.5 131.5q0 83 -48 131t-120 48t-120 -48t-48 -131q0 -84 45.5 -131.5t122.5 -47.5z" />
    <glyph glyph-name="yen" unicode="&#xa5;" horiz-adv-x="518" 
d="M55 174v42q0 14 14 14h149v72h-149q-14 0 -14 14v42q0 14 14 14h111l-164 308q-2 4 -2 8q0 12 13 12h49q17 0 24 -14l159 -308l159 308q7 14 24 14h49q13 0 13 -12q0 -4 -2 -8l-164 -308h111q14 0 14 -14v-42q0 -14 -14 -14h-149v-72h149q14 0 14 -14v-42q0 -14 -14 -14
h-149v-146q0 -14 -14 -14h-54q-14 0 -14 14v146h-149q-14 0 -14 14z" />
    <glyph glyph-name="brokenbar" unicode="&#xa6;" horiz-adv-x="254" 
d="M86 304v382q0 14 14 14h54q14 0 14 -14v-382q0 -14 -14 -14h-54q-14 0 -14 14zM86 -216v382q0 14 14 14h54q14 0 14 -14v-382q0 -14 -14 -14h-54q-14 0 -14 14z" />
    <glyph glyph-name="section" unicode="&#xa7;" horiz-adv-x="496" 
d="M46 -121l41 32q7 5 10 5q5 0 10 -6q58 -78 138 -78q52 0 84.5 27t32.5 72q0 46 -37 78.5t-120 69.5q-85 37 -126 78t-41 108q0 79 75 133q-65 58 -65 135q0 80 56.5 128.5t142.5 48.5q73 0 119.5 -28t81.5 -74q3 -5 3 -8q0 -5 -5 -9l-41 -32q-7 -5 -10 -5q-6 0 -10 6
q-58 78 -138 78q-52 0 -84.5 -27t-32.5 -72q0 -46 37 -78.5t120 -69.5q85 -37 126 -78t41 -108q0 -79 -75 -133q65 -58 65 -135q0 -80 -56.5 -128.5t-142.5 -48.5q-73 0 -119.5 28t-81.5 74q-3 4 -3 8q0 5 5 9zM315 115q57 34 57 89q0 37 -34.5 67.5t-110.5 60.5
q-30 12 -50 23q-57 -34 -57 -89q0 -37 34.5 -67.5t110.5 -60.5q29 -12 50 -23z" />
    <glyph glyph-name="dieresis" unicode="&#xa8;" horiz-adv-x="370" 
d="M50 614q0 21 14.5 35.5t35.5 14.5t35.5 -14.5t14.5 -35.5t-14.5 -35.5t-35.5 -14.5t-35.5 14.5t-14.5 35.5zM220 614q0 21 14.5 35.5t35.5 14.5t35.5 -14.5t14.5 -35.5t-14.5 -35.5t-35.5 -14.5t-35.5 14.5t-14.5 35.5z" />
    <glyph glyph-name="copyright" unicode="&#xa9;" horiz-adv-x="806" 
d="M403 -10q-66 0 -128.5 23.5t-113.5 67t-82 113.5t-31 156q0 111 52 195t131.5 124.5t171.5 40.5t171.5 -40.5t131.5 -124.5t52 -195q0 -86 -31 -156t-82 -113.5t-113.5 -67t-128.5 -23.5zM403 62q112 0 192.5 73.5t80.5 214.5q0 72 -23.5 129t-63 91t-87 51t-99.5 17
t-99.5 -17t-87 -51t-63 -91t-23.5 -129q0 -141 80.5 -214.5t192.5 -73.5zM543 251l24 -26q4 -4 4 -9q0 -6 -5 -11q-64 -64 -154 -64t-149.5 56t-59.5 154q0 95 58.5 152.5t151.5 57.5q40 0 81 -15.5t63 -39.5q6 -6 6 -12t-5 -12l-20 -26q-5 -7 -11 -7t-11 5q-49 47 -104 47
q-62 0 -99.5 -40t-37.5 -111q0 -65 38 -107t99 -42q37 0 60.5 11t49.5 38q5 5 11 5t10 -4z" />
    <glyph glyph-name="ordfeminine" unicode="&#xaa;" horiz-adv-x="417" 
d="M313 386l-9 24q-41 -43 -108 -43q-66 0 -112 45t-46 124q0 77 47 123t117 46q67 0 102 -41v20q0 14 14 14h31q14 0 14 -14v-296q0 -14 -14 -14h-20q-11 0 -16 12zM304 513v55q0 31 -21 53q-30 32 -73 32q-45 0 -76 -32t-31 -86q0 -53 29 -84t77 -31q51 0 78 38
q17 21 17 55z" />
    <glyph glyph-name="guillemotleft" unicode="&#xab;" horiz-adv-x="583" 
d="M52 306v48q0 13 10 21l242 188q4 3 9 3q10 0 10 -11v-61q0 -13 -9 -20l-185 -144l185 -144q9 -7 9 -20v-61q0 -11 -10 -11q-5 0 -9 3l-242 188q-10 8 -10 21zM262 306v48q0 13 10 21l242 188q4 3 9 3q10 0 10 -11v-61q0 -13 -9 -20l-185 -144l185 -144q9 -7 9 -20v-61
q0 -11 -10 -11q-5 0 -9 3l-242 188q-10 8 -10 21z" />
    <glyph glyph-name="logicalnot" unicode="&#xac;" horiz-adv-x="465" 
d="M38 394v42q0 14 14 14h357q14 0 14 -14v-202q0 -14 -14 -14h-42q-14 0 -14 14v146h-301q-14 0 -14 14z" />
    <glyph glyph-name="registered" unicode="&#xae;" horiz-adv-x="806" 
d="M403 -10q-66 0 -128.5 23.5t-113.5 67t-82 113.5t-31 156q0 111 52 195t131.5 124.5t171.5 40.5t171.5 -40.5t131.5 -124.5t52 -195q0 -86 -31 -156t-82 -113.5t-113.5 -67t-128.5 -23.5zM403 62q112 0 192.5 73.5t80.5 214.5q0 72 -23.5 129t-63 91t-87 51t-99.5 17
t-99.5 -17t-87 -51t-63 -91t-23.5 -129q0 -141 80.5 -214.5t192.5 -73.5zM268 158v384q0 14 14 14h142q61 0 96 -29t35 -78q0 -47 -34.5 -77t-82.5 -30h-7l131 -186q2 -3 2 -5q0 -7 -8 -7h-53q-10 0 -16 9l-132 189h-19v-184q0 -14 -14 -14h-40q-14 0 -14 14zM336 398h86
q69 0 69 51t-69 51h-86v-102z" />
    <glyph glyph-name="macron" unicode="&#xaf;" horiz-adv-x="316" 
d="M50 575v38q0 14 14 14h188q14 0 14 -14v-38q0 -14 -14 -14h-188q-14 0 -14 14z" />
    <glyph glyph-name="degree" unicode="&#xb0;" horiz-adv-x="425" 
d="M213 367q-70 0 -119.5 45.5t-49.5 123.5q0 76 48 122.5t121 46.5t120.5 -46.5t47.5 -122.5q0 -78 -49 -123.5t-119 -45.5zM213 429q43 0 71.5 30t28.5 76q0 50 -29.5 79t-70.5 29q-42 0 -71.5 -29t-29.5 -79q0 -46 28.5 -76t72.5 -30z" />
    <glyph glyph-name="plusminus" unicode="&#xb1;" horiz-adv-x="510" 
d="M218 144v166h-166q-14 0 -14 14v42q0 14 14 14h166v166q0 14 14 14h42q14 0 14 -14v-166h166q14 0 14 -14v-42q0 -14 -14 -14h-166v-166q0 -14 -14 -14h-42q-14 0 -14 14zM38 14v42q0 14 14 14h402q14 0 14 -14v-42q0 -14 -14 -14h-402q-14 0 -14 14z" />
    <glyph glyph-name="twosuperior" unicode="&#xb2;" horiz-adv-x="315" 
d="M51 386v27q0 10 6 16l114 105q34 31 34 70q0 22 -14 35.5t-37 13.5q-39 0 -61 -53q-1 -4 -4 -4q-2 0 -6 2l-36 18q-3 2 -3 4l1 4q12 33 40.5 57t68.5 24q50 0 79 -26t29 -68q0 -34 -15 -61t-49 -59l-72 -67h129q14 0 14 -14v-24q0 -14 -14 -14h-190q-14 0 -14 14z" />
    <glyph glyph-name="threesuperior" unicode="&#xb3;" horiz-adv-x="310" 
d="M44 448l38 23q4 2 5 2q3 0 5 -3q13 -26 27.5 -38.5t39.5 -12.5q23 0 35.5 15t12.5 41q0 27 -17 43t-49 16h-15q-14 0 -14 14v16q0 14 9 23l59 65h-115q-10 0 -10 10v28q0 10 10 10h178q10 0 10 -9v-25q0 -5 -10 -17l-62 -68q84 -21 84 -107q0 -47 -31 -77t-78 -30
q-78 0 -113 71q-2 4 -2 6t3 4z" />
    <glyph glyph-name="acute" unicode="&#xb4;" horiz-adv-x="317" 
d="M79 526l-26 36q-3 4 -3 9t7 10l161 115q5 4 9 4q7 0 11 -7l26 -36q3 -5 3 -9q0 -5 -7 -10l-161 -115q-5 -4 -9 -4q-7 0 -11 7z" />
    <glyph glyph-name="mu" unicode="&#xb5;" horiz-adv-x="549" 
d="M72 -216v672q0 14 14 14h48q14 0 14 -14v-287q0 -113 104 -113q32 0 68 14t58 36q23 23 23 54v296q0 14 14 14h48q14 0 14 -14v-436q0 -20 -20 -20h-36q-20 0 -20 20v26q-70 -56 -163 -56q-51 0 -90 18v-224q0 -14 -14 -14h-48q-14 0 -14 14z" />
    <glyph glyph-name="paragraph" unicode="&#xb6;" horiz-adv-x="719" 
d="M351 -216v481h-81q-96 0 -158.5 59.5t-62.5 156.5q0 98 67.5 158.5t170.5 60.5h332q14 0 14 -14v-902q0 -14 -14 -14h-54q-14 0 -14 14v844h-118v-844q0 -14 -14 -14h-54q-14 0 -14 14zM283 337h68v291h-68q-73 0 -112.5 -41.5t-39.5 -105.5t39 -104t113 -40z" />
    <glyph glyph-name="periodcentered" unicode="&#xb7;" horiz-adv-x="218" 
d="M52 350q0 24 16.5 41t39.5 17q24 0 41 -17t17 -41q0 -23 -17 -39.5t-41 -16.5q-23 0 -39.5 16.5t-16.5 39.5z" />
    <glyph glyph-name="cedilla" unicode="&#xb8;" horiz-adv-x="294" 
d="M31 -170l7 39q1 11 14 11q3 0 28 -9t45 -9q29 0 44 15t15 39q0 55 -85 80q-6 2 -6 6q0 5 8 8l29 12q9 3 16 3t17 -2q41 -10 71 -40t30 -69q0 -58 -36 -88t-94 -30q-47 0 -95 15q-9 3 -9 11q0 2 1 8z" />
    <glyph glyph-name="onesuperior" unicode="&#xb9;" horiz-adv-x="274" 
d="M55 386v24q0 14 13 14h49v208l-39 -37q-3 -3 -7 -3q-5 0 -10 5l-17 17q-5 5 -5 10t6 11l57 50q17 15 38 15h18q16 0 16 -16v-260h48q14 0 14 -14v-24q0 -14 -14 -14h-154q-13 0 -13 14z" />
    <glyph glyph-name="ordmasculine" unicode="&#xba;" horiz-adv-x="407" 
d="M203 367q-70 0 -118.5 45t-48.5 124q0 76 47.5 122.5t119.5 46.5t119 -46.5t47 -122.5q0 -79 -48 -124t-118 -45zM203 420q45 0 73 32.5t28 82.5q0 54 -29 86t-72 32q-44 0 -73 -32t-29 -86q0 -50 28.5 -82.5t73.5 -32.5z" />
    <glyph glyph-name="guillemotright" unicode="&#xbb;" horiz-adv-x="583" 
d="M260 105v61q0 13 9 20l185 144l-185 144q-9 7 -9 20v61q0 11 10 11q4 0 9 -3l242 -188q10 -8 10 -21v-48q0 -13 -10 -21l-242 -188q-5 -3 -9 -3q-10 0 -10 11zM50 105v61q0 13 9 20l185 144l-185 144q-9 7 -9 20v61q0 11 10 11q4 0 9 -3l242 -188q10 -8 10 -21v-48
q0 -13 -10 -21l-242 -188q-5 -3 -9 -3q-10 0 -10 11z" />
    <glyph glyph-name="onequarter" unicode="&#xbc;" horiz-adv-x="510" 
d="M38 252v28q0 14 14 14h402q14 0 14 -14v-28q0 -14 -14 -14h-402q-14 0 -14 14zM170 386v24q0 14 13 14h49v208l-39 -37q-3 -3 -7 -3q-5 0 -10 5l-17 17q-5 5 -5 10t6 11l57 50q16 15 38 15h18q16 0 16 -16v-260h48q14 0 14 -14v-24q0 -14 -14 -14h-154q-13 0 -13 14z
M128 -96v28q0 9 5 19l107 194q5 9 15 9h43q10 0 5 -11l-112 -201h85v90q0 14 14 14h29q14 0 14 -14v-90h23q14 0 14 -14v-24q0 -14 -14 -14h-23v-50q0 -14 -14 -14h-29q-14 0 -14 14v50h-134q-14 0 -14 14z" />
    <glyph glyph-name="onehalf" unicode="&#xbd;" horiz-adv-x="510" 
d="M38 252v28q0 14 14 14h402q14 0 14 -14v-28q0 -14 -14 -14h-402q-14 0 -14 14zM170 386v24q0 14 13 14h49v208l-39 -37q-3 -3 -7 -3q-5 0 -10 5l-17 17q-5 5 -5 10t6 11l57 50q16 15 38 15h18q16 0 16 -16v-260h48q14 0 14 -14v-24q0 -14 -14 -14h-154q-13 0 -13 14z
M154 -160v27q0 10 6 16l114 105q34 31 34 70q0 22 -14 35.5t-37 13.5q-39 0 -61 -53q-1 -4 -4 -4q-2 0 -6 2l-36 18q-3 2 -3 4l1 4q12 33 40.5 57t68.5 24q50 0 79 -26t29 -68q0 -34 -15 -61t-49 -59l-72 -67h129q14 0 14 -14v-24q0 -14 -14 -14h-190q-14 0 -14 14z" />
    <glyph glyph-name="threequarters" unicode="&#xbe;" horiz-adv-x="510" 
d="M38 252v28q0 14 14 14h402q14 0 14 -14v-28q0 -14 -14 -14h-402q-14 0 -14 14zM146 448l38 23q4 2 5 2q3 0 5 -3q13 -26 27.5 -38.5t39.5 -12.5q23 0 35.5 15t12.5 41q0 27 -17 43t-49 16h-15q-14 0 -14 14v16q0 14 9 23l59 65h-115q-10 0 -10 10v28q0 10 10 10h178
q10 0 10 -9v-25q0 -5 -10 -17l-62 -68q84 -21 84 -107q0 -47 -31 -77t-78 -30q-78 0 -113 71q-2 4 -2 6t3 4zM128 -96v28q0 9 5 19l107 194q5 9 15 9h43q10 0 5 -11l-112 -201h85v90q0 14 14 14h29q14 0 14 -14v-90h23q14 0 14 -14v-24q0 -14 -14 -14h-23v-50q0 -14 -14 -14
h-29q-14 0 -14 14v50h-134q-14 0 -14 14z" />
    <glyph glyph-name="questiondown" unicode="&#xbf;" horiz-adv-x="526" 
d="M303 287v-46q0 -31 -9 -57t-29.5 -49.5t-32.5 -34.5t-39 -33q-66 -53 -66 -126q0 -50 37 -79.5t95 -29.5q96 0 152 126q3 6 10 6q5 0 10 -2l46 -24q7 -4 7 -10q0 -4 -2 -8q-31 -69 -86.5 -114.5t-136.5 -45.5q-99 0 -156.5 48t-57.5 130q0 95 88 169q31 26 44.5 39
t28.5 40.5t15 58.5v42q0 14 14 14h54q14 0 14 -14zM321 420q0 -26 -17.5 -44t-42.5 -18t-43.5 18t-18.5 44q0 25 18 42.5t44 17.5q25 0 42.5 -17.5t17.5 -42.5z" />
    <glyph glyph-name="Agrave" unicode="&#xc0;" horiz-adv-x="598" 
d="M8 14l251 670q5 16 23 16h34q18 0 23 -16l251 -670q0 -14 -14 -14h-52q-13 0 -18 14l-71 193h-272l-71 -193q-5 -14 -18 -14h-52q-14 0 -14 14zM190 279h218l-109 299zM191 907l26 36q4 7 11 7q4 0 9 -4l161 -115q7 -5 7 -10t-3 -9l-26 -36q-4 -7 -11 -7q-4 0 -9 4
l-161 115q-7 5 -7 10q0 4 3 9z" />
    <glyph glyph-name="Aacute" unicode="&#xc1;" horiz-adv-x="598" 
d="M8 14l251 670q5 16 23 16h34q18 0 23 -16l251 -670q0 -14 -14 -14h-52q-13 0 -18 14l-71 193h-272l-71 -193q-5 -14 -18 -14h-52q-14 0 -14 14zM190 279h218l-109 299zM214 776l-26 36q-3 4 -3 9t7 10l161 115q5 4 9 4q7 0 11 -7l26 -36q3 -5 3 -9q0 -5 -7 -10l-161 -115
q-5 -4 -9 -4q-7 0 -11 7z" />
    <glyph glyph-name="Acircumflex" unicode="&#xc2;" horiz-adv-x="598" 
d="M8 14l251 670q5 16 23 16h34q18 0 23 -16l251 -670q0 -14 -14 -14h-52q-13 0 -18 14l-71 193h-272l-71 -193q-5 -14 -18 -14h-52q-14 0 -14 14zM190 279h218l-109 299zM169 783l-26 36q-3 5 -3 9q0 5 7 10l143 108q6 4 9 4t9 -4l143 -108q7 -5 7 -10q0 -4 -3 -9l-26 -36
q-4 -7 -11 -7q-4 0 -9 4l-110 82l-110 -82q-5 -4 -9 -4q-7 0 -11 7z" />
    <glyph glyph-name="Atilde" unicode="&#xc3;" horiz-adv-x="598" 
d="M8 14l251 670q5 16 23 16h34q18 0 23 -16l251 -670q0 -14 -14 -14h-52q-13 0 -18 14l-71 193h-272l-71 -193q-5 -14 -18 -14h-52q-14 0 -14 14zM190 279h218l-109 299zM177 769l-41 21q-5 3 -5 8q0 3 2 9q38 82 110 82q40 0 75 -25.5t55 -25.5q29 0 49 45q4 7 9 7
q4 0 8 -2l41 -21q5 -3 5 -8q0 -3 -2 -9q-38 -82 -110 -82q-40 0 -75 25.5t-55 25.5q-29 0 -49 -45q-4 -7 -9 -7q-4 0 -8 2z" />
    <glyph glyph-name="Adieresis" unicode="&#xc4;" horiz-adv-x="598" 
d="M8 14l251 670q5 16 23 16h34q18 0 23 -16l251 -670q0 -14 -14 -14h-52q-13 0 -18 14l-71 193h-272l-71 -193q-5 -14 -18 -14h-52q-14 0 -14 14zM190 279h218l-109 299zM164 814q0 21 14.5 35.5t35.5 14.5t35.5 -14.5t14.5 -35.5t-14.5 -35.5t-35.5 -14.5t-35.5 14.5
t-14.5 35.5zM334 814q0 21 14.5 35.5t35.5 14.5t35.5 -14.5t14.5 -35.5t-14.5 -35.5t-35.5 -14.5t-35.5 14.5t-14.5 35.5z" />
    <glyph glyph-name="Aring" unicode="&#xc5;" horiz-adv-x="598" 
d="M8 14l251 670q5 16 23 16h34q18 0 23 -16l251 -670q0 -14 -14 -14h-52q-13 0 -18 14l-71 193h-272l-71 -193q-5 -14 -18 -14h-52q-14 0 -14 14zM190 279h218l-109 299zM208 849q0 38 26 64.5t65 26.5t65 -26.5t26 -64.5t-26 -64.5t-65 -26.5t-65 26.5t-26 64.5zM299 804
q19 0 31 12.5t12 32.5t-12 32.5t-31 12.5t-31 -12.5t-12 -32.5t12 -32.5t31 -12.5z" />
    <glyph glyph-name="AE" unicode="&#xc6;" horiz-adv-x="903" 
d="M10 20l247 660q8 20 25 20h543q14 0 14 -14v-44q0 -14 -14 -14h-348v-224h282q14 0 14 -14v-44q0 -14 -14 -14h-282v-260h362q14 0 14 -14v-44q0 -14 -14 -14h-430q-14 0 -14 14v193h-232l-68 -187q-8 -20 -26 -20h-39q-20 0 -20 20zM190 279h205v349h-78z" />
    <glyph glyph-name="Ccedilla" unicode="&#xc7;" horiz-adv-x="657" 
d="M240 -170l7 39q1 11 14 11q3 0 28 -9t45 -9q29 0 44 15t15 39q0 27 -21.5 48t-61.5 30q-117 26 -189.5 116.5t-72.5 239.5q0 166 97 263t235 97q130 0 223 -85q5 -5 5 -9q0 -5 -4 -10l-24 -31q-7 -10 -15 -10q-5 0 -13 6q-46 38 -85 52.5t-92 14.5q-101 0 -170 -74
t-69 -214q0 -137 70.5 -212.5t168.5 -75.5q51 0 92 17.5t89 59.5q8 6 13 6q7 0 14 -10l26 -32q4 -5 4 -10t-5 -10q-79 -76 -177 -89q42 -34 42 -80q0 -58 -36 -88t-94 -30q-47 0 -95 15q-9 3 -9 11q0 2 1 8z" />
    <glyph glyph-name="Egrave" unicode="&#xc8;" horiz-adv-x="594" 
d="M86 14v672q0 14 14 14h416q14 0 14 -14v-44q0 -14 -14 -14h-348v-224h282q14 0 14 -14v-44q0 -14 -14 -14h-282v-260h362q14 0 14 -14v-44q0 -14 -14 -14h-430q-14 0 -14 14zM200 907l26 36q4 7 11 7q4 0 9 -4l161 -115q7 -5 7 -10t-3 -9l-26 -36q-4 -7 -11 -7q-4 0 -9 4
l-161 115q-7 5 -7 10q0 4 3 9z" />
    <glyph glyph-name="Eacute" unicode="&#xc9;" horiz-adv-x="594" 
d="M86 14v672q0 14 14 14h416q14 0 14 -14v-44q0 -14 -14 -14h-348v-224h282q14 0 14 -14v-44q0 -14 -14 -14h-282v-260h362q14 0 14 -14v-44q0 -14 -14 -14h-430q-14 0 -14 14zM223 776l-26 36q-3 4 -3 9t7 10l161 115q5 4 9 4q7 0 11 -7l26 -36q3 -5 3 -9q0 -5 -7 -10
l-161 -115q-5 -4 -9 -4q-7 0 -11 7z" />
    <glyph glyph-name="Ecircumflex" unicode="&#xca;" horiz-adv-x="594" 
d="M86 14v672q0 14 14 14h416q14 0 14 -14v-44q0 -14 -14 -14h-348v-224h282q14 0 14 -14v-44q0 -14 -14 -14h-282v-260h362q14 0 14 -14v-44q0 -14 -14 -14h-430q-14 0 -14 14zM188 783l-26 36q-3 5 -3 9q0 5 7 10l143 108q6 4 9 4t9 -4l143 -108q7 -5 7 -10q0 -4 -3 -9
l-26 -36q-4 -7 -11 -7q-4 0 -9 4l-110 82l-110 -82q-5 -4 -9 -4q-7 0 -11 7z" />
    <glyph glyph-name="Edieresis" unicode="&#xcb;" horiz-adv-x="594" 
d="M86 14v672q0 14 14 14h416q14 0 14 -14v-44q0 -14 -14 -14h-348v-224h282q14 0 14 -14v-44q0 -14 -14 -14h-282v-260h362q14 0 14 -14v-44q0 -14 -14 -14h-430q-14 0 -14 14zM172 814q0 21 14.5 35.5t35.5 14.5t35.5 -14.5t14.5 -35.5t-14.5 -35.5t-35.5 -14.5
t-35.5 14.5t-14.5 35.5zM342 814q0 21 14.5 35.5t35.5 14.5t35.5 -14.5t14.5 -35.5t-14.5 -35.5t-35.5 -14.5t-35.5 14.5t-14.5 35.5z" />
    <glyph glyph-name="Igrave" unicode="&#xcc;" horiz-adv-x="412" 
d="M30 14v44q0 14 14 14h121v556h-111q-14 0 -14 14v44q0 14 14 14h304q14 0 14 -14v-44q0 -14 -14 -14h-111v-556h121q14 0 14 -14v-44q0 -14 -14 -14h-324q-14 0 -14 14zM101 907l26 36q4 7 11 7q4 0 9 -4l161 -115q7 -5 7 -10t-3 -9l-26 -36q-4 -7 -11 -7q-4 0 -9 4
l-161 115q-7 5 -7 10q0 4 3 9z" />
    <glyph glyph-name="Iacute" unicode="&#xcd;" horiz-adv-x="412" 
d="M30 14v44q0 14 14 14h121v556h-111q-14 0 -14 14v44q0 14 14 14h304q14 0 14 -14v-44q0 -14 -14 -14h-111v-556h121q14 0 14 -14v-44q0 -14 -14 -14h-324q-14 0 -14 14zM127 776l-26 36q-3 4 -3 9t7 10l161 115q5 4 9 4q7 0 11 -7l26 -36q3 -5 3 -9q0 -5 -7 -10
l-161 -115q-5 -4 -9 -4q-7 0 -11 7z" />
    <glyph glyph-name="Icircumflex" unicode="&#xce;" horiz-adv-x="412" 
d="M30 14v44q0 14 14 14h121v556h-111q-14 0 -14 14v44q0 14 14 14h304q14 0 14 -14v-44q0 -14 -14 -14h-111v-556h121q14 0 14 -14v-44q0 -14 -14 -14h-324q-14 0 -14 14zM76 783l-26 36q-3 5 -3 9q0 5 7 10l143 108q6 4 9 4t9 -4l143 -108q7 -5 7 -10q0 -4 -3 -9l-26 -36
q-4 -7 -11 -7q-4 0 -9 4l-110 82l-110 -82q-5 -4 -9 -4q-7 0 -11 7z" />
    <glyph glyph-name="Idieresis" unicode="&#xcf;" horiz-adv-x="412" 
d="M30 14v44q0 14 14 14h121v556h-111q-14 0 -14 14v44q0 14 14 14h304q14 0 14 -14v-44q0 -14 -14 -14h-111v-556h121q14 0 14 -14v-44q0 -14 -14 -14h-324q-14 0 -14 14zM71 814q0 21 14.5 35.5t35.5 14.5t35.5 -14.5t14.5 -35.5t-14.5 -35.5t-35.5 -14.5t-35.5 14.5
t-14.5 35.5zM241 814q0 21 14.5 35.5t35.5 14.5t35.5 -14.5t14.5 -35.5t-14.5 -35.5t-35.5 -14.5t-35.5 14.5t-14.5 35.5z" />
    <glyph glyph-name="Eth" unicode="&#xd0;" horiz-adv-x="694" 
d="M116 14v301h-94q-14 0 -14 14v42q0 14 14 14h94v301q0 14 14 14h170q147 0 246.5 -92t99.5 -258q0 -87 -27.5 -155t-75.5 -110t-109.5 -63.5t-133.5 -21.5h-170q-14 0 -14 14zM198 72h102q111 0 184.5 69.5t73.5 208.5q0 140 -73 209t-185 69h-102v-243h133q14 0 14 -14
v-42q0 -14 -14 -14h-133v-243z" />
    <glyph glyph-name="Ntilde" unicode="&#xd1;" horiz-adv-x="686" 
d="M86 14v672q0 14 14 14h41q14 0 23 -14l354 -531v531q0 14 14 14h54q14 0 14 -14v-672q0 -14 -14 -14h-41q-14 0 -23 14l-354 531v-531q0 -14 -14 -14h-54q-14 0 -14 14zM216 769l-41 21q-5 3 -5 8q0 3 2 9q38 82 110 82q40 0 75 -25.5t55 -25.5q29 0 49 45q3 7 9 7
q4 0 8 -2l41 -21q5 -3 5 -8q0 -3 -2 -9q-38 -82 -110 -82q-40 0 -75 25.5t-55 25.5q-29 0 -49 -45q-3 -7 -9 -7q-4 0 -8 2z" />
    <glyph glyph-name="Ograve" unicode="&#xd2;" horiz-adv-x="766" 
d="M383 -10q-89 0 -163.5 39.5t-123 123t-48.5 197.5q0 165 99.5 262.5t235.5 97.5t235.5 -97.5t99.5 -262.5q0 -114 -48.5 -197.5t-123 -123t-163.5 -39.5zM383 62q103 0 175 74.5t72 213.5q0 140 -72 214t-175 74t-175 -74t-72 -214q0 -139 72 -213.5t175 -74.5zM275 907
l26 36q4 7 11 7q4 0 9 -4l161 -115q7 -5 7 -10t-3 -9l-26 -36q-4 -7 -11 -7q-4 0 -9 4l-161 115q-7 5 -7 10q0 4 3 9z" />
    <glyph glyph-name="Oacute" unicode="&#xd3;" horiz-adv-x="766" 
d="M383 -10q-89 0 -163.5 39.5t-123 123t-48.5 197.5q0 165 99.5 262.5t235.5 97.5t235.5 -97.5t99.5 -262.5q0 -114 -48.5 -197.5t-123 -123t-163.5 -39.5zM383 62q103 0 175 74.5t72 213.5q0 140 -72 214t-175 74t-175 -74t-72 -214q0 -139 72 -213.5t175 -74.5zM299 776
l-26 36q-3 4 -3 9t7 10l161 115q5 4 9 4q7 0 11 -7l26 -36q3 -5 3 -9q0 -5 -7 -10l-161 -115q-5 -4 -9 -4q-7 0 -11 7z" />
    <glyph glyph-name="Ocircumflex" unicode="&#xd4;" horiz-adv-x="766" 
d="M383 -10q-89 0 -163.5 39.5t-123 123t-48.5 197.5q0 165 99.5 262.5t235.5 97.5t235.5 -97.5t99.5 -262.5q0 -114 -48.5 -197.5t-123 -123t-163.5 -39.5zM383 62q103 0 175 74.5t72 213.5q0 140 -72 214t-175 74t-175 -74t-72 -214q0 -139 72 -213.5t175 -74.5zM253 783
l-26 36q-3 5 -3 9q0 5 7 10l143 108q6 4 9 4t9 -4l143 -108q7 -5 7 -10q0 -4 -3 -9l-26 -36q-4 -7 -11 -7q-4 0 -9 4l-110 82l-110 -82q-5 -4 -9 -4q-7 0 -11 7z" />
    <glyph glyph-name="Otilde" unicode="&#xd5;" horiz-adv-x="766" 
d="M383 -10q-89 0 -163.5 39.5t-123 123t-48.5 197.5q0 165 99.5 262.5t235.5 97.5t235.5 -97.5t99.5 -262.5q0 -114 -48.5 -197.5t-123 -123t-163.5 -39.5zM383 62q103 0 175 74.5t72 213.5q0 140 -72 214t-175 74t-175 -74t-72 -214q0 -139 72 -213.5t175 -74.5zM260 769
l-41 21q-5 3 -5 8q0 3 2 9q38 82 110 82q40 0 75 -25.5t55 -25.5q29 0 49 45q3 7 9 7q4 0 8 -2l41 -21q5 -3 5 -8q0 -3 -2 -9q-38 -82 -110 -82q-40 0 -75 25.5t-55 25.5q-29 0 -49 -45q-3 -7 -9 -7q-4 0 -8 2z" />
    <glyph glyph-name="Odieresis" unicode="&#xd6;" horiz-adv-x="766" 
d="M383 -10q-89 0 -163.5 39.5t-123 123t-48.5 197.5q0 165 99.5 262.5t235.5 97.5t235.5 -97.5t99.5 -262.5q0 -114 -48.5 -197.5t-123 -123t-163.5 -39.5zM383 62q103 0 175 74.5t72 213.5q0 140 -72 214t-175 74t-175 -74t-72 -214q0 -139 72 -213.5t175 -74.5zM248 814
q0 21 14.5 35.5t35.5 14.5t35.5 -14.5t14.5 -35.5t-14.5 -35.5t-35.5 -14.5t-35.5 14.5t-14.5 35.5zM418 814q0 21 14.5 35.5t35.5 14.5t35.5 -14.5t14.5 -35.5t-14.5 -35.5t-35.5 -14.5t-35.5 14.5t-14.5 35.5z" />
    <glyph glyph-name="multiply" unicode="&#xd7;" horiz-adv-x="426" 
d="M76 178l-30 30q-5 5 -5 10t5 10l118 117l-118 117q-5 5 -5 10t5 10l30 30q5 5 10 5t10 -5l117 -118l117 118q5 5 10 5t10 -5l30 -30q5 -5 5 -10t-5 -10l-118 -117l118 -117q5 -5 5 -10t-5 -10l-30 -30q-5 -5 -10 -5t-10 5l-117 118l-117 -118q-5 -5 -10 -5t-10 5z" />
    <glyph glyph-name="Oslash" unicode="&#xd8;" horiz-adv-x="766" 
d="M193 -20l-44 27q-5 3 -5 7t4 12l22 38q-122 100 -122 286q0 165 99.5 262.5t235.5 97.5q75 0 142 -32l20 34q7 12 15 12q6 0 13 -4l44 -27q5 -3 5 -7t-4 -12l-23 -40q123 -103 123 -284q0 -114 -48.5 -197.5t-123 -123t-163.5 -39.5q-77 0 -143 30l-19 -32
q-7 -12 -15 -12q-6 0 -13 4zM210 134l278 480q-50 24 -105 24q-103 0 -175 -74t-72 -214q0 -139 74 -216zM556 566l-279 -481q47 -23 106 -23q103 0 175 74.5t72 213.5t-74 216z" />
    <glyph glyph-name="Ugrave" unicode="&#xd9;" horiz-adv-x="694" 
d="M82 299v387q0 14 14 14h54q14 0 14 -14v-376q0 -248 183 -248t183 248v376q0 14 14 14h54q14 0 14 -14v-387q0 -151 -66.5 -230t-198.5 -79t-198.5 79t-66.5 230zM242 907l26 36q4 7 11 7q4 0 9 -4l161 -115q7 -5 7 -10t-3 -9l-26 -36q-4 -7 -11 -7q-4 0 -9 4l-161 115
q-7 5 -7 10q0 4 3 9z" />
    <glyph glyph-name="Uacute" unicode="&#xda;" horiz-adv-x="694" 
d="M82 299v387q0 14 14 14h54q14 0 14 -14v-376q0 -248 183 -248t183 248v376q0 14 14 14h54q14 0 14 -14v-387q0 -151 -66.5 -230t-198.5 -79t-198.5 79t-66.5 230zM268 776l-26 36q-3 4 -3 9t7 10l161 115q5 4 9 4q7 0 11 -7l26 -36q3 -5 3 -9q0 -5 -7 -10l-161 -115
q-5 -4 -9 -4q-7 0 -11 7z" />
    <glyph glyph-name="Ucircumflex" unicode="&#xdb;" horiz-adv-x="694" 
d="M82 299v387q0 14 14 14h54q14 0 14 -14v-376q0 -248 183 -248t183 248v376q0 14 14 14h54q14 0 14 -14v-387q0 -151 -66.5 -230t-198.5 -79t-198.5 79t-66.5 230zM217 783l-26 36q-3 5 -3 9q0 5 7 10l143 108q6 4 9 4t9 -4l143 -108q7 -5 7 -10q0 -4 -3 -9l-26 -36
q-4 -7 -11 -7q-4 0 -9 4l-110 82l-110 -82q-5 -4 -9 -4q-7 0 -11 7z" />
    <glyph glyph-name="Udieresis" unicode="&#xdc;" horiz-adv-x="694" 
d="M82 299v387q0 14 14 14h54q14 0 14 -14v-376q0 -248 183 -248t183 248v376q0 14 14 14h54q14 0 14 -14v-387q0 -151 -66.5 -230t-198.5 -79t-198.5 79t-66.5 230zM212 814q0 21 14.5 35.5t35.5 14.5t35.5 -14.5t14.5 -35.5t-14.5 -35.5t-35.5 -14.5t-35.5 14.5
t-14.5 35.5zM382 814q0 21 14.5 35.5t35.5 14.5t35.5 -14.5t14.5 -35.5t-14.5 -35.5t-35.5 -14.5t-35.5 14.5t-14.5 35.5z" />
    <glyph glyph-name="Yacute" unicode="&#xdd;" horiz-adv-x="519" 
d="M121 15l107 240l-221 421q-3 6 -3 11q0 13 14 13h55q17 0 25 -15l171 -338l153 338q6 15 23 15h55q10 0 10 -8q0 -3 -2 -7l-300 -671q-6 -14 -20 -14h-59q-10 0 -10 8q0 3 2 7zM184 776l-26 36q-3 4 -3 9t7 10l161 115q5 4 9 4q7 0 11 -7l26 -36q3 -5 3 -9q0 -5 -7 -10
l-161 -115q-5 -4 -9 -4q-7 0 -11 7z" />
    <glyph glyph-name="Thorn" unicode="&#xde;" horiz-adv-x="617" 
d="M86 14v672q0 14 14 14h54q14 0 14 -14v-131h173q101 0 164 -56.5t63 -148.5q0 -89 -58.5 -145.5t-151.5 -56.5h-190v-134q0 -14 -14 -14h-54q-14 0 -14 14zM168 220h184q65 0 99.5 36.5t34.5 93.5t-35 95t-99 38h-184v-263z" />
    <glyph glyph-name="germandbls" unicode="&#xdf;" horiz-adv-x="561" 
d="M72 14v482q0 102 58.5 158t141.5 56q91 0 142.5 -46.5t51.5 -126.5q0 -88 -82 -137q135 -54 135 -192q0 -99 -55.5 -158.5t-158.5 -59.5q-64 0 -93 11q-15 6 -15 20v37q0 14 13 14q4 0 7 -1q37 -15 88 -15q60 0 97 38t37 108t-42 110.5t-113 40.5h-40q-14 0 -14 14v38
q0 14 14 14h12q61 0 97.5 31t36.5 85q0 51 -32.5 80t-85.5 29q-56 0 -90 -39.5t-34 -108.5v-482q0 -14 -14 -14h-48q-14 0 -14 14z" />
    <glyph glyph-name="agrave" unicode="&#xe0;" horiz-adv-x="579" 
d="M441 14l-14 38q-60 -62 -155 -62q-101 0 -165.5 64.5t-64.5 180.5q0 112 67 178.5t173 66.5q47 0 88 -17.5t61 -42.5v36q0 14 14 14h48q14 0 14 -14v-442q0 -14 -14 -14h-32q-15 0 -20 14zM431 200v84q0 46 -30 79q-48 51 -115 51q-73 0 -118.5 -48.5t-45.5 -131.5
q0 -81 44.5 -129.5t117.5 -48.5q76 0 123 61q24 29 24 83zM165 657l26 36q4 7 11 7q4 0 9 -4l161 -115q7 -5 7 -10t-3 -9l-26 -36q-4 -7 -11 -7q-4 0 -9 4l-161 115q-7 5 -7 10q0 4 3 9z" />
    <glyph glyph-name="aacute" unicode="&#xe1;" horiz-adv-x="579" 
d="M441 14l-14 38q-60 -62 -155 -62q-101 0 -165.5 64.5t-64.5 180.5q0 112 67 178.5t173 66.5q47 0 88 -17.5t61 -42.5v36q0 14 14 14h48q14 0 14 -14v-442q0 -14 -14 -14h-32q-15 0 -20 14zM431 200v84q0 46 -30 79q-48 51 -115 51q-73 0 -118.5 -48.5t-45.5 -131.5
q0 -81 44.5 -129.5t117.5 -48.5q76 0 123 61q24 29 24 83zM195 526l-26 36q-3 4 -3 9t7 10l161 115q5 4 9 4q7 0 11 -7l26 -36q3 -5 3 -9q0 -5 -7 -10l-161 -115q-5 -4 -9 -4q-7 0 -11 7z" />
    <glyph glyph-name="acircumflex" unicode="&#xe2;" horiz-adv-x="579" 
d="M441 14l-14 38q-60 -62 -155 -62q-101 0 -165.5 64.5t-64.5 180.5q0 112 67 178.5t173 66.5q47 0 88 -17.5t61 -42.5v36q0 14 14 14h48q14 0 14 -14v-442q0 -14 -14 -14h-32q-15 0 -20 14zM431 200v84q0 46 -30 79q-48 51 -115 51q-73 0 -118.5 -48.5t-45.5 -131.5
q0 -81 44.5 -129.5t117.5 -48.5q76 0 123 61q24 29 24 83zM161 533l-26 36q-3 5 -3 9q0 5 7 10l143 108q6 4 9 4t9 -4l143 -108q7 -5 7 -10q0 -4 -3 -9l-26 -36q-4 -7 -11 -7q-4 0 -9 4l-110 82l-110 -82q-5 -4 -9 -4q-7 0 -11 7z" />
    <glyph glyph-name="atilde" unicode="&#xe3;" horiz-adv-x="579" 
d="M441 14l-14 38q-60 -62 -155 -62q-101 0 -165.5 64.5t-64.5 180.5q0 112 67 178.5t173 66.5q47 0 88 -17.5t61 -42.5v36q0 14 14 14h48q14 0 14 -14v-442q0 -14 -14 -14h-32q-15 0 -20 14zM431 200v84q0 46 -30 79q-48 51 -115 51q-73 0 -118.5 -48.5t-45.5 -131.5
q0 -81 44.5 -129.5t117.5 -48.5q76 0 123 61q24 29 24 83zM168 559l-41 21q-5 3 -5 8q0 3 2 9q38 82 110 82q40 0 75 -25.5t55 -25.5q29 0 49 45q3 7 9 7q4 0 8 -2l41 -21q5 -3 5 -8q0 -3 -2 -9q-38 -82 -110 -82q-40 0 -75 25.5t-55 25.5q-29 0 -49 -45q-3 -7 -9 -7
q-4 0 -8 2z" />
    <glyph glyph-name="adieresis" unicode="&#xe4;" horiz-adv-x="579" 
d="M441 14l-14 38q-60 -62 -155 -62q-101 0 -165.5 64.5t-64.5 180.5q0 112 67 178.5t173 66.5q47 0 88 -17.5t61 -42.5v36q0 14 14 14h48q14 0 14 -14v-442q0 -14 -14 -14h-32q-15 0 -20 14zM431 200v84q0 46 -30 79q-48 51 -115 51q-73 0 -118.5 -48.5t-45.5 -131.5
q0 -81 44.5 -129.5t117.5 -48.5q76 0 123 61q24 29 24 83zM140 614q0 21 14.5 35.5t35.5 14.5t35.5 -14.5t14.5 -35.5t-14.5 -35.5t-35.5 -14.5t-35.5 14.5t-14.5 35.5zM310 614q0 21 14.5 35.5t35.5 14.5t35.5 -14.5t14.5 -35.5t-14.5 -35.5t-35.5 -14.5t-35.5 14.5
t-14.5 35.5z" />
    <glyph glyph-name="aring" unicode="&#xe5;" horiz-adv-x="579" 
d="M441 14l-14 38q-60 -62 -155 -62q-101 0 -165.5 64.5t-64.5 180.5q0 112 67 178.5t173 66.5q47 0 88 -17.5t61 -42.5v36q0 14 14 14h48q14 0 14 -14v-442q0 -14 -14 -14h-32q-15 0 -20 14zM431 200v84q0 46 -30 79q-48 51 -115 51q-73 0 -118.5 -48.5t-45.5 -131.5
q0 -81 44.5 -129.5t117.5 -48.5q76 0 123 61q24 29 24 83zM195 619q0 38 26 64.5t65 26.5t65 -26.5t26 -64.5t-26 -64.5t-65 -26.5t-65 26.5t-26 64.5zM286 574q19 0 31 12.5t12 32.5t-12 32.5t-31 12.5t-31 -12.5t-12 -32.5t12 -32.5t31 -12.5z" />
    <glyph glyph-name="ae" unicode="&#xe6;" horiz-adv-x="941" 
d="M441 14l-14 38q-60 -62 -155 -62q-101 0 -165.5 64.5t-64.5 180.5q0 112 67 178.5t173 66.5q47 0 88 -17.5t61 -42.5v36q0 14 14 14h48q14 0 14 -14v-36q66 60 160 60q100 0 162 -67.5t68 -160.5v-26q0 -14 -14 -14h-372q4 -72 50 -114t115 -42q90 0 147 65q6 6 12 6
t12 -6l26 -26q5 -5 5 -11t-6 -12q-82 -82 -196 -82q-101 0 -169 62v-38q0 -14 -14 -14h-32q-15 0 -20 14zM431 200v84q0 46 -30 79q-48 51 -115 51q-73 0 -118.5 -48.5t-45.5 -131.5q0 -81 44.5 -129.5t117.5 -48.5q76 0 123 61q24 29 24 83zM511 274h306q-3 58 -44 99
t-104 41q-66 0 -107.5 -38t-50.5 -102z" />
    <glyph glyph-name="ccedilla" unicode="&#xe7;" horiz-adv-x="512" 
d="M159 -170l7 39q1 11 14 11q3 0 28 -9t45 -9q29 0 44 15t15 39q0 28 -22.5 50t-62.5 30q-81 17 -133 79.5t-52 159.5q0 110 70 177.5t179 67.5q48 0 94 -18.5t73 -48.5q5 -6 5 -10q0 -5 -4 -10l-24 -33q-4 -5 -11 -5q-6 0 -12 6q-51 53 -126 53q-73 0 -118.5 -48.5
t-45.5 -131.5q0 -76 46.5 -127t117.5 -51q43 0 71 14.5t59 45.5q5 5 10 5q6 0 9 -3l32 -30q5 -5 5 -11t-6 -12q-56 -57 -119 -69q45 -35 45 -82q0 -58 -36 -88t-94 -30q-47 0 -95 15q-9 3 -9 11q0 2 1 8z" />
    <glyph glyph-name="egrave" unicode="&#xe8;" horiz-adv-x="552" 
d="M458 121l26 -26q5 -5 5 -11t-6 -12q-82 -82 -196 -82q-102 0 -173.5 66t-71.5 179q0 109 68 177t168 68t162 -67.5t68 -160.5v-26q0 -14 -14 -14h-372q4 -72 50 -114t115 -42q90 0 147 65q6 6 12 6t12 -6zM122 274h306q-3 58 -44.5 99t-103.5 41q-66 0 -107.5 -38
t-50.5 -102zM166 657l26 36q4 7 11 7q4 0 9 -4l161 -115q7 -5 7 -10t-3 -9l-26 -36q-4 -7 -11 -7q-4 0 -9 4l-161 115q-7 5 -7 10q0 4 3 9z" />
    <glyph glyph-name="eacute" unicode="&#xe9;" horiz-adv-x="552" 
d="M458 121l26 -26q5 -5 5 -11t-6 -12q-82 -82 -196 -82q-102 0 -173.5 66t-71.5 179q0 109 68 177t168 68t162 -67.5t68 -160.5v-26q0 -14 -14 -14h-372q4 -72 50 -114t115 -42q90 0 147 65q6 6 12 6t12 -6zM122 274h306q-3 58 -44.5 99t-103.5 41q-66 0 -107.5 -38
t-50.5 -102zM181 526l-26 36q-3 4 -3 9t7 10l161 115q5 4 9 4q7 0 11 -7l26 -36q3 -5 3 -9q0 -5 -7 -10l-161 -115q-5 -4 -9 -4q-7 0 -11 7z" />
    <glyph glyph-name="ecircumflex" unicode="&#xea;" horiz-adv-x="552" 
d="M458 121l26 -26q5 -5 5 -11t-6 -12q-82 -82 -196 -82q-102 0 -173.5 66t-71.5 179q0 109 68 177t168 68t162 -67.5t68 -160.5v-26q0 -14 -14 -14h-372q4 -72 50 -114t115 -42q90 0 147 65q6 6 12 6t12 -6zM122 274h306q-3 58 -44.5 99t-103.5 41q-66 0 -107.5 -38
t-50.5 -102zM147 533l-26 36q-3 5 -3 9q0 5 7 10l143 108q6 4 9 4t9 -4l143 -108q7 -5 7 -10q0 -4 -3 -9l-26 -36q-4 -7 -11 -7q-4 0 -9 4l-110 82l-110 -82q-5 -4 -9 -4q-7 0 -11 7z" />
    <glyph glyph-name="edieresis" unicode="&#xeb;" horiz-adv-x="552" 
d="M458 121l26 -26q5 -5 5 -11t-6 -12q-82 -82 -196 -82q-102 0 -173.5 66t-71.5 179q0 109 68 177t168 68t162 -67.5t68 -160.5v-26q0 -14 -14 -14h-372q4 -72 50 -114t115 -42q90 0 147 65q6 6 12 6t12 -6zM122 274h306q-3 58 -44.5 99t-103.5 41q-66 0 -107.5 -38
t-50.5 -102zM144 614q0 21 14.5 35.5t35.5 14.5t35.5 -14.5t14.5 -35.5t-14.5 -35.5t-35.5 -14.5t-35.5 14.5t-14.5 35.5zM314 614q0 21 14.5 35.5t35.5 14.5t35.5 -14.5t14.5 -35.5t-14.5 -35.5t-35.5 -14.5t-35.5 14.5t-14.5 35.5z" />
    <glyph glyph-name="igrave" unicode="&#xec;" horiz-adv-x="220" 
d="M72 14v442q0 14 14 14h48q14 0 14 -14v-442q0 -14 -14 -14h-48q-14 0 -14 14zM4 657l26 36q4 7 11 7q4 0 9 -4l161 -115q7 -5 7 -10t-3 -9l-26 -36q-4 -7 -11 -7q-4 0 -9 4l-161 115q-7 5 -7 10q0 4 3 9z" />
    <glyph glyph-name="iacute" unicode="&#xed;" horiz-adv-x="220" 
d="M72 14v442q0 14 14 14h48q14 0 14 -14v-442q0 -14 -14 -14h-48q-14 0 -14 14zM30 526l-26 36q-3 4 -3 9t7 10l161 115q5 4 9 4q7 0 11 -7l26 -36q3 -5 3 -9q0 -5 -7 -10l-161 -115q-5 -4 -9 -4q-7 0 -11 7z" />
    <glyph glyph-name="icircumflex" unicode="&#xee;" horiz-adv-x="220" 
d="M72 14v442q0 14 14 14h48q14 0 14 -14v-442q0 -14 -14 -14h-48q-14 0 -14 14zM-20 533l-26 36q-3 5 -3 9q0 5 7 10l143 108q6 4 9 4t9 -4l143 -108q7 -5 7 -10q0 -4 -3 -9l-26 -36q-4 -7 -11 -7q-4 0 -9 4l-110 82l-110 -82q-5 -4 -9 -4q-7 0 -11 7z" />
    <glyph glyph-name="idieresis" unicode="&#xef;" horiz-adv-x="220" 
d="M72 14v442q0 14 14 14h48q14 0 14 -14v-442q0 -14 -14 -14h-48q-14 0 -14 14zM-25 614q0 21 14.5 35.5t35.5 14.5t35.5 -14.5t14.5 -35.5t-14.5 -35.5t-35.5 -14.5t-35.5 14.5t-14.5 35.5zM145 614q0 21 14.5 35.5t35.5 14.5t35.5 -14.5t14.5 -35.5t-14.5 -35.5
t-35.5 -14.5t-35.5 14.5t-14.5 35.5z" />
    <glyph glyph-name="eth" unicode="&#xf0;" horiz-adv-x="548" 
d="M135 514l-12 21q-5 8 -5 13q0 8 11 14l75 46l-58 72q-3 4 -3 9q0 11 12 11h50q20 0 32 -16l28 -38l69 43q7 4 12 4q9 0 16 -11l12 -20q5 -8 5 -13q0 -7 -11 -15l-63 -39l134 -173q67 -87 67 -187q0 -115 -65.5 -180t-166.5 -65t-166.5 65t-65.5 180q0 108 65 176.5
t155 68.5q30 0 56 -13l-74 91l-81 -50q-8 -5 -13 -5q-9 0 -15 11zM274 56q69 0 110.5 50t41.5 128q0 82 -43 131t-109 49t-109 -49t-43 -131q0 -78 41.5 -128t110.5 -50z" />
    <glyph glyph-name="ntilde" unicode="&#xf1;" horiz-adv-x="554" 
d="M72 14v442q0 14 14 14h48q14 0 14 -14v-62q22 34 72.5 60t104.5 26q72 0 111.5 -37.5t39.5 -109.5v-319q0 -14 -14 -14h-48q-14 0 -14 14v315q0 85 -87 85q-42 0 -81 -25.5t-60 -60.5q-24 -38 -24 -123v-191q0 -14 -14 -14h-48q-14 0 -14 14zM150 559l-41 21q-5 3 -5 8
q0 3 2 9q38 82 110 82q40 0 75 -25.5t55 -25.5q29 0 49 45q3 7 9 7q4 0 8 -2l41 -21q5 -3 5 -8q0 -3 -2 -9q-38 -82 -110 -82q-40 0 -75 25.5t-55 25.5q-29 0 -49 -45q-3 -7 -9 -7q-4 0 -8 2z" />
    <glyph glyph-name="ograve" unicode="&#xf2;" horiz-adv-x="556" 
d="M278 -10q-101 0 -168.5 65.5t-67.5 179.5q0 111 66 178t170 67t170 -67t66 -178q0 -114 -67.5 -179.5t-168.5 -65.5zM278 56q70 0 113 50.5t43 127.5q0 82 -44.5 131t-111.5 49t-111.5 -49t-44.5 -131q0 -77 43 -127.5t113 -50.5zM179 657l26 36q4 7 11 7q4 0 9 -4
l161 -115q7 -5 7 -10t-3 -9l-26 -36q-4 -7 -11 -7q-4 0 -9 4l-161 115q-7 5 -7 10q0 4 3 9z" />
    <glyph glyph-name="oacute" unicode="&#xf3;" horiz-adv-x="556" 
d="M278 -10q-101 0 -168.5 65.5t-67.5 179.5q0 111 66 178t170 67t170 -67t66 -178q0 -114 -67.5 -179.5t-168.5 -65.5zM278 56q70 0 113 50.5t43 127.5q0 82 -44.5 131t-111.5 49t-111.5 -49t-44.5 -131q0 -77 43 -127.5t113 -50.5zM205 526l-26 36q-3 4 -3 9t7 10l161 115
q5 4 9 4q7 0 11 -7l26 -36q3 -5 3 -9q0 -5 -7 -10l-161 -115q-5 -4 -9 -4q-7 0 -11 7z" />
    <glyph glyph-name="ocircumflex" unicode="&#xf4;" horiz-adv-x="556" 
d="M278 -10q-101 0 -168.5 65.5t-67.5 179.5q0 111 66 178t170 67t170 -67t66 -178q0 -114 -67.5 -179.5t-168.5 -65.5zM278 56q70 0 113 50.5t43 127.5q0 82 -44.5 131t-111.5 49t-111.5 -49t-44.5 -131q0 -77 43 -127.5t113 -50.5zM148 533l-26 36q-3 5 -3 9q0 5 7 10
l143 108q6 4 9 4t9 -4l143 -108q7 -5 7 -10q0 -4 -3 -9l-26 -36q-4 -7 -11 -7q-4 0 -9 4l-110 82l-110 -82q-5 -4 -9 -4q-7 0 -11 7z" />
    <glyph glyph-name="otilde" unicode="&#xf5;" horiz-adv-x="556" 
d="M278 -10q-101 0 -168.5 65.5t-67.5 179.5q0 111 66 178t170 67t170 -67t66 -178q0 -114 -67.5 -179.5t-168.5 -65.5zM278 56q70 0 113 50.5t43 127.5q0 82 -44.5 131t-111.5 49t-111.5 -49t-44.5 -131q0 -77 43 -127.5t113 -50.5zM155 559l-41 21q-5 3 -5 8q0 3 2 9
q38 82 110 82q40 0 75 -25.5t55 -25.5q29 0 49 45q4 7 9 7q4 0 8 -2l41 -21q5 -3 5 -8q0 -3 -2 -9q-38 -82 -110 -82q-40 0 -75 25.5t-55 25.5q-29 0 -49 -45q-4 -7 -9 -7q-4 0 -8 2z" />
    <glyph glyph-name="odieresis" unicode="&#xf6;" horiz-adv-x="556" 
d="M278 -10q-101 0 -168.5 65.5t-67.5 179.5q0 111 66 178t170 67t170 -67t66 -178q0 -114 -67.5 -179.5t-168.5 -65.5zM278 56q70 0 113 50.5t43 127.5q0 82 -44.5 131t-111.5 49t-111.5 -49t-44.5 -131q0 -77 43 -127.5t113 -50.5zM143 614q0 21 14.5 35.5t35.5 14.5
t35.5 -14.5t14.5 -35.5t-14.5 -35.5t-35.5 -14.5t-35.5 14.5t-14.5 35.5zM313 614q0 21 14.5 35.5t35.5 14.5t35.5 -14.5t14.5 -35.5t-14.5 -35.5t-35.5 -14.5t-35.5 14.5t-14.5 35.5z" />
    <glyph glyph-name="divide" unicode="&#xf7;" horiz-adv-x="510" 
d="M196 50q0 24 16.5 41t39.5 17q24 0 41 -17t17 -41q0 -23 -17 -39.5t-41 -16.5q-23 0 -39.5 16.5t-16.5 39.5zM196 430q0 24 16.5 41t39.5 17q24 0 41 -17t17 -41q0 -23 -17 -39.5t-41 -16.5q-23 0 -39.5 16.5t-16.5 39.5zM38 220v42q0 14 14 14h402q14 0 14 -14v-42
q0 -14 -14 -14h-402q-14 0 -14 14z" />
    <glyph glyph-name="oslash" unicode="&#xf8;" horiz-adv-x="556" 
d="M109 18l14 25q-81 68 -81 192q0 111 66 178t170 67q46 0 89 -16l14 24q5 8 12 8q3 0 7 -2l45 -25q5 -3 5 -8q0 -3 -3 -9l-15 -25q82 -68 82 -192q0 -114 -67.5 -179.5t-168.5 -65.5q-43 0 -90 15l-13 -23q-5 -8 -12 -8q-3 0 -7 2l-45 25q-5 3 -5 8q0 3 3 9zM393 360
l-170 -295q24 -9 55 -9q70 0 113 50.5t43 127.5q0 75 -41 126zM162 110l170 294q-28 10 -54 10q-67 0 -111.5 -49t-44.5 -131q0 -74 40 -124z" />
    <glyph glyph-name="ugrave" unicode="&#xf9;" horiz-adv-x="555" 
d="M78 157v299q0 14 14 14h48q14 0 14 -14v-287q0 -113 104 -113q32 0 68 14t58 36q23 23 23 54v296q0 14 14 14h48q14 0 14 -14v-442q0 -14 -14 -14h-48q-14 0 -14 14v32q-70 -56 -163 -56q-82 0 -124 43t-42 124zM173 657l26 36q4 7 11 7q4 0 9 -4l161 -115q7 -5 7 -10
t-3 -9l-26 -36q-4 -7 -11 -7q-4 0 -9 4l-161 115q-7 5 -7 10q0 4 3 9z" />
    <glyph glyph-name="uacute" unicode="&#xfa;" horiz-adv-x="555" 
d="M78 157v299q0 14 14 14h48q14 0 14 -14v-287q0 -113 104 -113q32 0 68 14t58 36q23 23 23 54v296q0 14 14 14h48q14 0 14 -14v-442q0 -14 -14 -14h-48q-14 0 -14 14v32q-70 -56 -163 -56q-82 0 -124 43t-42 124zM208 526l-26 36q-3 4 -3 9t7 10l161 115q5 4 9 4
q7 0 11 -7l26 -36q3 -5 3 -9q0 -5 -7 -10l-161 -115q-5 -4 -9 -4q-7 0 -11 7z" />
    <glyph glyph-name="ucircumflex" unicode="&#xfb;" horiz-adv-x="555" 
d="M78 157v299q0 14 14 14h48q14 0 14 -14v-287q0 -113 104 -113q32 0 68 14t58 36q23 23 23 54v296q0 14 14 14h48q14 0 14 -14v-442q0 -14 -14 -14h-48q-14 0 -14 14v32q-70 -56 -163 -56q-82 0 -124 43t-42 124zM150 533l-26 36q-3 5 -3 9q0 5 7 10l143 108q6 4 9 4t9 -4
l143 -108q7 -5 7 -10q0 -4 -3 -9l-26 -36q-4 -7 -11 -7q-4 0 -9 4l-110 82l-110 -82q-5 -4 -9 -4q-7 0 -11 7z" />
    <glyph glyph-name="udieresis" unicode="&#xfc;" horiz-adv-x="555" 
d="M78 157v299q0 14 14 14h48q14 0 14 -14v-287q0 -113 104 -113q32 0 68 14t58 36q23 23 23 54v296q0 14 14 14h48q14 0 14 -14v-442q0 -14 -14 -14h-48q-14 0 -14 14v32q-70 -56 -163 -56q-82 0 -124 43t-42 124zM148 614q0 21 14.5 35.5t35.5 14.5t35.5 -14.5t14.5 -35.5
t-14.5 -35.5t-35.5 -14.5t-35.5 14.5t-14.5 35.5zM318 614q0 21 14.5 35.5t35.5 14.5t35.5 -14.5t14.5 -35.5t-14.5 -35.5t-35.5 -14.5t-35.5 14.5t-14.5 35.5z" />
    <glyph glyph-name="yacute" unicode="&#xfd;" horiz-adv-x="489" 
d="M117 -213l90 224q-1 1 -1 3l-186 442q0 14 14 14h54q13 0 18 -14l139 -349l140 349q5 14 18 14h50q14 0 14 -14l-270 -672q-5 -14 -19 -14h-53q-10 0 -10 8q0 3 2 9zM172 526l-26 36q-3 4 -3 9t7 10l161 115q5 4 9 4q7 0 11 -7l26 -36q3 -5 3 -9q0 -5 -7 -10l-161 -115
q-5 -4 -9 -4q-7 0 -11 7z" />
    <glyph glyph-name="thorn" unicode="&#xfe;" horiz-adv-x="560" 
d="M72 -216v902q0 14 14 14h48q14 0 14 -14v-274q25 27 68 47.5t91 20.5q96 0 153.5 -63t57.5 -182q0 -116 -62.5 -180.5t-167.5 -64.5q-41 0 -79.5 13t-60.5 32v-251q0 -14 -14 -14h-48q-14 0 -14 14zM148 262v-93q0 -48 30 -73q47 -40 109 -40q67 0 109 48.5t42 131.5
q0 79 -38 128.5t-104 49.5q-74 0 -124 -66q-24 -30 -24 -86z" />
    <glyph glyph-name="ydieresis" unicode="&#xff;" horiz-adv-x="489" 
d="M117 -213l90 224q-1 1 -1 3l-186 442q0 14 14 14h54q13 0 18 -14l139 -349l140 349q5 14 18 14h50q14 0 14 -14l-270 -672q-5 -14 -19 -14h-53q-10 0 -10 8q0 3 2 9zM111 614q0 21 14.5 35.5t35.5 14.5t35.5 -14.5t14.5 -35.5t-14.5 -35.5t-35.5 -14.5t-35.5 14.5
t-14.5 35.5zM281 614q0 21 14.5 35.5t35.5 14.5t35.5 -14.5t14.5 -35.5t-14.5 -35.5t-35.5 -14.5t-35.5 14.5t-14.5 35.5z" />
    <glyph glyph-name="Amacron" unicode="&#x100;" horiz-adv-x="598" 
d="M8 14l251 670q5 16 23 16h34q18 0 23 -16l251 -670q0 -14 -14 -14h-52q-13 0 -18 14l-71 193h-272l-71 -193q-5 -14 -18 -14h-52q-14 0 -14 14zM190 279h218l-109 299zM191 805v38q0 14 14 14h188q14 0 14 -14v-38q0 -14 -14 -14h-188q-14 0 -14 14z" />
    <glyph glyph-name="amacron" unicode="&#x101;" horiz-adv-x="579" 
d="M441 14l-14 38q-60 -62 -155 -62q-101 0 -165.5 64.5t-64.5 180.5q0 112 67 178.5t173 66.5q47 0 88 -17.5t61 -42.5v36q0 14 14 14h48q14 0 14 -14v-442q0 -14 -14 -14h-32q-15 0 -20 14zM431 200v84q0 46 -30 79q-48 51 -115 51q-73 0 -118.5 -48.5t-45.5 -131.5
q0 -81 44.5 -129.5t117.5 -48.5q76 0 123 61q24 29 24 83zM181 575v38q0 14 14 14h188q14 0 14 -14v-38q0 -14 -14 -14h-188q-14 0 -14 14z" />
    <glyph glyph-name="Abreve" unicode="&#x102;" horiz-adv-x="598" 
d="M8 14l251 670q5 16 23 16h34q18 0 23 -16l251 -670q0 -14 -14 -14h-52q-13 0 -18 14l-71 193h-272l-71 -193q-5 -14 -18 -14h-52q-14 0 -14 14zM190 279h218l-109 299zM198 904h35q14 0 14 -14q0 -63 52 -63t52 63q0 14 14 14h35q14 0 14 -14q0 -53 -31.5 -87t-83.5 -34
t-83.5 34t-31.5 87q0 14 14 14z" />
    <glyph glyph-name="abreve" unicode="&#x103;" horiz-adv-x="579" 
d="M441 14l-14 38q-60 -62 -155 -62q-101 0 -165.5 64.5t-64.5 180.5q0 112 67 178.5t173 66.5q47 0 88 -17.5t61 -42.5v36q0 14 14 14h48q14 0 14 -14v-442q0 -14 -14 -14h-32q-15 0 -20 14zM431 200v84q0 46 -30 79q-48 51 -115 51q-73 0 -118.5 -48.5t-45.5 -131.5
q0 -81 44.5 -129.5t117.5 -48.5q76 0 123 61q24 29 24 83zM188 674h35q14 0 14 -14q0 -63 52 -63t52 63q0 14 14 14h35q14 0 14 -14q0 -53 -31.5 -87t-83.5 -34t-83.5 34t-31.5 87q0 14 14 14z" />
    <glyph glyph-name="Aogonek" unicode="&#x104;" horiz-adv-x="598" 
d="M624 -115l9 -32q1 -4 1 -6q0 -8 -7 -10q-42 -16 -79 -16q-44 0 -73.5 25t-29.5 66q0 66 61 102l-71 193h-272l-71 -193q-5 -14 -18 -14h-52q-14 0 -14 14l251 670q5 16 23 16h34q18 0 23 -16l251 -670q0 -10 -9 -14q-66 -29 -66 -72q0 -20 13 -31.5t34 -11.5
q18 0 32.5 4.5t18.5 4.5q9 0 11 -9zM190 279h218l-109 299z" />
    <glyph glyph-name="aogonek" unicode="&#x105;" horiz-adv-x="579" 
d="M541 -115l9 -32q1 -4 1 -6q0 -8 -7 -10q-42 -16 -79 -16q-44 0 -73.5 25t-29.5 66q0 72 76 110l-11 30q-60 -62 -155 -62q-101 0 -165.5 64.5t-64.5 180.5q0 112 67 178.5t173 66.5q47 0 88 -17.5t61 -42.5v36q0 14 14 14h48q14 0 14 -14v-442q0 -10 -9 -14
q-66 -27 -66 -72q0 -20 13 -31.5t34 -11.5q18 0 32.5 4.5t18.5 4.5q10 0 11 -9zM431 200v84q0 46 -30 79q-48 51 -115 51q-73 0 -118.5 -48.5t-45.5 -131.5q0 -81 44.5 -129.5t117.5 -48.5q76 0 123 61q24 29 24 83z" />
    <glyph glyph-name="Cacute" unicode="&#x106;" horiz-adv-x="657" 
d="M583 135l26 -32q4 -5 4 -10t-5 -10q-55 -53 -110 -73t-126 -20q-135 0 -229.5 95t-94.5 265q0 166 97 263t235 97q130 0 223 -85q5 -5 5 -9q0 -5 -4 -10l-24 -31q-7 -10 -15 -10q-5 0 -13 6q-46 38 -85 52.5t-92 14.5q-101 0 -170 -74t-69 -214q0 -137 70.5 -212.5
t168.5 -75.5q51 0 92 17.5t89 59.5q8 6 13 6q7 0 14 -10zM289 756l-26 36q-3 4 -3 9t7 10l161 115q5 4 9 4q7 0 11 -7l26 -36q3 -5 3 -9q0 -5 -7 -10l-161 -115q-5 -4 -9 -4q-7 0 -11 7z" />
    <glyph glyph-name="cacute" unicode="&#x107;" horiz-adv-x="512" 
d="M435 118l32 -30q5 -5 5 -11t-6 -12q-43 -43 -85.5 -59t-94.5 -16q-105 0 -174.5 65.5t-69.5 179.5q0 110 70 177.5t179 67.5q48 0 94 -18.5t73 -48.5q5 -6 5 -10q0 -5 -4 -10l-24 -33q-4 -5 -11 -5q-6 0 -12 6q-51 53 -126 53q-73 0 -118.5 -48.5t-45.5 -131.5
q0 -76 46.5 -127t117.5 -51q43 0 71 14.5t59 45.5q5 5 10 5q6 0 9 -3zM204 526l-26 36q-3 4 -3 9t7 10l161 115q5 4 9 4q7 0 11 -7l26 -36q3 -5 3 -9q0 -5 -7 -10l-161 -115q-5 -4 -9 -4q-7 0 -11 7z" />
    <glyph glyph-name="Ccircumflex" unicode="&#x108;" horiz-adv-x="657" 
d="M583 135l26 -32q4 -5 4 -10t-5 -10q-55 -53 -110 -73t-126 -20q-135 0 -229.5 95t-94.5 265q0 166 97 263t235 97q130 0 223 -85q5 -5 5 -9q0 -5 -4 -10l-24 -31q-7 -10 -15 -10q-5 0 -13 6q-46 38 -85 52.5t-92 14.5q-101 0 -170 -74t-69 -214q0 -137 70.5 -212.5
t168.5 -75.5q51 0 92 17.5t89 59.5q8 6 13 6q7 0 14 -10zM256 763l-26 36q-3 5 -3 9q0 5 7 10l143 108q6 4 9 4t9 -4l143 -108q7 -5 7 -10q0 -4 -3 -9l-26 -36q-4 -7 -11 -7q-4 0 -9 4l-110 82l-110 -82q-5 -4 -9 -4q-7 0 -11 7z" />
    <glyph glyph-name="ccircumflex" unicode="&#x109;" horiz-adv-x="512" 
d="M435 118l32 -30q5 -5 5 -11t-6 -12q-43 -43 -85.5 -59t-94.5 -16q-105 0 -174.5 65.5t-69.5 179.5q0 110 70 177.5t179 67.5q48 0 94 -18.5t73 -48.5q5 -6 5 -10q0 -5 -4 -10l-24 -33q-4 -5 -11 -5q-6 0 -12 6q-51 53 -126 53q-73 0 -118.5 -48.5t-45.5 -131.5
q0 -76 46.5 -127t117.5 -51q43 0 71 14.5t59 45.5q5 5 10 5q6 0 9 -3zM157 533l-26 36q-3 5 -3 9q0 5 7 10l143 108q6 4 9 4t9 -4l143 -108q7 -5 7 -10q0 -4 -3 -9l-26 -36q-4 -7 -11 -7q-4 0 -9 4l-110 82l-110 -82q-5 -4 -9 -4q-7 0 -11 7z" />
    <glyph glyph-name="Cdotaccent" unicode="&#x10a;" horiz-adv-x="657" 
d="M583 135l26 -32q4 -5 4 -10t-5 -10q-55 -53 -110 -73t-126 -20q-135 0 -229.5 95t-94.5 265q0 166 97 263t235 97q130 0 223 -85q5 -5 5 -9q0 -5 -4 -10l-24 -31q-7 -10 -15 -10q-5 0 -13 6q-46 38 -85 52.5t-92 14.5q-101 0 -170 -74t-69 -214q0 -137 70.5 -212.5
t168.5 -75.5q51 0 92 17.5t89 59.5q8 6 13 6q7 0 14 -10zM318 844q0 23 16.5 39.5t39.5 16.5t39.5 -16.5t16.5 -39.5t-16.5 -39.5t-39.5 -16.5t-39.5 16.5t-16.5 39.5z" />
    <glyph glyph-name="cdotaccent" unicode="&#x10b;" horiz-adv-x="512" 
d="M435 118l32 -30q5 -5 5 -11t-6 -12q-43 -43 -85.5 -59t-94.5 -16q-105 0 -174.5 65.5t-69.5 179.5q0 110 70 177.5t179 67.5q48 0 94 -18.5t73 -48.5q5 -6 5 -10q0 -5 -4 -10l-24 -33q-4 -5 -11 -5q-6 0 -12 6q-51 53 -126 53q-73 0 -118.5 -48.5t-45.5 -131.5
q0 -76 46.5 -127t117.5 -51q43 0 71 14.5t59 45.5q5 5 10 5q6 0 9 -3zM227 614q0 23 16.5 39.5t39.5 16.5t39.5 -16.5t16.5 -39.5t-16.5 -39.5t-39.5 -16.5t-39.5 16.5t-16.5 39.5z" />
    <glyph glyph-name="Ccaron" unicode="&#x10c;" horiz-adv-x="657" 
d="M583 135l26 -32q4 -5 4 -10t-5 -10q-55 -53 -110 -73t-126 -20q-135 0 -229.5 95t-94.5 265q0 166 97 263t235 97q130 0 223 -85q5 -5 5 -9q0 -5 -4 -10l-24 -31q-7 -10 -15 -10q-5 0 -13 6q-46 38 -85 52.5t-92 14.5q-101 0 -170 -74t-69 -214q0 -137 70.5 -212.5
t168.5 -75.5q51 0 92 17.5t89 59.5q8 6 13 6q7 0 14 -10zM210 887l26 36q4 7 11 7q4 0 9 -4l110 -82l110 82q5 4 9 4q7 0 11 -7l26 -36q3 -5 3 -9q0 -5 -7 -10l-143 -108q-6 -4 -9 -4t-9 4l-143 108q-7 5 -7 10q0 4 3 9z" />
    <glyph glyph-name="ccaron" unicode="&#x10d;" horiz-adv-x="512" 
d="M435 118l32 -30q5 -5 5 -11t-6 -12q-43 -43 -85.5 -59t-94.5 -16q-105 0 -174.5 65.5t-69.5 179.5q0 110 70 177.5t179 67.5q48 0 94 -18.5t73 -48.5q5 -6 5 -10q0 -5 -4 -10l-24 -33q-4 -5 -11 -5q-6 0 -12 6q-51 53 -126 53q-73 0 -118.5 -48.5t-45.5 -131.5
q0 -76 46.5 -127t117.5 -51q43 0 71 14.5t59 45.5q5 5 10 5q6 0 9 -3zM117 657l26 36q4 7 11 7q4 0 9 -4l110 -82l110 82q5 4 9 4q7 0 11 -7l26 -36q3 -5 3 -9q0 -5 -7 -10l-143 -108q-6 -4 -9 -4t-9 4l-143 108q-7 5 -7 10q0 4 3 9z" />
    <glyph glyph-name="Dcaron" unicode="&#x10e;" horiz-adv-x="664" 
d="M86 14v672q0 14 14 14h170q147 0 246.5 -92t99.5 -258q0 -87 -27.5 -155t-75.5 -110t-109.5 -63.5t-133.5 -21.5h-170q-14 0 -14 14zM168 72h102q111 0 184.5 69.5t73.5 208.5q0 140 -73 209t-185 69h-102v-556zM126 887l26 36q4 7 11 7q4 0 9 -4l110 -82l110 82q5 4 9 4
q7 0 11 -7l26 -36q3 -5 3 -9q0 -5 -7 -10l-143 -108q-6 -4 -9 -4t-9 4l-143 108q-7 5 -7 10q0 4 3 9z" />
    <glyph glyph-name="dcaron" unicode="&#x10f;" horiz-adv-x="731" 
d="M424 14l-10 32q-63 -56 -154 -56q-99 0 -158.5 64t-59.5 181q0 112 64.5 178.5t169.5 66.5q41 0 80 -16.5t58 -39.5v282q0 14 14 14h48q14 0 14 -14v-692q0 -14 -14 -14h-32q-15 0 -20 14zM414 196v88q0 46 -30 79q-48 51 -110 51q-66 0 -109 -49t-43 -131
q0 -79 40 -128.5t110 -49.5q73 0 120 61q22 28 22 79zM594 490l-23 15q-13 8 -13 16q0 7 3 11q51 68 51 148q0 14 9 18q6 2 12 2h39q19 0 19 -20q0 -91 -70 -183q-9 -10 -16 -10q-5 0 -11 3z" />
    <glyph glyph-name="Dcroat" unicode="&#x110;" horiz-adv-x="694" 
d="M116 14v301h-94q-14 0 -14 14v42q0 14 14 14h94v301q0 14 14 14h170q147 0 246.5 -92t99.5 -258q0 -87 -27.5 -155t-75.5 -110t-109.5 -63.5t-133.5 -21.5h-170q-14 0 -14 14zM198 72h102q111 0 184.5 69.5t73.5 208.5q0 140 -73 209t-185 69h-102v-243h133q14 0 14 -14
v-42q0 -14 -14 -14h-133v-243z" />
    <glyph glyph-name="dcroat" unicode="&#x111;" horiz-adv-x="562" 
d="M424 14l-10 32q-63 -56 -154 -56q-99 0 -158.5 64t-59.5 181q0 112 64.5 178.5t169.5 66.5q41 0 80 -16.5t58 -39.5v140h-128q-14 0 -14 14v38q0 14 14 14h128v76q0 14 14 14h48q14 0 14 -14v-76h46q14 0 14 -14v-38q0 -14 -14 -14h-46v-550q0 -14 -14 -14h-32
q-15 0 -20 14zM414 196v88q0 46 -30 79q-48 51 -110 51q-66 0 -109 -49t-43 -131q0 -79 40 -128.5t110 -49.5q73 0 120 61q22 28 22 79z" />
    <glyph glyph-name="Emacron" unicode="&#x112;" horiz-adv-x="594" 
d="M86 14v672q0 14 14 14h416q14 0 14 -14v-44q0 -14 -14 -14h-348v-224h282q14 0 14 -14v-44q0 -14 -14 -14h-282v-260h362q14 0 14 -14v-44q0 -14 -14 -14h-430q-14 0 -14 14zM211 805v38q0 14 14 14h188q14 0 14 -14v-38q0 -14 -14 -14h-188q-14 0 -14 14z" />
    <glyph glyph-name="emacron" unicode="&#x113;" horiz-adv-x="552" 
d="M458 121l26 -26q5 -5 5 -11t-6 -12q-82 -82 -196 -82q-102 0 -173.5 66t-71.5 179q0 109 68 177t168 68t162 -67.5t68 -160.5v-26q0 -14 -14 -14h-372q4 -72 50 -114t115 -42q90 0 147 65q6 6 12 6t12 -6zM122 274h306q-3 58 -44.5 99t-103.5 41q-66 0 -107.5 -38
t-50.5 -102zM169 575v38q0 14 14 14h188q14 0 14 -14v-38q0 -14 -14 -14h-188q-14 0 -14 14z" />
    <glyph glyph-name="Ebreve" unicode="&#x114;" horiz-adv-x="594" 
d="M86 14v672q0 14 14 14h416q14 0 14 -14v-44q0 -14 -14 -14h-348v-224h282q14 0 14 -14v-44q0 -14 -14 -14h-282v-260h362q14 0 14 -14v-44q0 -14 -14 -14h-430q-14 0 -14 14zM202 904h35q14 0 14 -14q0 -63 52 -63t52 63q0 14 14 14h35q14 0 14 -14q0 -53 -31.5 -87
t-83.5 -34t-83.5 34t-31.5 87q0 14 14 14z" />
    <glyph glyph-name="ebreve" unicode="&#x115;" horiz-adv-x="552" 
d="M458 121l26 -26q5 -5 5 -11t-6 -12q-82 -82 -196 -82q-102 0 -173.5 66t-71.5 179q0 109 68 177t168 68t162 -67.5t68 -160.5v-26q0 -14 -14 -14h-372q4 -72 50 -114t115 -42q90 0 147 65q6 6 12 6t12 -6zM122 274h306q-3 58 -44.5 99t-103.5 41q-66 0 -107.5 -38
t-50.5 -102zM177 674h35q14 0 14 -14q0 -63 52 -63t52 63q0 14 14 14h35q14 0 14 -14q0 -53 -31.5 -87t-83.5 -34t-83.5 34t-31.5 87q0 14 14 14z" />
    <glyph glyph-name="Edotaccent" unicode="&#x116;" horiz-adv-x="594" 
d="M86 14v672q0 14 14 14h416q14 0 14 -14v-44q0 -14 -14 -14h-348v-224h282q14 0 14 -14v-44q0 -14 -14 -14h-282v-260h362q14 0 14 -14v-44q0 -14 -14 -14h-430q-14 0 -14 14zM259 844q0 23 16.5 39.5t39.5 16.5t39.5 -16.5t16.5 -39.5t-16.5 -39.5t-39.5 -16.5
t-39.5 16.5t-16.5 39.5z" />
    <glyph glyph-name="edotaccent" unicode="&#x117;" horiz-adv-x="552" 
d="M458 121l26 -26q5 -5 5 -11t-6 -12q-82 -82 -196 -82q-102 0 -173.5 66t-71.5 179q0 109 68 177t168 68t162 -67.5t68 -160.5v-26q0 -14 -14 -14h-372q4 -72 50 -114t115 -42q90 0 147 65q6 6 12 6t12 -6zM122 274h306q-3 58 -44.5 99t-103.5 41q-66 0 -107.5 -38
t-50.5 -102zM223 614q0 23 16.5 39.5t39.5 16.5t39.5 -16.5t16.5 -39.5t-16.5 -39.5t-39.5 -16.5t-39.5 16.5t-16.5 39.5z" />
    <glyph glyph-name="Eogonek" unicode="&#x118;" horiz-adv-x="594" 
d="M578 -115l9 -32q1 -4 1 -6q0 -8 -7 -10q-42 -16 -79 -16q-44 0 -73.5 25t-29.5 66q0 55 42 88h-341q-14 0 -14 14v672q0 14 14 14h416q14 0 14 -14v-44q0 -14 -14 -14h-348v-224h282q14 0 14 -14v-44q0 -14 -14 -14h-282v-260h362q14 0 14 -14v-44q0 -10 -9 -14
q-66 -27 -66 -72q0 -20 13 -31.5t34 -11.5q18 0 32.5 4.5t18.5 4.5q9 0 11 -9z" />
    <glyph glyph-name="eogonek" unicode="&#x119;" horiz-adv-x="552" 
d="M405 -115l9 -32q1 -4 1 -6q0 -8 -7 -10q-42 -16 -79 -16q-44 0 -73.5 25t-29.5 66q0 48 32 80q-92 9 -154 73.5t-62 169.5q0 109 68 177t168 68t162 -67.5t68 -160.5v-26q0 -14 -14 -14h-372q4 -72 50 -114t115 -42q90 0 147 65q6 6 12 6t12 -6l26 -26q5 -5 5 -11t-6 -12
q-55 -55 -126 -74q-28 -7 -44.5 -25.5t-16.5 -40.5q0 -23 13 -35t34 -12q18 0 32.5 4.5t18.5 4.5q10 0 11 -9zM122 274h306q-3 58 -44.5 99t-103.5 41q-66 0 -107.5 -38t-50.5 -102z" />
    <glyph glyph-name="Ecaron" unicode="&#x11a;" horiz-adv-x="594" 
d="M86 14v672q0 14 14 14h416q14 0 14 -14v-44q0 -14 -14 -14h-348v-224h282q14 0 14 -14v-44q0 -14 -14 -14h-282v-260h362q14 0 14 -14v-44q0 -14 -14 -14h-430q-14 0 -14 14zM158 887l26 36q4 7 11 7q4 0 9 -4l110 -82l110 82q5 4 9 4q7 0 11 -7l26 -36q3 -5 3 -9
q0 -5 -7 -10l-143 -108q-6 -4 -9 -4t-9 4l-143 108q-7 5 -7 10q0 4 3 9z" />
    <glyph glyph-name="ecaron" unicode="&#x11b;" horiz-adv-x="552" 
d="M458 121l26 -26q5 -5 5 -11t-6 -12q-82 -82 -196 -82q-102 0 -173.5 66t-71.5 179q0 109 68 177t168 68t162 -67.5t68 -160.5v-26q0 -14 -14 -14h-372q4 -72 50 -114t115 -42q90 0 147 65q6 6 12 6t12 -6zM122 274h306q-3 58 -44.5 99t-103.5 41q-66 0 -107.5 -38
t-50.5 -102zM121 657l26 36q4 7 11 7q4 0 9 -4l110 -82l110 82q5 4 9 4q7 0 11 -7l26 -36q3 -5 3 -9q0 -5 -7 -10l-143 -108q-6 -4 -9 -4t-9 4l-143 108q-7 5 -7 10q0 4 3 9z" />
    <glyph glyph-name="Gcircumflex" unicode="&#x11c;" horiz-adv-x="734" 
d="M301 306v44q0 14 14 14h361q14 0 14 -14v-21q0 -147 -81.5 -243t-222.5 -96q-143 0 -240.5 94.5t-97.5 265.5q0 166 99.5 263t241.5 97q84 0 157.5 -37t114.5 -99q6 -9 6 -16t-6 -12l-34 -28q-7 -5 -11 -5q-8 0 -14 9q-81 116 -218 116q-48 0 -91.5 -17.5t-79 -51.5
t-56.5 -90.5t-21 -128.5q0 -136 72 -212t176 -76q101 0 158.5 61t62.5 169h-290q-14 0 -14 14zM254 763l-26 36q-3 5 -3 9q0 5 7 10l143 108q6 4 9 4t9 -4l143 -108q7 -5 7 -10q0 -4 -3 -9l-26 -36q-4 -7 -11 -7q-4 0 -9 4l-110 82l-110 -82q-5 -4 -9 -4q-7 0 -11 7z" />
    <glyph glyph-name="gcircumflex" unicode="&#x11d;" horiz-adv-x="564" 
d="M66 -131l32 37q5 5 9 5t8 -3q84 -82 172 -82q64 0 99 42t35 116v56q-55 -50 -143 -50q-105 0 -170.5 66.5t-65.5 178.5q0 117 64 181t166 64q45 0 85.5 -15t63.5 -41v32q0 14 14 14h48q14 0 14 -14v-475q0 -99 -59.5 -160t-150.5 -61q-123 0 -222 91q-4 4 -4 8q0 5 5 10z
M421 181v93q0 51 -22 79q-47 61 -125 61q-71 0 -111.5 -49.5t-40.5 -128.5q0 -82 44 -131t110 -49q76 0 117 44q28 31 28 81zM147 533l-26 36q-3 5 -3 9q0 5 7 10l143 108q6 4 9 4t9 -4l143 -108q7 -5 7 -10q0 -4 -3 -9l-26 -36q-4 -7 -11 -7q-4 0 -9 4l-110 82l-110 -82
q-5 -4 -9 -4q-7 0 -11 7z" />
    <glyph glyph-name="Gbreve" unicode="&#x11e;" horiz-adv-x="734" 
d="M301 306v44q0 14 14 14h361q14 0 14 -14v-21q0 -147 -81.5 -243t-222.5 -96q-143 0 -240.5 94.5t-97.5 265.5q0 166 99.5 263t241.5 97q84 0 157.5 -37t114.5 -99q6 -9 6 -16t-6 -12l-34 -28q-7 -5 -11 -5q-8 0 -14 9q-81 116 -218 116q-48 0 -91.5 -17.5t-79 -51.5
t-56.5 -90.5t-21 -128.5q0 -136 72 -212t176 -76q101 0 158.5 61t62.5 169h-290q-14 0 -14 14zM283 904h35q14 0 14 -14q0 -63 52 -63t52 63q0 14 14 14h35q14 0 14 -14q0 -53 -31.5 -87t-83.5 -34t-83.5 34t-31.5 87q0 14 14 14z" />
    <glyph glyph-name="gbreve" unicode="&#x11f;" horiz-adv-x="564" 
d="M66 -131l32 37q5 5 9 5t8 -3q84 -82 172 -82q64 0 99 42t35 116v56q-55 -50 -143 -50q-105 0 -170.5 66.5t-65.5 178.5q0 117 64 181t166 64q45 0 85.5 -15t63.5 -41v32q0 14 14 14h48q14 0 14 -14v-475q0 -99 -59.5 -160t-150.5 -61q-123 0 -222 91q-4 4 -4 8q0 5 5 10z
M421 181v93q0 51 -22 79q-47 61 -125 61q-71 0 -111.5 -49.5t-40.5 -128.5q0 -82 44 -131t110 -49q76 0 117 44q28 31 28 81zM168 674h35q14 0 14 -14q0 -63 52 -63t52 63q0 14 14 14h35q14 0 14 -14q0 -53 -31.5 -87t-83.5 -34t-83.5 34t-31.5 87q0 14 14 14z" />
    <glyph glyph-name="Gdotaccent" unicode="&#x120;" horiz-adv-x="734" 
d="M301 306v44q0 14 14 14h361q14 0 14 -14v-21q0 -147 -81.5 -243t-222.5 -96q-143 0 -240.5 94.5t-97.5 265.5q0 166 99.5 263t241.5 97q84 0 157.5 -37t114.5 -99q6 -9 6 -16t-6 -12l-34 -28q-7 -5 -11 -5q-8 0 -14 9q-81 116 -218 116q-48 0 -91.5 -17.5t-79 -51.5
t-56.5 -90.5t-21 -128.5q0 -136 72 -212t176 -76q101 0 158.5 61t62.5 169h-290q-14 0 -14 14zM331 844q0 23 16.5 39.5t39.5 16.5t39.5 -16.5t16.5 -39.5t-16.5 -39.5t-39.5 -16.5t-39.5 16.5t-16.5 39.5z" />
    <glyph glyph-name="gdotaccent" unicode="&#x121;" horiz-adv-x="564" 
d="M66 -131l32 37q5 5 9 5t8 -3q84 -82 172 -82q64 0 99 42t35 116v56q-55 -50 -143 -50q-105 0 -170.5 66.5t-65.5 178.5q0 117 64 181t166 64q45 0 85.5 -15t63.5 -41v32q0 14 14 14h48q14 0 14 -14v-475q0 -99 -59.5 -160t-150.5 -61q-123 0 -222 91q-4 4 -4 8q0 5 5 10z
M421 181v93q0 51 -22 79q-47 61 -125 61q-71 0 -111.5 -49.5t-40.5 -128.5q0 -82 44 -131t110 -49q76 0 117 44q28 31 28 81zM223 614q0 23 16.5 39.5t39.5 16.5t39.5 -16.5t16.5 -39.5t-16.5 -39.5t-39.5 -16.5t-39.5 16.5t-16.5 39.5z" />
    <glyph glyph-name="uni0122" unicode="&#x122;" horiz-adv-x="734" 
d="M301 306v44q0 14 14 14h361q14 0 14 -14v-21q0 -147 -81.5 -243t-222.5 -96q-143 0 -240.5 94.5t-97.5 265.5q0 166 99.5 263t241.5 97q84 0 157.5 -37t114.5 -99q6 -9 6 -16t-6 -12l-34 -28q-7 -5 -11 -5q-8 0 -14 9q-81 116 -218 116q-48 0 -91.5 -17.5t-79 -51.5
t-56.5 -90.5t-21 -128.5q0 -136 72 -212t176 -76q101 0 158.5 61t62.5 169h-290q-14 0 -14 14zM337 -255l-23 15q-13 8 -13 16q0 6 3 11q45 59 45 136q0 13 9 18q6 2 12 2h39q19 0 19 -20q0 -87 -64 -171q-9 -10 -16 -10q-5 0 -11 3z" />
    <glyph glyph-name="uni0123" unicode="&#x123;" horiz-adv-x="564" 
d="M66 -131l32 37q5 5 9 5t8 -3q84 -82 172 -82q64 0 99 42t35 116v56q-55 -50 -143 -50q-105 0 -170.5 66.5t-65.5 178.5q0 117 64 181t166 64q45 0 85.5 -15t63.5 -41v32q0 14 14 14h48q14 0 14 -14v-475q0 -99 -59.5 -160t-150.5 -61q-123 0 -222 91q-4 4 -4 8q0 5 5 10z
M421 181v93q0 51 -22 79q-47 61 -125 61q-71 0 -111.5 -49.5t-40.5 -128.5q0 -82 44 -131t110 -49q76 0 117 44q28 31 28 81zM282 546h-39q-19 0 -19 20q0 91 70 183q9 10 16 10q5 0 11 -3l23 -15q13 -8 13 -16q0 -7 -3 -11q-51 -68 -51 -148q0 -14 -9 -18q-6 -2 -12 -2z
" />
    <glyph glyph-name="Hcircumflex" unicode="&#x124;" horiz-adv-x="671" 
d="M86 14v672q0 14 14 14h54q14 0 14 -14v-282h335v282q0 14 14 14h54q14 0 14 -14v-672q0 -14 -14 -14h-54q-14 0 -14 14v318h-335v-318q0 -14 -14 -14h-54q-14 0 -14 14zM205 763l-26 36q-3 5 -3 9q0 5 7 10l143 108q6 4 9 4t9 -4l143 -108q7 -5 7 -10q0 -4 -3 -9l-26 -36
q-4 -7 -11 -7q-4 0 -9 4l-110 82l-110 -82q-5 -4 -9 -4q-7 0 -11 7z" />
    <glyph glyph-name="hcircumflex" unicode="&#x125;" horiz-adv-x="554" 
d="M72 14v692q0 14 14 14h48q14 0 14 -14v-312q27 36 76.5 61t106.5 25q70 0 107.5 -37t37.5 -110v-319q0 -14 -14 -14h-48q-14 0 -14 14v318q0 40 -21.5 61t-59.5 21q-44 0 -85 -26t-62 -60q-24 -38 -24 -123v-191q0 -14 -14 -14h-48q-14 0 -14 14zM94 763l-26 36
q-3 5 -3 9q0 5 7 10l143 108q6 4 9 4t9 -4l143 -108q7 -5 7 -10q0 -4 -3 -9l-26 -36q-4 -7 -11 -7q-4 0 -9 4l-110 82l-110 -82q-5 -4 -9 -4q-7 0 -11 7z" />
    <glyph glyph-name="Hbar" unicode="&#x126;" horiz-adv-x="671" 
d="M86 567v119q0 14 14 14h54q14 0 14 -14v-119h335v119q0 14 14 14h54q14 0 14 -14v-119h64q14 0 14 -14v-38q0 -14 -14 -14h-64v-487q0 -14 -14 -14h-54q-14 0 -14 14v318h-335v-318q0 -14 -14 -14h-54q-14 0 -14 14v487h-64q-14 0 -14 14v38q0 14 14 14h64zM168 404h335
v97h-335v-97z" />
    <glyph glyph-name="hbar" unicode="&#x127;" horiz-adv-x="554" 
d="M72 630v76q0 14 14 14h48q14 0 14 -14v-76h128q14 0 14 -14v-38q0 -14 -14 -14h-128v-170q27 36 76.5 61t106.5 25q70 0 107.5 -37t37.5 -110v-319q0 -14 -14 -14h-48q-14 0 -14 14v318q0 40 -21.5 61t-59.5 21q-44 0 -85 -26t-62 -60q-24 -38 -24 -123v-191
q0 -14 -14 -14h-48q-14 0 -14 14v550h-46q-14 0 -14 14v38q0 14 14 14h46z" />
    <glyph glyph-name="Itilde" unicode="&#x128;" horiz-adv-x="412" 
d="M30 14v44q0 14 14 14h121v556h-111q-14 0 -14 14v44q0 14 14 14h304q14 0 14 -14v-44q0 -14 -14 -14h-111v-556h121q14 0 14 -14v-44q0 -14 -14 -14h-324q-14 0 -14 14zM83 789l-41 21q-5 3 -5 8q0 3 2 9q38 82 110 82q40 0 75 -25.5t55 -25.5q29 0 49 45q4 7 9 7
q4 0 8 -2l41 -21q5 -3 5 -8q0 -3 -2 -9q-38 -82 -110 -82q-40 0 -75 25.5t-55 25.5q-29 0 -49 -45q-4 -7 -9 -7q-4 0 -8 2z" />
    <glyph glyph-name="itilde" unicode="&#x129;" horiz-adv-x="220" 
d="M72 14v442q0 14 14 14h48q14 0 14 -14v-442q0 -14 -14 -14h-48q-14 0 -14 14zM-13 559l-41 21q-5 3 -5 8q0 3 2 9q38 82 110 82q40 0 75 -25.5t55 -25.5q29 0 49 45q4 7 9 7q4 0 8 -2l41 -21q5 -3 5 -8q0 -3 -2 -9q-38 -82 -110 -82q-40 0 -75 25.5t-55 25.5
q-29 0 -49 -45q-4 -7 -9 -7q-4 0 -8 2z" />
    <glyph glyph-name="Imacron" unicode="&#x12a;" horiz-adv-x="412" 
d="M30 14v44q0 14 14 14h121v556h-111q-14 0 -14 14v44q0 14 14 14h304q14 0 14 -14v-44q0 -14 -14 -14h-111v-556h121q14 0 14 -14v-44q0 -14 -14 -14h-324q-14 0 -14 14zM98 805v38q0 14 14 14h188q14 0 14 -14v-38q0 -14 -14 -14h-188q-14 0 -14 14z" />
    <glyph glyph-name="imacron" unicode="&#x12b;" horiz-adv-x="220" 
d="M72 14v442q0 14 14 14h48q14 0 14 -14v-442q0 -14 -14 -14h-48q-14 0 -14 14zM2 575v38q0 14 14 14h188q14 0 14 -14v-38q0 -14 -14 -14h-188q-14 0 -14 14z" />
    <glyph glyph-name="Ibreve" unicode="&#x12c;" horiz-adv-x="412" 
d="M30 14v44q0 14 14 14h121v556h-111q-14 0 -14 14v44q0 14 14 14h304q14 0 14 -14v-44q0 -14 -14 -14h-111v-556h121q14 0 14 -14v-44q0 -14 -14 -14h-324q-14 0 -14 14zM105 904h35q14 0 14 -14q0 -63 52 -63t52 63q0 14 14 14h35q14 0 14 -14q0 -53 -31.5 -87t-83.5 -34
t-83.5 34t-31.5 87q0 14 14 14z" />
    <glyph glyph-name="ibreve" unicode="&#x12d;" horiz-adv-x="220" 
d="M72 14v442q0 14 14 14h48q14 0 14 -14v-442q0 -14 -14 -14h-48q-14 0 -14 14zM9 674h35q14 0 14 -14q0 -63 52 -63t52 63q0 14 14 14h35q14 0 14 -14q0 -53 -31.5 -87t-83.5 -34t-83.5 34t-31.5 87q0 14 14 14z" />
    <glyph glyph-name="Iogonek" unicode="&#x12e;" horiz-adv-x="412" 
d="M293 -115l9 -32q1 -4 1 -6q0 -8 -7 -10q-42 -16 -79 -16q-44 0 -73.5 25t-29.5 66q0 55 42 88h-112q-14 0 -14 14v44q0 14 14 14h121v556h-111q-14 0 -14 14v44q0 14 14 14h304q14 0 14 -14v-44q0 -14 -14 -14h-111v-556h121q14 0 14 -14v-44q0 -14 -14 -14h-118
q-66 -27 -66 -72q0 -20 13 -31.5t34 -11.5q18 0 32.5 4.5t18.5 4.5q10 0 11 -9z" />
    <glyph glyph-name="iogonek" unicode="&#x12f;" horiz-adv-x="220" 
d="M182 -115l9 -32q1 -4 1 -6q0 -8 -7 -10q-42 -16 -79 -16q-44 0 -73.5 25t-29.5 66q0 69 69 106v438q0 14 14 14h48q14 0 14 -14v-442q0 -10 -9 -14q-66 -27 -66 -72q0 -20 13 -31.5t34 -11.5q18 0 32.5 4.5t18.5 4.5q9 0 11 -9zM54 614q0 23 16.5 39.5t39.5 16.5
t39.5 -16.5t16.5 -39.5t-16.5 -39.5t-39.5 -16.5t-39.5 16.5t-16.5 39.5z" />
    <glyph glyph-name="Idotaccent" unicode="&#x130;" horiz-adv-x="412" 
d="M30 14v44q0 14 14 14h121v556h-111q-14 0 -14 14v44q0 14 14 14h304q14 0 14 -14v-44q0 -14 -14 -14h-111v-556h121q14 0 14 -14v-44q0 -14 -14 -14h-324q-14 0 -14 14zM150 844q0 23 16.5 39.5t39.5 16.5t39.5 -16.5t16.5 -39.5t-16.5 -39.5t-39.5 -16.5t-39.5 16.5
t-16.5 39.5z" />
    <glyph glyph-name="dotlessi" unicode="&#x131;" horiz-adv-x="220" 
d="M72 14v442q0 14 14 14h48q14 0 14 -14v-442q0 -14 -14 -14h-48q-14 0 -14 14z" />
    <glyph glyph-name="IJ" unicode="&#x132;" horiz-adv-x="976" 
d="M30 14v44q0 14 14 14h121v556h-111q-14 0 -14 14v44q0 14 14 14h304q14 0 14 -14v-44q0 -14 -14 -14h-111v-556h121q14 0 14 -14v-44q0 -14 -14 -14h-324q-14 0 -14 14zM441 167l50 20q6 2 8 2q7 0 10 -8q37 -119 148 -119q63 0 98.5 40.5t35.5 120.5v405h-218
q-14 0 -14 14v44q0 14 14 14h363q14 0 14 -14v-22q0 -13 -14 -18l-63 -18v-402q0 -112 -60.5 -174t-155.5 -62q-86 0 -141.5 45.5t-80.5 112.5q-2 6 -2 9q0 6 8 10z" />
    <glyph glyph-name="ij" unicode="&#x133;" horiz-adv-x="440" 
d="M72 14v442q0 14 14 14h48q14 0 14 -14v-442q0 -14 -14 -14h-48q-14 0 -14 14zM54 614q0 23 16.5 39.5t39.5 16.5t39.5 -16.5t16.5 -39.5t-16.5 -39.5t-39.5 -16.5t-39.5 16.5t-16.5 39.5zM274 614q0 23 16.5 39.5t39.5 16.5t39.5 -16.5t16.5 -39.5t-16.5 -39.5
t-39.5 -16.5t-39.5 16.5t-16.5 39.5zM182 -223v38q0 15 14 15q2 0 12 -2t16 -2q37 0 52.5 19.5t15.5 65.5v545q0 14 14 14h48q14 0 14 -14v-525q0 -171 -144 -171q-14 0 -29 3q-13 3 -13 14z" />
    <glyph glyph-name="Jcircumflex" unicode="&#x134;" horiz-adv-x="567" 
d="M32 167l50 20q6 2 8 2q7 0 10 -8q37 -119 148 -119q63 0 98.5 40.5t35.5 120.5v405h-218q-14 0 -14 14v44q0 14 14 14h363q14 0 14 -14v-22q0 -13 -14 -18l-63 -18v-402q0 -112 -60.5 -174t-155.5 -62q-86 0 -141.5 45.5t-80.5 112.5q-2 6 -2 9q0 6 8 10zM213 763l-26 36
q-3 5 -3 9q0 5 7 10l143 108q6 4 9 4t9 -4l143 -108q7 -5 7 -10q0 -4 -3 -9l-26 -36q-4 -7 -11 -7q-4 0 -9 4l-110 82l-110 -82q-5 -4 -9 -4q-7 0 -11 7z" />
    <glyph glyph-name="jcircumflex" unicode="&#x135;" horiz-adv-x="220" 
d="M-38 -223v38q0 15 14 15q2 0 12 -2t16 -2q37 0 52.5 19.5t15.5 65.5v545q0 14 14 14h48q14 0 14 -14v-525q0 -171 -144 -171q-14 0 -29 3q-13 3 -13 14zM-20 533l-26 36q-3 5 -3 9q0 5 7 10l143 108q6 4 9 4t9 -4l143 -108q7 -5 7 -10q0 -4 -3 -9l-26 -36q-4 -7 -11 -7
q-4 0 -9 4l-110 82l-110 -82q-5 -4 -9 -4q-7 0 -11 7z" />
    <glyph glyph-name="uni0136" unicode="&#x136;" horiz-adv-x="585" 
d="M86 14v672q0 14 14 14h54q14 0 14 -14v-271l261 274q9 11 24 11h68q11 0 11 -9q0 -5 -4 -9l-245 -258l273 -401q4 -5 4 -11q0 -12 -12 -12h-59q-16 0 -27 16l-237 347l-57 -60v-289q0 -14 -14 -14h-54q-14 0 -14 14zM269 -255l-23 15q-13 8 -13 16q0 6 3 11q45 59 45 136
q0 13 9 18q6 2 12 2h39q19 0 19 -20q0 -87 -64 -171q-9 -10 -16 -10q-5 0 -11 3z" />
    <glyph glyph-name="uni0137" unicode="&#x137;" horiz-adv-x="468" 
d="M72 14v692q0 14 14 14h48q14 0 14 -14v-419l165 169q12 14 27 14h60q12 0 12 -10q0 -5 -4 -9l-162 -164l194 -268q3 -5 3 -9q0 -10 -12 -10h-56q-15 0 -24 14l-158 219l-45 -46v-173q0 -14 -14 -14h-48q-14 0 -14 14zM205 -255l-23 15q-13 8 -13 16q0 6 3 11
q45 59 45 136q0 13 9 18q6 2 12 2h39q19 0 19 -20q0 -87 -64 -171q-9 -10 -16 -10q-5 0 -11 3z" />
    <glyph glyph-name="kgreenlandic" unicode="&#x138;" horiz-adv-x="468" 
d="M72 14v442q0 14 14 14h48q14 0 14 -14v-169l165 169q12 14 27 14h60q12 0 12 -10q0 -5 -4 -9l-162 -164l194 -268q3 -5 3 -9q0 -10 -12 -10h-56q-15 0 -24 14l-158 219l-45 -46v-173q0 -14 -14 -14h-48q-14 0 -14 14z" />
    <glyph glyph-name="Lacute" unicode="&#x139;" horiz-adv-x="556" 
d="M86 14v672q0 14 14 14h54q14 0 14 -14v-614h343q14 0 14 -14v-44q0 -14 -14 -14h-411q-14 0 -14 14zM108 756l-26 36q-3 4 -3 9t7 10l161 115q5 4 9 4q7 0 11 -7l26 -36q3 -5 3 -9q0 -5 -7 -10l-161 -115q-5 -4 -9 -4q-7 0 -11 7z" />
    <glyph glyph-name="lacute" unicode="&#x13a;" horiz-adv-x="263" 
d="M72 91v615q0 14 14 14h48q14 0 14 -14v-600q0 -23 10.5 -36.5t25.5 -13.5q12 0 22 5t13 5q10 0 10 -13v-38q0 -11 -10 -15q-23 -10 -46 -10q-47 0 -74 25.5t-27 75.5zM22 756l-26 36q-3 4 -3 9t7 10l161 115q5 4 9 4q7 0 11 -7l26 -36q3 -5 3 -9q0 -5 -7 -10l-161 -115
q-5 -4 -9 -4q-7 0 -11 7z" />
    <glyph glyph-name="uni013B" unicode="&#x13b;" horiz-adv-x="556" 
d="M86 14v672q0 14 14 14h54q14 0 14 -14v-614h343q14 0 14 -14v-44q0 -14 -14 -14h-411q-14 0 -14 14zM276 -255l-23 15q-13 8 -13 16q0 6 3 11q45 59 45 136q0 13 9 18q6 2 12 2h39q19 0 19 -20q0 -87 -64 -171q-9 -10 -16 -10q-5 0 -11 3z" />
    <glyph glyph-name="uni013C" unicode="&#x13c;" horiz-adv-x="263" 
d="M72 91v615q0 14 14 14h48q14 0 14 -14v-600q0 -23 10.5 -36.5t25.5 -13.5q12 0 22 5t13 5q10 0 10 -13v-38q0 -11 -10 -15q-23 -10 -46 -10q-47 0 -74 25.5t-27 75.5zM103 -255l-23 15q-13 8 -13 16q0 6 3 11q45 59 45 136q0 13 9 18q6 2 12 2h39q19 0 19 -20
q0 -87 -64 -171q-9 -10 -16 -10q-5 0 -11 3z" />
    <glyph glyph-name="Lcaron" unicode="&#x13d;" horiz-adv-x="556" 
d="M86 14v672q0 14 14 14h54q14 0 14 -14v-614h343q14 0 14 -14v-44q0 -14 -14 -14h-411q-14 0 -14 14zM407 490l-23 15q-13 8 -13 16q0 7 3 11q51 68 51 148q0 14 9 18q6 2 12 2h39q19 0 19 -20q0 -91 -70 -183q-9 -10 -16 -10q-5 0 -11 3z" />
    <glyph glyph-name="lcaron" unicode="&#x13e;" horiz-adv-x="481" 
d="M72 91v615q0 14 14 14h48q14 0 14 -14v-600q0 -23 10.5 -36.5t25.5 -13.5q12 0 22 5t13 5q10 0 10 -13v-38q0 -11 -10 -15q-23 -10 -46 -10q-47 0 -74 25.5t-27 75.5zM312 490l-23 15q-13 8 -13 16q0 7 3 11q51 68 51 148q0 14 9 18q6 2 12 2h39q19 0 19 -20
q0 -91 -70 -183q-9 -10 -16 -10q-5 0 -11 3z" />
    <glyph glyph-name="Ldot" unicode="&#x13f;" horiz-adv-x="556" 
d="M86 14v672q0 14 14 14h54q14 0 14 -14v-614h343q14 0 14 -14v-44q0 -14 -14 -14h-411q-14 0 -14 14zM381 350q0 24 16.5 41t39.5 17q24 0 41 -17t17 -41q0 -23 -17 -39.5t-41 -16.5q-23 0 -39.5 16.5t-16.5 39.5z" />
    <glyph glyph-name="ldot" unicode="&#x140;" horiz-adv-x="428" 
d="M72 91v615q0 14 14 14h48q14 0 14 -14v-600q0 -23 10.5 -36.5t25.5 -13.5q12 0 22 5t13 5q10 0 10 -13v-38q0 -11 -10 -15q-23 -10 -46 -10q-47 0 -74 25.5t-27 75.5zM265 350q0 24 16.5 41t39.5 17q24 0 41 -17t17 -41q0 -23 -17 -39.5t-41 -16.5q-23 0 -39.5 16.5
t-16.5 39.5z" />
    <glyph glyph-name="Lslash" unicode="&#x141;" horiz-adv-x="594" 
d="M124 14v231l-76 -43q-6 -3 -9 -3q-5 0 -10 8l-21 36q-3 6 -3 9q0 5 8 10l111 64v354q0 20 20 20h42q20 0 20 -20v-307l125 72q6 3 9 3q5 0 10 -8l21 -36q3 -6 3 -9q0 -5 -8 -10l-160 -92v-221h343q14 0 14 -14v-44q0 -14 -14 -14h-411q-14 0 -14 14z" />
    <glyph glyph-name="lslash" unicode="&#x142;" horiz-adv-x="306" 
d="M104 91v188l-55 -32q-6 -3 -9 -3q-5 0 -10 8l-21 36q-3 6 -3 9q0 5 8 10l90 52v347q0 14 14 14h48q14 0 14 -14v-303l69 40q6 3 9 3q5 0 10 -8l21 -36q3 -6 3 -9q0 -5 -8 -10l-104 -60v-217q0 -23 10.5 -36.5t25.5 -13.5q12 0 21.5 5t13.5 5q10 0 10 -13v-38
q0 -12 -10 -15q-27 -10 -46 -10q-47 0 -74 25.5t-27 75.5z" />
    <glyph glyph-name="Nacute" unicode="&#x143;" horiz-adv-x="686" 
d="M86 14v672q0 14 14 14h41q14 0 23 -14l354 -531v531q0 14 14 14h54q14 0 14 -14v-672q0 -14 -14 -14h-41q-14 0 -23 14l-354 531v-531q0 -14 -14 -14h-54q-14 0 -14 14zM263 756l-26 36q-3 4 -3 9t7 10l161 115q5 4 9 4q7 0 11 -7l26 -36q3 -5 3 -9q0 -5 -7 -10
l-161 -115q-5 -4 -9 -4q-7 0 -11 7z" />
    <glyph glyph-name="nacute" unicode="&#x144;" horiz-adv-x="554" 
d="M72 14v442q0 14 14 14h48q14 0 14 -14v-62q22 34 72.5 60t104.5 26q72 0 111.5 -37.5t39.5 -109.5v-319q0 -14 -14 -14h-48q-14 0 -14 14v315q0 85 -87 85q-42 0 -81 -25.5t-60 -60.5q-24 -38 -24 -123v-191q0 -14 -14 -14h-48q-14 0 -14 14zM197 526l-26 36q-3 4 -3 9
t7 10l161 115q5 4 9 4q7 0 11 -7l26 -36q3 -5 3 -9q0 -5 -7 -10l-161 -115q-5 -4 -9 -4q-7 0 -11 7z" />
    <glyph glyph-name="uni0145" unicode="&#x145;" horiz-adv-x="686" 
d="M86 14v672q0 14 14 14h41q14 0 23 -14l354 -531v531q0 14 14 14h54q14 0 14 -14v-672q0 -14 -14 -14h-41q-14 0 -23 14l-354 531v-531q0 -14 -14 -14h-54q-14 0 -14 14zM310 -255l-23 15q-13 8 -13 16q0 6 3 11q45 59 45 136q0 13 9 18q6 2 12 2h39q19 0 19 -20
q0 -87 -64 -171q-9 -10 -16 -10q-5 0 -11 3z" />
    <glyph glyph-name="uni0146" unicode="&#x146;" horiz-adv-x="554" 
d="M72 14v442q0 14 14 14h48q14 0 14 -14v-62q22 34 72.5 60t104.5 26q72 0 111.5 -37.5t39.5 -109.5v-319q0 -14 -14 -14h-48q-14 0 -14 14v315q0 85 -87 85q-42 0 -81 -25.5t-60 -60.5q-24 -38 -24 -123v-191q0 -14 -14 -14h-48q-14 0 -14 14zM225 -255l-23 15
q-13 8 -13 16q0 6 3 11q45 59 45 136q0 13 9 18q6 2 12 2h39q19 0 19 -20q0 -87 -64 -171q-9 -10 -16 -10q-5 0 -11 3z" />
    <glyph glyph-name="Ncaron" unicode="&#x147;" horiz-adv-x="686" 
d="M86 14v672q0 14 14 14h41q14 0 23 -14l354 -531v531q0 14 14 14h54q14 0 14 -14v-672q0 -14 -14 -14h-41q-14 0 -23 14l-354 531v-531q0 -14 -14 -14h-54q-14 0 -14 14zM187 887l26 36q4 7 11 7q4 0 9 -4l110 -82l110 82q5 4 9 4q7 0 11 -7l26 -36q3 -5 3 -9q0 -5 -7 -10
l-143 -108q-6 -4 -9 -4t-9 4l-143 108q-7 5 -7 10q0 4 3 9z" />
    <glyph glyph-name="ncaron" unicode="&#x148;" horiz-adv-x="554" 
d="M72 14v442q0 14 14 14h48q14 0 14 -14v-62q22 34 72.5 60t104.5 26q72 0 111.5 -37.5t39.5 -109.5v-319q0 -14 -14 -14h-48q-14 0 -14 14v315q0 85 -87 85q-42 0 -81 -25.5t-60 -60.5q-24 -38 -24 -123v-191q0 -14 -14 -14h-48q-14 0 -14 14zM121 657l26 36q4 7 11 7
q4 0 9 -4l110 -82l110 82q5 4 9 4q7 0 11 -7l26 -36q3 -5 3 -9q0 -5 -7 -10l-143 -108q-6 -4 -9 -4t-9 4l-143 108q-7 5 -7 10q0 4 3 9z" />
    <glyph glyph-name="napostrophe" unicode="&#x149;" horiz-adv-x="641" 
d="M72 14v442q0 14 14 14h48q14 0 14 -14v-62q22 34 72.5 60t104.5 26q72 0 111.5 -37.5t39.5 -109.5v-319q0 -14 -14 -14h-48q-14 0 -14 14v315q0 85 -87 85q-42 0 -81 -25.5t-60 -60.5q-24 -38 -24 -123v-191q0 -14 -14 -14h-48q-14 0 -14 14zM518 490l-23 15
q-13 8 -13 16q0 7 3 11q51 68 51 148q0 14 9 18q6 2 12 2h39q19 0 19 -20q0 -91 -70 -183q-9 -10 -16 -10q-5 0 -11 3z" />
    <glyph glyph-name="Eng" unicode="&#x14a;" horiz-adv-x="686" 
d="M86 14v672q0 14 14 14h41q14 0 23 -14l354 -531v531q0 14 14 14h54q14 0 14 -14v-704q0 -105 -49.5 -163.5t-136.5 -58.5q-122 0 -164 99q-3 6 -3 9q0 5 7 11l48 24q6 2 8 2q8 0 11 -7q15 -33 36.5 -49.5t56.5 -16.5q104 0 104 147v41l-350 525v-531q0 -14 -14 -14h-54
q-14 0 -14 14z" />
    <glyph glyph-name="eng" unicode="&#x14b;" horiz-adv-x="554" 
d="M290 -223v38q0 15 14 15q2 0 12.5 -2t15.5 -2q37 0 52.5 19.5t15.5 65.5v418q0 85 -87 85q-42 0 -81 -25.5t-60 -60.5q-24 -38 -24 -123v-191q0 -14 -14 -14h-48q-14 0 -14 14v442q0 14 14 14h48q14 0 14 -14v-62q22 34 72.5 60t104.5 26q72 0 111.5 -37.5t39.5 -109.5
v-402q0 -171 -144 -171q-14 0 -29 3q-13 3 -13 14z" />
    <glyph glyph-name="Omacron" unicode="&#x14c;" horiz-adv-x="766" 
d="M383 -10q-89 0 -163.5 39.5t-123 123t-48.5 197.5q0 165 99.5 262.5t235.5 97.5t235.5 -97.5t99.5 -262.5q0 -114 -48.5 -197.5t-123 -123t-163.5 -39.5zM383 62q103 0 175 74.5t72 213.5q0 140 -72 214t-175 74t-175 -74t-72 -214q0 -139 72 -213.5t175 -74.5zM275 805
v38q0 14 14 14h188q14 0 14 -14v-38q0 -14 -14 -14h-188q-14 0 -14 14z" />
    <glyph glyph-name="omacron" unicode="&#x14d;" horiz-adv-x="556" 
d="M278 -10q-101 0 -168.5 65.5t-67.5 179.5q0 111 66 178t170 67t170 -67t66 -178q0 -114 -67.5 -179.5t-168.5 -65.5zM278 56q70 0 113 50.5t43 127.5q0 82 -44.5 131t-111.5 49t-111.5 -49t-44.5 -131q0 -77 43 -127.5t113 -50.5zM170 575v38q0 14 14 14h188q14 0 14 -14
v-38q0 -14 -14 -14h-188q-14 0 -14 14z" />
    <glyph glyph-name="Obreve" unicode="&#x14e;" horiz-adv-x="766" 
d="M383 -10q-89 0 -163.5 39.5t-123 123t-48.5 197.5q0 165 99.5 262.5t235.5 97.5t235.5 -97.5t99.5 -262.5q0 -114 -48.5 -197.5t-123 -123t-163.5 -39.5zM383 62q103 0 175 74.5t72 213.5q0 140 -72 214t-175 74t-175 -74t-72 -214q0 -139 72 -213.5t175 -74.5zM282 904
h35q14 0 14 -14q0 -63 52 -63t52 63q0 14 14 14h35q14 0 14 -14q0 -53 -31.5 -87t-83.5 -34t-83.5 34t-31.5 87q0 14 14 14z" />
    <glyph glyph-name="obreve" unicode="&#x14f;" horiz-adv-x="556" 
d="M278 -10q-101 0 -168.5 65.5t-67.5 179.5q0 111 66 178t170 67t170 -67t66 -178q0 -114 -67.5 -179.5t-168.5 -65.5zM278 56q70 0 113 50.5t43 127.5q0 82 -44.5 131t-111.5 49t-111.5 -49t-44.5 -131q0 -77 43 -127.5t113 -50.5zM177 674h35q14 0 14 -14q0 -63 52 -63
t52 63q0 14 14 14h35q14 0 14 -14q0 -53 -31.5 -87t-83.5 -34t-83.5 34t-31.5 87q0 14 14 14z" />
    <glyph glyph-name="Ohungarumlaut" unicode="&#x150;" horiz-adv-x="766" 
d="M383 -10q-89 0 -163.5 39.5t-123 123t-48.5 197.5q0 165 99.5 262.5t235.5 97.5t235.5 -97.5t99.5 -262.5q0 -114 -48.5 -197.5t-123 -123t-163.5 -39.5zM383 62q103 0 175 74.5t72 213.5q0 140 -72 214t-175 74t-175 -74t-72 -214q0 -139 72 -213.5t175 -74.5zM215 756
l-26 36q-3 4 -3 9t7 10l161 115q5 4 9 4q7 0 11 -7l26 -36q3 -5 3 -9q0 -5 -7 -10l-161 -115q-5 -4 -9 -4q-7 0 -11 7zM422 756l-26 36q-3 4 -3 9t7 10l161 115q5 4 9 4q7 0 11 -7l26 -36q3 -5 3 -9q0 -5 -7 -10l-161 -115q-5 -4 -9 -4q-7 0 -11 7z" />
    <glyph glyph-name="ohungarumlaut" unicode="&#x151;" horiz-adv-x="556" 
d="M278 -10q-101 0 -168.5 65.5t-67.5 179.5q0 111 66 178t170 67t170 -67t66 -178q0 -114 -67.5 -179.5t-168.5 -65.5zM278 56q70 0 113 50.5t43 127.5q0 82 -44.5 131t-111.5 49t-111.5 -49t-44.5 -131q0 -77 43 -127.5t113 -50.5zM95 526l-26 36q-3 4 -3 9t7 10l161 115
q5 4 9 4q7 0 11 -7l26 -36q3 -5 3 -9q0 -5 -7 -10l-161 -115q-5 -4 -9 -4q-7 0 -11 7zM302 526l-26 36q-3 4 -3 9t7 10l161 115q5 4 9 4q7 0 11 -7l26 -36q3 -5 3 -9q0 -5 -7 -10l-161 -115q-5 -4 -9 -4q-7 0 -11 7z" />
    <glyph glyph-name="OE" unicode="&#x152;" horiz-adv-x="1154" 
d="M636 14v89q-47 -55 -113.5 -84t-139.5 -29q-89 0 -163.5 39.5t-123 123t-48.5 197.5q0 165 99.5 262.5t235.5 97.5q72 0 139 -30.5t114 -86.5v93q0 14 14 14h416q14 0 14 -14v-44q0 -14 -14 -14h-348v-224h282q14 0 14 -14v-44q0 -14 -14 -14h-282v-260h362q14 0 14 -14
v-44q0 -14 -14 -14h-430q-14 0 -14 14zM383 62q103 0 175 74.5t72 213.5q0 140 -72 214t-175 74t-175 -74t-72 -214q0 -139 72 -213.5t175 -74.5z" />
    <glyph glyph-name="oe" unicode="&#x153;" horiz-adv-x="944" 
d="M850 121l26 -26q5 -5 5 -11t-6 -12q-82 -82 -196 -82q-63 0 -116.5 26t-86.5 75q-31 -49 -83.5 -75t-114.5 -26q-101 0 -168.5 65.5t-67.5 179.5q0 111 66 178t170 67q132 0 197 -101q32 48 83 74.5t112 26.5q100 0 162 -67.5t68 -160.5v-26q0 -14 -14 -14h-372
q4 -72 50 -114t115 -42q90 0 147 65q6 6 12 6t12 -6zM278 56q70 0 113 50.5t43 127.5q0 82 -44.5 131t-111.5 49t-111.5 -49t-44.5 -131q0 -77 43 -127.5t113 -50.5zM514 274h306q-3 58 -44.5 99t-103.5 41q-66 0 -107.5 -38t-50.5 -102z" />
    <glyph glyph-name="Racute" unicode="&#x154;" horiz-adv-x="615" 
d="M86 14v672q0 14 14 14h245q101 0 159.5 -51.5t58.5 -130.5q0 -78 -56 -130t-145 -52h-12l223 -316q3 -4 3 -9q0 -11 -13 -11h-59q-16 0 -27 15l-225 321h-84v-322q0 -14 -14 -14h-54q-14 0 -14 14zM168 408h178q135 0 135 110t-135 110h-178v-220zM228 756l-26 36
q-3 4 -3 9t7 10l161 115q5 4 9 4q7 0 11 -7l26 -36q3 -5 3 -9q0 -5 -7 -10l-161 -115q-5 -4 -9 -4q-7 0 -11 7z" />
    <glyph glyph-name="racute" unicode="&#x155;" horiz-adv-x="481" 
d="M72 14v442q0 14 14 14h48q14 0 14 -14v-62q68 86 168 86q66 0 103.5 -36.5t37.5 -104.5q0 -10 -14 -10h-48q-12 0 -14 10q-6 40 -25 57.5t-56 17.5q-75 0 -126 -85q-26 -44 -26 -124v-191q0 -14 -14 -14h-48q-14 0 -14 14zM161 526l-26 36q-3 4 -3 9t7 10l161 115
q5 4 9 4q7 0 11 -7l26 -36q3 -5 3 -9q0 -5 -7 -10l-161 -115q-5 -4 -9 -4q-7 0 -11 7z" />
    <glyph glyph-name="uni0156" unicode="&#x156;" horiz-adv-x="615" 
d="M86 14v672q0 14 14 14h245q101 0 159.5 -51.5t58.5 -130.5q0 -78 -56 -130t-145 -52h-12l223 -316q3 -4 3 -9q0 -11 -13 -11h-59q-16 0 -27 15l-225 321h-84v-322q0 -14 -14 -14h-54q-14 0 -14 14zM168 408h178q135 0 135 110t-135 110h-178v-220zM275 -255l-23 15
q-13 8 -13 16q0 6 3 11q45 59 45 136q0 13 9 18q6 2 12 2h39q19 0 19 -20q0 -87 -64 -171q-9 -10 -16 -10q-5 0 -11 3z" />
    <glyph glyph-name="uni0157" unicode="&#x157;" horiz-adv-x="481" 
d="M72 14v442q0 14 14 14h48q14 0 14 -14v-62q68 86 168 86q66 0 103.5 -36.5t37.5 -104.5q0 -10 -14 -10h-48q-12 0 -14 10q-6 40 -25 57.5t-56 17.5q-75 0 -126 -85q-26 -44 -26 -124v-191q0 -14 -14 -14h-48q-14 0 -14 14zM56 -255l-23 15q-13 8 -13 16q0 6 3 11
q45 59 45 136q0 13 9 18q6 2 12 2h39q19 0 19 -20q0 -87 -64 -171q-9 -10 -16 -10q-5 0 -11 3z" />
    <glyph glyph-name="Rcaron" unicode="&#x158;" horiz-adv-x="615" 
d="M86 14v672q0 14 14 14h245q101 0 159.5 -51.5t58.5 -130.5q0 -78 -56 -130t-145 -52h-12l223 -316q3 -4 3 -9q0 -11 -13 -11h-59q-16 0 -27 15l-225 321h-84v-322q0 -14 -14 -14h-54q-14 0 -14 14zM168 408h178q135 0 135 110t-135 110h-178v-220zM151 887l26 36
q4 7 11 7q4 0 9 -4l110 -82l110 82q5 4 9 4q7 0 11 -7l26 -36q3 -5 3 -9q0 -5 -7 -10l-143 -108q-6 -4 -9 -4t-9 4l-143 108q-7 5 -7 10q0 4 3 9z" />
    <glyph glyph-name="rcaron" unicode="&#x159;" horiz-adv-x="481" 
d="M72 14v442q0 14 14 14h48q14 0 14 -14v-62q68 86 168 86q66 0 103.5 -36.5t37.5 -104.5q0 -10 -14 -10h-48q-12 0 -14 10q-6 40 -25 57.5t-56 17.5q-75 0 -126 -85q-26 -44 -26 -124v-191q0 -14 -14 -14h-48q-14 0 -14 14zM84 657l26 36q4 7 11 7q4 0 9 -4l110 -82
l110 82q5 4 9 4q7 0 11 -7l26 -36q3 -5 3 -9q0 -5 -7 -10l-143 -108q-6 -4 -9 -4t-9 4l-143 108q-7 5 -7 10q0 4 3 9z" />
    <glyph glyph-name="Sacute" unicode="&#x15a;" horiz-adv-x="571" 
d="M45 165l50 26q6 3 9 3q5 0 9 -7q34 -62 79 -93.5t112 -31.5q60 0 96.5 34.5t36.5 96.5q0 51 -41 82t-128 56q-82 23 -138 72.5t-56 123.5q0 83 59.5 133t153.5 50q129 0 209 -105q4 -5 4 -9q0 -5 -6 -10l-38 -31q-7 -5 -10 -5q-5 0 -10 6q-65 82 -149 82q-57 0 -94 -26.5
t-37 -75.5q0 -50 41.5 -82t115.5 -54q45 -14 79 -29t66.5 -38.5t49.5 -57t17 -76.5q0 -92 -63 -150.5t-162 -58.5q-89 0 -157 43t-100 112q-4 8 -4 12q0 5 6 8zM206 756l-26 36q-3 4 -3 9t7 10l161 115q5 4 9 4q7 0 11 -7l26 -36q3 -5 3 -9q0 -5 -7 -10l-161 -115
q-5 -4 -9 -4q-7 0 -11 7z" />
    <glyph glyph-name="sacute" unicode="&#x15b;" horiz-adv-x="453" 
d="M45 122l36 20q5 3 9 3q8 0 13 -7q31 -46 64 -64t80 -18q43 0 63 18.5t20 48.5q0 37 -29 56t-97 36q-143 36 -143 136q0 62 47 95.5t113 33.5q94 0 162 -69q4 -4 4 -10t-5 -11l-21 -24q-7 -7 -13 -7q-8 0 -15 6q-55 49 -115 49q-36 0 -58.5 -15.5t-22.5 -44.5
q0 -22 18.5 -38.5t39.5 -24.5t57 -18q73 -20 114.5 -52.5t41.5 -89.5q0 -59 -43 -100t-121 -41q-136 0 -205 107q-3 4 -3 11q0 9 9 14zM147 526l-26 36q-3 4 -3 9t7 10l161 115q5 4 9 4q7 0 11 -7l26 -36q3 -5 3 -9q0 -5 -7 -10l-161 -115q-5 -4 -9 -4q-7 0 -11 7z" />
    <glyph glyph-name="Scircumflex" unicode="&#x15c;" horiz-adv-x="571" 
d="M45 165l50 26q6 3 9 3q5 0 9 -7q34 -62 79 -93.5t112 -31.5q60 0 96.5 34.5t36.5 96.5q0 51 -41 82t-128 56q-82 23 -138 72.5t-56 123.5q0 83 59.5 133t153.5 50q129 0 209 -105q4 -5 4 -9q0 -5 -6 -10l-38 -31q-7 -5 -10 -5q-5 0 -10 6q-65 82 -149 82q-57 0 -94 -26.5
t-37 -75.5q0 -50 41.5 -82t115.5 -54q45 -14 79 -29t66.5 -38.5t49.5 -57t17 -76.5q0 -92 -63 -150.5t-162 -58.5q-89 0 -157 43t-100 112q-4 8 -4 12q0 5 6 8zM155 763l-26 36q-3 5 -3 9q0 5 7 10l143 108q6 4 9 4t9 -4l143 -108q7 -5 7 -10q0 -4 -3 -9l-26 -36
q-4 -7 -11 -7q-4 0 -9 4l-110 82l-110 -82q-5 -4 -9 -4q-7 0 -11 7z" />
    <glyph glyph-name="scircumflex" unicode="&#x15d;" horiz-adv-x="453" 
d="M45 122l36 20q5 3 9 3q8 0 13 -7q31 -46 64 -64t80 -18q43 0 63 18.5t20 48.5q0 37 -29 56t-97 36q-143 36 -143 136q0 62 47 95.5t113 33.5q94 0 162 -69q4 -4 4 -10t-5 -11l-21 -24q-7 -7 -13 -7q-8 0 -15 6q-55 49 -115 49q-36 0 -58.5 -15.5t-22.5 -44.5
q0 -22 18.5 -38.5t39.5 -24.5t57 -18q73 -20 114.5 -52.5t41.5 -89.5q0 -59 -43 -100t-121 -41q-136 0 -205 107q-3 4 -3 11q0 9 9 14zM96 533l-26 36q-3 5 -3 9q0 5 7 10l143 108q6 4 9 4t9 -4l143 -108q7 -5 7 -10q0 -4 -3 -9l-26 -36q-4 -7 -11 -7q-4 0 -9 4l-110 82
l-110 -82q-5 -4 -9 -4q-7 0 -11 7z" />
    <glyph glyph-name="Scedilla" unicode="&#x15e;" horiz-adv-x="571" 
d="M169 -170l7 39q1 11 14 11q3 0 28 -9t45 -9q29 0 44 15t15 39q0 29 -23.5 51t-63.5 30q-66 14 -116.5 53.5t-75.5 94.5q-4 8 -4 12q0 5 6 8l50 26q6 3 9 3q5 0 9 -7q34 -62 79 -93.5t112 -31.5q60 0 96.5 34.5t36.5 96.5q0 51 -41 82t-128 56q-82 23 -138 72.5t-56 123.5
q0 83 59.5 133t153.5 50q129 0 209 -105q4 -5 4 -9q0 -5 -6 -10l-38 -31q-7 -5 -10 -5q-5 0 -10 6q-65 82 -149 82q-57 0 -94 -26.5t-37 -75.5q0 -50 41.5 -82t115.5 -54q45 -14 79 -29t66.5 -38.5t49.5 -57t17 -76.5q0 -77 -46 -132t-122 -71q45 -35 45 -86t-37 -82.5
t-93 -31.5q-47 0 -95 15q-9 3 -9 11q0 2 1 8z" />
    <glyph glyph-name="scedilla" unicode="&#x15f;" horiz-adv-x="453" 
d="M114 -170l7 39q1 11 14 11q3 0 28 -9t45 -9q29 0 44 15t15 39q0 58 -85 80q-96 26 -143 101q-3 4 -3 11q0 9 9 14l36 20q5 3 9 3q8 0 13 -7q31 -46 64 -64t80 -18q43 0 63 18.5t20 48.5q0 37 -29 56t-97 36q-143 36 -143 136q0 62 47 95.5t113 33.5q94 0 162 -69
q4 -4 4 -10t-5 -11l-21 -24q-7 -7 -13 -7q-8 0 -15 6q-55 49 -115 49q-36 0 -58.5 -15.5t-22.5 -44.5q0 -22 18.5 -38.5t39.5 -24.5t57 -18q73 -20 114.5 -52.5t41.5 -89.5q0 -46 -28 -83t-79 -51q46 -34 46 -83q0 -58 -36 -88t-94 -30q-47 0 -95 15q-9 3 -9 11q0 2 1 8z
" />
    <glyph glyph-name="Scaron" unicode="&#x160;" horiz-adv-x="571" 
d="M45 165l50 26q6 3 9 3q5 0 9 -7q34 -62 79 -93.5t112 -31.5q60 0 96.5 34.5t36.5 96.5q0 51 -41 82t-128 56q-82 23 -138 72.5t-56 123.5q0 83 59.5 133t153.5 50q129 0 209 -105q4 -5 4 -9q0 -5 -6 -10l-38 -31q-7 -5 -10 -5q-5 0 -10 6q-65 82 -149 82q-57 0 -94 -26.5
t-37 -75.5q0 -50 41.5 -82t115.5 -54q45 -14 79 -29t66.5 -38.5t49.5 -57t17 -76.5q0 -92 -63 -150.5t-162 -58.5q-89 0 -157 43t-100 112q-4 8 -4 12q0 5 6 8zM132 907l26 36q4 7 11 7q4 0 9 -4l110 -82l110 82q5 4 9 4q7 0 11 -7l26 -36q3 -5 3 -9q0 -5 -7 -10l-143 -108
q-6 -4 -9 -4t-9 4l-143 108q-7 5 -7 10q0 4 3 9z" />
    <glyph glyph-name="scaron" unicode="&#x161;" horiz-adv-x="453" 
d="M45 122l36 20q5 3 9 3q8 0 13 -7q31 -46 64 -64t80 -18q43 0 63 18.5t20 48.5q0 37 -29 56t-97 36q-143 36 -143 136q0 62 47 95.5t113 33.5q94 0 162 -69q4 -4 4 -10t-5 -11l-21 -24q-7 -7 -13 -7q-8 0 -15 6q-55 49 -115 49q-36 0 -58.5 -15.5t-22.5 -44.5
q0 -22 18.5 -38.5t39.5 -24.5t57 -18q73 -20 114.5 -52.5t41.5 -89.5q0 -59 -43 -100t-121 -41q-136 0 -205 107q-3 4 -3 11q0 9 9 14zM69 657l26 36q4 7 11 7q4 0 9 -4l110 -82l110 82q5 4 9 4q7 0 11 -7l26 -36q3 -5 3 -9q0 -5 -7 -10l-143 -108q-6 -4 -9 -4t-9 4
l-143 108q-7 5 -7 10q0 4 3 9z" />
    <glyph glyph-name="uni0162" unicode="&#x162;" horiz-adv-x="592" 
d="M255 14v614h-209q-14 0 -14 14v44q0 14 14 14h500q14 0 14 -14v-44q0 -14 -14 -14h-209v-614q0 -14 -14 -14h-54q-14 0 -14 14zM242 -255l-23 15q-13 8 -13 16q0 6 3 11q45 59 45 136q0 13 9 18q6 2 12 2h39q19 0 19 -20q0 -87 -64 -171q-9 -10 -16 -10q-5 0 -11 3z" />
    <glyph glyph-name="uni0163" unicode="&#x163;" horiz-adv-x="358" 
d="M121 110v294h-87q-14 0 -14 14v38q0 14 14 14h87v148q0 14 14 14h48q14 0 14 -14v-148h119q14 0 14 -14v-38q0 -14 -14 -14h-119v-272q0 -76 61 -76q10 0 22 2.5t14 2.5q10 0 10 -13v-43q0 -9 -10 -10q-30 -5 -66 -5q-44 0 -75.5 32t-31.5 88zM165 -255l-23 15
q-13 8 -13 16q0 6 3 11q45 59 45 136q0 13 9 18q6 2 12 2h39q19 0 19 -20q0 -87 -64 -171q-9 -10 -16 -10q-5 0 -11 3z" />
    <glyph glyph-name="Tcaron" unicode="&#x164;" horiz-adv-x="592" 
d="M255 14v614h-209q-14 0 -14 14v44q0 14 14 14h500q14 0 14 -14v-44q0 -14 -14 -14h-209v-614q0 -14 -14 -14h-54q-14 0 -14 14zM140 887l26 36q4 7 11 7q4 0 9 -4l110 -82l110 82q5 4 9 4q7 0 11 -7l26 -36q3 -5 3 -9q0 -5 -7 -10l-143 -108q-6 -4 -9 -4t-9 4l-143 108
q-7 5 -7 10q0 4 3 9z" />
    <glyph glyph-name="tcaron" unicode="&#x165;" horiz-adv-x="628" 
d="M121 110v294h-87q-14 0 -14 14v38q0 14 14 14h87v148q0 14 14 14h48q14 0 14 -14v-148h119q14 0 14 -14v-38q0 -14 -14 -14h-119v-272q0 -76 61 -76q10 0 22 2.5t14 2.5q10 0 10 -13v-43q0 -9 -10 -10q-30 -5 -66 -5q-44 0 -75.5 32t-31.5 88zM459 490l-23 15
q-13 8 -13 16q0 7 3 11q51 68 51 148q0 14 9 18q6 2 12 2h39q19 0 19 -20q0 -91 -70 -183q-9 -10 -16 -10q-5 0 -11 3z" />
    <glyph glyph-name="Tbar" unicode="&#x166;" horiz-adv-x="592" 
d="M255 397v231h-209q-14 0 -14 14v44q0 14 14 14h500q14 0 14 -14v-44q0 -14 -14 -14h-209v-231h153q14 0 14 -14v-38q0 -14 -14 -14h-153v-317q0 -14 -14 -14h-54q-14 0 -14 14v317h-153q-14 0 -14 14v38q0 14 14 14h153z" />
    <glyph glyph-name="tbar" unicode="&#x167;" horiz-adv-x="358" 
d="M121 279v125h-87q-14 0 -14 14v38q0 14 14 14h87v148q0 14 14 14h48q14 0 14 -14v-148h119q14 0 14 -14v-38q0 -14 -14 -14h-119v-125h102q14 0 14 -14v-38q0 -14 -14 -14h-102v-81q0 -76 61 -76q10 0 22 2.5t14 2.5q10 0 10 -13v-43q0 -9 -10 -10q-30 -5 -66 -5
q-44 0 -75.5 32t-31.5 88v103h-70q-14 0 -14 14v38q0 14 14 14h70z" />
    <glyph glyph-name="Utilde" unicode="&#x168;" horiz-adv-x="694" 
d="M82 299v387q0 14 14 14h54q14 0 14 -14v-376q0 -248 183 -248t183 248v376q0 14 14 14h54q14 0 14 -14v-387q0 -151 -66.5 -230t-198.5 -79t-198.5 79t-66.5 230zM223 789l-41 21q-5 3 -5 8q0 3 2 9q38 82 110 82q40 0 75 -25.5t55 -25.5q29 0 49 45q4 7 9 7q4 0 8 -2
l41 -21q5 -3 5 -8q0 -3 -2 -9q-38 -82 -110 -82q-40 0 -75 25.5t-55 25.5q-29 0 -49 -45q-4 -7 -9 -7q-4 0 -8 2z" />
    <glyph glyph-name="utilde" unicode="&#x169;" horiz-adv-x="555" 
d="M78 157v299q0 14 14 14h48q14 0 14 -14v-287q0 -113 104 -113q32 0 68 14t58 36q23 23 23 54v296q0 14 14 14h48q14 0 14 -14v-442q0 -14 -14 -14h-48q-14 0 -14 14v32q-70 -56 -163 -56q-82 0 -124 43t-42 124zM154 559l-41 21q-5 3 -5 8q0 3 2 9q38 82 110 82
q40 0 75 -25.5t55 -25.5q29 0 49 45q3 7 9 7q4 0 8 -2l41 -21q5 -3 5 -8q0 -3 -2 -9q-38 -82 -110 -82q-40 0 -75 25.5t-55 25.5q-29 0 -49 -45q-3 -7 -9 -7q-4 0 -8 2z" />
    <glyph glyph-name="Umacron" unicode="&#x16a;" horiz-adv-x="694" 
d="M82 299v387q0 14 14 14h54q14 0 14 -14v-376q0 -248 183 -248t183 248v376q0 14 14 14h54q14 0 14 -14v-387q0 -151 -66.5 -230t-198.5 -79t-198.5 79t-66.5 230zM239 805v38q0 14 14 14h188q14 0 14 -14v-38q0 -14 -14 -14h-188q-14 0 -14 14z" />
    <glyph glyph-name="umacron" unicode="&#x16b;" horiz-adv-x="555" 
d="M78 157v299q0 14 14 14h48q14 0 14 -14v-287q0 -113 104 -113q32 0 68 14t58 36q23 23 23 54v296q0 14 14 14h48q14 0 14 -14v-442q0 -14 -14 -14h-48q-14 0 -14 14v32q-70 -56 -163 -56q-82 0 -124 43t-42 124zM169 575v38q0 14 14 14h188q14 0 14 -14v-38
q0 -14 -14 -14h-188q-14 0 -14 14z" />
    <glyph glyph-name="Ubreve" unicode="&#x16c;" horiz-adv-x="694" 
d="M82 299v387q0 14 14 14h54q14 0 14 -14v-376q0 -248 183 -248t183 248v376q0 14 14 14h54q14 0 14 -14v-387q0 -151 -66.5 -230t-198.5 -79t-198.5 79t-66.5 230zM246 904h35q14 0 14 -14q0 -63 52 -63t52 63q0 14 14 14h35q14 0 14 -14q0 -53 -31.5 -87t-83.5 -34
t-83.5 34t-31.5 87q0 14 14 14z" />
    <glyph glyph-name="ubreve" unicode="&#x16d;" horiz-adv-x="555" 
d="M78 157v299q0 14 14 14h48q14 0 14 -14v-287q0 -113 104 -113q32 0 68 14t58 36q23 23 23 54v296q0 14 14 14h48q14 0 14 -14v-442q0 -14 -14 -14h-48q-14 0 -14 14v32q-70 -56 -163 -56q-82 0 -124 43t-42 124zM176 674h35q14 0 14 -14q0 -63 52 -63t52 63q0 14 14 14
h35q14 0 14 -14q0 -53 -31.5 -87t-83.5 -34t-83.5 34t-31.5 87q0 14 14 14z" />
    <glyph glyph-name="Uring" unicode="&#x16e;" horiz-adv-x="694" 
d="M82 299v387q0 14 14 14h54q14 0 14 -14v-376q0 -248 183 -248t183 248v376q0 14 14 14h54q14 0 14 -14v-387q0 -151 -66.5 -230t-198.5 -79t-198.5 79t-66.5 230zM256 849q0 38 26 64.5t65 26.5t65 -26.5t26 -64.5t-26 -64.5t-65 -26.5t-65 26.5t-26 64.5zM347 804
q19 0 31 12.5t12 32.5t-12 32.5t-31 12.5t-31 -12.5t-12 -32.5t12 -32.5t31 -12.5z" />
    <glyph glyph-name="uring" unicode="&#x16f;" horiz-adv-x="555" 
d="M78 157v299q0 14 14 14h48q14 0 14 -14v-287q0 -113 104 -113q32 0 68 14t58 36q23 23 23 54v296q0 14 14 14h48q14 0 14 -14v-442q0 -14 -14 -14h-48q-14 0 -14 14v32q-70 -56 -163 -56q-82 0 -124 43t-42 124zM186 619q0 38 26 64.5t65 26.5t65 -26.5t26 -64.5
t-26 -64.5t-65 -26.5t-65 26.5t-26 64.5zM277 574q19 0 31 12.5t12 32.5t-12 32.5t-31 12.5t-31 -12.5t-12 -32.5t12 -32.5t31 -12.5z" />
    <glyph glyph-name="Uhungarumlaut" unicode="&#x170;" horiz-adv-x="694" 
d="M82 299v387q0 14 14 14h54q14 0 14 -14v-376q0 -248 183 -248t183 248v376q0 14 14 14h54q14 0 14 -14v-387q0 -151 -66.5 -230t-198.5 -79t-198.5 79t-66.5 230zM164 756l-26 36q-3 4 -3 9t7 10l161 115q5 4 9 4q7 0 11 -7l26 -36q3 -5 3 -9q0 -5 -7 -10l-161 -115
q-5 -4 -9 -4q-7 0 -11 7zM371 756l-26 36q-3 4 -3 9t7 10l161 115q5 4 9 4q7 0 11 -7l26 -36q3 -5 3 -9q0 -5 -7 -10l-161 -115q-5 -4 -9 -4q-7 0 -11 7z" />
    <glyph glyph-name="uhungarumlaut" unicode="&#x171;" horiz-adv-x="555" 
d="M78 157v299q0 14 14 14h48q14 0 14 -14v-287q0 -113 104 -113q32 0 68 14t58 36q23 23 23 54v296q0 14 14 14h48q14 0 14 -14v-442q0 -14 -14 -14h-48q-14 0 -14 14v32q-70 -56 -163 -56q-82 0 -124 43t-42 124zM94 526l-26 36q-3 4 -3 9t7 10l161 115q5 4 9 4q7 0 11 -7
l26 -36q3 -5 3 -9q0 -5 -7 -10l-161 -115q-5 -4 -9 -4q-7 0 -11 7zM301 526l-26 36q-3 4 -3 9t7 10l161 115q5 4 9 4q7 0 11 -7l26 -36q3 -5 3 -9q0 -5 -7 -10l-161 -115q-5 -4 -9 -4q-7 0 -11 7z" />
    <glyph glyph-name="Uogonek" unicode="&#x172;" horiz-adv-x="694" 
d="M476 -115l9 -32q1 -4 1 -6q0 -8 -7 -10q-42 -16 -79 -16q-44 0 -73.5 25t-29.5 66q0 46 31 79q-122 5 -184 84t-62 224v387q0 14 14 14h54q14 0 14 -14v-376q0 -248 183 -248t183 248v376q0 14 14 14h54q14 0 14 -14v-387q0 -248 -179 -299q-31 -9 -48.5 -28t-17.5 -44
q0 -20 13 -31.5t34 -11.5q18 0 32.5 4.5t18.5 4.5q9 0 11 -9z" />
    <glyph glyph-name="uogonek" unicode="&#x173;" horiz-adv-x="555" 
d="M517 -115l9 -32q1 -4 1 -6q0 -8 -7 -10q-42 -16 -79 -16q-44 0 -73.5 25t-29.5 66q0 69 69 106v28q-70 -56 -163 -56q-82 0 -124 43t-42 124v299q0 14 14 14h48q14 0 14 -14v-287q0 -113 104 -113q32 0 68 14t58 36q23 23 23 54v296q0 14 14 14h48q14 0 14 -14v-442
q0 -10 -9 -14q-66 -27 -66 -72q0 -20 13 -31.5t34 -11.5q18 0 32.5 4.5t18.5 4.5q10 0 11 -9z" />
    <glyph glyph-name="Wcircumflex" unicode="&#x174;" horiz-adv-x="870" 
d="M190 20l-180 660q0 20 20 20h42q9 0 13 -4.5t7 -15.5l145 -546l156 546q6 20 25 20h34q19 0 25 -20l156 -546l145 546q3 11 7 15.5t13 4.5h42q20 0 20 -20l-180 -660q-6 -20 -26 -20h-37q-19 0 -25 20l-157 544l-157 -544q-6 -20 -25 -20h-37q-20 0 -26 20zM305 763
l-26 36q-3 5 -3 9q0 5 7 10l143 108q6 4 9 4t9 -4l143 -108q7 -5 7 -10q0 -4 -3 -9l-26 -36q-4 -7 -11 -7q-4 0 -9 4l-110 82l-110 -82q-5 -4 -9 -4q-7 0 -11 7z" />
    <glyph glyph-name="wcircumflex" unicode="&#x175;" horiz-adv-x="694" 
d="M174 12l-155 444q0 14 14 14h49q11 0 16 -14l107 -315l108 315q5 14 16 14h36q11 0 16 -14l108 -315l107 315q5 14 16 14h49q14 0 14 -14l-155 -444q-4 -12 -14 -12h-29q-11 0 -16 12l-114 337l-114 -337q-5 -12 -16 -12h-29q-10 0 -14 12zM217 533l-26 36q-3 5 -3 9
q0 5 7 10l143 108q6 4 9 4t9 -4l143 -108q7 -5 7 -10q0 -4 -3 -9l-26 -36q-4 -7 -11 -7q-4 0 -9 4l-110 82l-110 -82q-5 -4 -9 -4q-7 0 -11 7z" />
    <glyph glyph-name="Ycircumflex" unicode="&#x176;" horiz-adv-x="519" 
d="M121 15l107 240l-221 421q-3 6 -3 11q0 13 14 13h55q17 0 25 -15l171 -338l153 338q6 15 23 15h55q10 0 10 -8q0 -3 -2 -7l-300 -671q-6 -14 -20 -14h-59q-10 0 -10 8q0 3 2 7zM135 763l-26 36q-3 5 -3 9q0 5 7 10l143 108q6 4 9 4t9 -4l143 -108q7 -5 7 -10q0 -4 -3 -9
l-26 -36q-4 -7 -11 -7q-4 0 -9 4l-110 82l-110 -82q-5 -4 -9 -4q-7 0 -11 7z" />
    <glyph glyph-name="ycircumflex" unicode="&#x177;" horiz-adv-x="489" 
d="M117 -213l90 224q-1 1 -1 3l-186 442q0 14 14 14h54q13 0 18 -14l139 -349l140 349q5 14 18 14h50q14 0 14 -14l-270 -672q-5 -14 -19 -14h-53q-10 0 -10 8q0 3 2 9zM114 533l-26 36q-3 5 -3 9q0 5 7 10l143 108q6 4 9 4t9 -4l143 -108q7 -5 7 -10q0 -4 -3 -9l-26 -36
q-4 -7 -11 -7q-4 0 -9 4l-110 82l-110 -82q-5 -4 -9 -4q-7 0 -11 7z" />
    <glyph glyph-name="Ydieresis" unicode="&#x178;" horiz-adv-x="519" 
d="M121 15l107 240l-221 421q-3 6 -3 11q0 13 14 13h55q17 0 25 -15l171 -338l153 338q6 15 23 15h55q10 0 10 -8q0 -3 -2 -7l-300 -671q-6 -14 -20 -14h-59q-10 0 -10 8q0 3 2 7zM128 814q0 21 14.5 35.5t35.5 14.5t35.5 -14.5t14.5 -35.5t-14.5 -35.5t-35.5 -14.5
t-35.5 14.5t-14.5 35.5zM298 814q0 21 14.5 35.5t35.5 14.5t35.5 -14.5t14.5 -35.5t-14.5 -35.5t-35.5 -14.5t-35.5 14.5t-14.5 35.5z" />
    <glyph glyph-name="Zacute" unicode="&#x179;" horiz-adv-x="556" 
d="M31 20v32q0 13 11 30l359 546h-338q-14 0 -14 14v44q0 14 14 14h421q14 0 14 -14v-26q0 -18 -14 -40l-355 -548h375q14 0 14 -14v-44q0 -14 -14 -14h-453q-20 0 -20 20zM189 756l-26 36q-3 4 -3 9t7 10l161 115q5 4 9 4q7 0 11 -7l26 -36q3 -5 3 -9q0 -5 -7 -10
l-161 -115q-5 -4 -9 -4q-7 0 -11 7z" />
    <glyph glyph-name="zacute" unicode="&#x17a;" horiz-adv-x="432" 
d="M30 14v44q0 13 8 23l260 323h-242q-14 0 -14 14v38q0 14 14 14h312q14 0 14 -14v-37q0 -13 -10 -30l-260 -323h274q14 0 14 -14v-38q0 -14 -14 -14h-342q-14 0 -14 14zM133 526l-26 36q-3 4 -3 9t7 10l161 115q5 4 9 4q7 0 11 -7l26 -36q3 -5 3 -9q0 -5 -7 -10l-161 -115
q-5 -4 -9 -4q-7 0 -11 7z" />
    <glyph glyph-name="Zdotaccent" unicode="&#x17b;" horiz-adv-x="556" 
d="M31 20v32q0 13 11 30l359 546h-338q-14 0 -14 14v44q0 14 14 14h421q14 0 14 -14v-26q0 -18 -14 -40l-355 -548h375q14 0 14 -14v-44q0 -14 -14 -14h-453q-20 0 -20 20zM218 844q0 23 16.5 39.5t39.5 16.5t39.5 -16.5t16.5 -39.5t-16.5 -39.5t-39.5 -16.5t-39.5 16.5
t-16.5 39.5z" />
    <glyph glyph-name="zdotaccent" unicode="&#x17c;" horiz-adv-x="432" 
d="M30 14v44q0 13 8 23l260 323h-242q-14 0 -14 14v38q0 14 14 14h312q14 0 14 -14v-37q0 -13 -10 -30l-260 -323h274q14 0 14 -14v-38q0 -14 -14 -14h-342q-14 0 -14 14zM158 614q0 23 16.5 39.5t39.5 16.5t39.5 -16.5t16.5 -39.5t-16.5 -39.5t-39.5 -16.5t-39.5 16.5
t-16.5 39.5z" />
    <glyph glyph-name="Zcaron" unicode="&#x17d;" horiz-adv-x="556" 
d="M31 20v32q0 13 11 30l359 546h-338q-14 0 -14 14v44q0 14 14 14h421q14 0 14 -14v-26q0 -18 -14 -40l-355 -548h375q14 0 14 -14v-44q0 -14 -14 -14h-453q-20 0 -20 20zM118 907l26 36q4 7 11 7q4 0 9 -4l110 -82l110 82q5 4 9 4q7 0 11 -7l26 -36q3 -5 3 -9q0 -5 -7 -10
l-143 -108q-6 -4 -9 -4t-9 4l-143 108q-7 5 -7 10q0 4 3 9z" />
    <glyph glyph-name="zcaron" unicode="&#x17e;" horiz-adv-x="432" 
d="M30 14v44q0 13 8 23l260 323h-242q-14 0 -14 14v38q0 14 14 14h312q14 0 14 -14v-37q0 -13 -10 -30l-260 -323h274q14 0 14 -14v-38q0 -14 -14 -14h-342q-14 0 -14 14zM58 657l26 36q4 7 11 7q4 0 9 -4l110 -82l110 82q5 4 9 4q7 0 11 -7l26 -36q3 -5 3 -9q0 -5 -7 -10
l-143 -108q-6 -4 -9 -4t-9 4l-143 108q-7 5 -7 10q0 4 3 9z" />
    <glyph glyph-name="longs" unicode="&#x17f;" horiz-adv-x="343" 
d="M110 14v390h-77q-14 0 -14 14v38q0 14 14 14h77v109q0 67 43 109t109 42q30 0 56 -9q10 -3 10 -15v-38q0 -13 -10 -13q-2 0 -19 4.5t-37 4.5q-36 0 -56 -26.5t-20 -73.5v-550q0 -14 -14 -14h-48q-14 0 -14 14z" />
    <glyph glyph-name="uni018E" unicode="&#x18e;" horiz-adv-x="594" 
d="M508 686v-672q0 -14 -14 -14h-416q-14 0 -14 14v44q0 14 14 14h348v224h-282q-14 0 -14 14v44q0 14 14 14h282v260h-362q-14 0 -14 14v44q0 14 14 14h430q14 0 14 -14z" />
    <glyph glyph-name="uni018F" unicode="&#x18f;" horiz-adv-x="552" 
d="M94 349l-26 26q-5 5 -5 11t6 12q82 82 196 82q102 0 173.5 -66t71.5 -179q0 -109 -68 -177t-168 -68t-162 67.5t-68 160.5v26q0 14 14 14h372q-4 72 -50 114t-115 42q-90 0 -147 -65q-6 -6 -12 -6t-12 6zM430 196h-306q3 -58 44.5 -99t103.5 -41q66 0 107.5 38t50.5 102z
" />
    <glyph glyph-name="florin" unicode="&#x192;" horiz-adv-x="379" 
d="M-16 -212v38q0 13 10 13q2 0 23.5 -6.5t40.5 -6.5q78 0 78 89v489h-77q-14 0 -14 14v38q0 14 14 14h77v109q0 71 42.5 111t109.5 40q40 0 66 -13q10 -5 10 -15v-38q0 -13 -10 -13q-2 0 -23.5 6.5t-40.5 6.5q-78 0 -78 -89v-105h118q14 0 14 -14v-38q0 -14 -14 -14h-118
v-493q0 -71 -42.5 -111t-109.5 -40q-29 0 -66 13q-10 3 -10 15z" />
    <glyph glyph-name="uni01B5" unicode="&#x1b5;" horiz-adv-x="556" 
d="M31 20v32q0 13 11 30l161 245h-124q-14 0 -14 14v38q0 14 14 14h167l155 235h-338q-14 0 -14 14v44q0 14 14 14h421q14 0 14 -14v-26q0 -18 -14 -40l-147 -227h130q14 0 14 -14v-38q0 -14 -14 -14h-173l-165 -255h375q14 0 14 -14v-44q0 -14 -14 -14h-453q-20 0 -20 20z
" />
    <glyph glyph-name="uni01B6" unicode="&#x1b6;" horiz-adv-x="432" 
d="M30 14v44q0 13 8 23l104 130h-69q-14 0 -14 14v38q0 14 14 14h122l103 127h-242q-14 0 -14 14v38q0 14 14 14h312q14 0 14 -14v-37q0 -13 -10 -30l-90 -112h70q14 0 14 -14v-38q0 -14 -14 -14h-123l-117 -145h274q14 0 14 -14v-38q0 -14 -14 -14h-342q-14 0 -14 14z" />
    <glyph glyph-name="Aringacute" unicode="&#x1fa;" horiz-adv-x="598" 
d="M8 14l251 670q5 16 23 16h34q18 0 23 -16l251 -670q0 -14 -14 -14h-52q-13 0 -18 14l-71 193h-272l-71 -193q-5 -14 -18 -14h-52q-14 0 -14 14zM190 279h218l-109 299zM208 849q0 38 26 64.5t65 26.5t65 -26.5t26 -64.5t-26 -64.5t-65 -26.5t-65 26.5t-26 64.5zM299 804
q19 0 31 12.5t12 32.5t-12 32.5t-31 12.5t-31 -12.5t-12 -32.5t12 -32.5t31 -12.5zM219 956l-26 36q-3 4 -3 9t7 10l161 115q5 4 9 4q7 0 11 -7l26 -36q3 -5 3 -9q0 -5 -7 -10l-161 -115q-5 -4 -9 -4q-7 0 -11 7z" />
    <glyph glyph-name="aringacute" unicode="&#x1fb;" horiz-adv-x="579" 
d="M441 14l-14 38q-60 -62 -155 -62q-101 0 -165.5 64.5t-64.5 180.5q0 112 67 178.5t173 66.5q47 0 88 -17.5t61 -42.5v36q0 14 14 14h48q14 0 14 -14v-442q0 -14 -14 -14h-32q-15 0 -20 14zM431 200v84q0 46 -30 79q-48 51 -115 51q-73 0 -118.5 -48.5t-45.5 -131.5
q0 -81 44.5 -129.5t117.5 -48.5q76 0 123 61q24 29 24 83zM198 619q0 38 26 64.5t65 26.5t65 -26.5t26 -64.5t-26 -64.5t-65 -26.5t-65 26.5t-26 64.5zM289 574q19 0 31 12.5t12 32.5t-12 32.5t-31 12.5t-31 -12.5t-12 -32.5t12 -32.5t31 -12.5zM210 726l-26 36q-3 4 -3 9
t7 10l161 115q5 4 9 4q7 0 11 -7l26 -36q3 -5 3 -9q0 -5 -7 -10l-161 -115q-5 -4 -9 -4q-7 0 -11 7z" />
    <glyph glyph-name="AEacute" unicode="&#x1fc;" horiz-adv-x="903" 
d="M10 20l247 660q8 20 25 20h543q14 0 14 -14v-44q0 -14 -14 -14h-348v-224h282q14 0 14 -14v-44q0 -14 -14 -14h-282v-260h362q14 0 14 -14v-44q0 -14 -14 -14h-430q-14 0 -14 14v193h-232l-68 -187q-8 -20 -26 -20h-39q-20 0 -20 20zM190 279h205v349h-78zM473 756
l-26 36q-3 4 -3 9t7 10l161 115q5 4 9 4q7 0 11 -7l26 -36q3 -5 3 -9q0 -5 -7 -10l-161 -115q-5 -4 -9 -4q-7 0 -11 7z" />
    <glyph glyph-name="aeacute" unicode="&#x1fd;" horiz-adv-x="941" 
d="M441 14l-14 38q-60 -62 -155 -62q-101 0 -165.5 64.5t-64.5 180.5q0 112 67 178.5t173 66.5q47 0 88 -17.5t61 -42.5v36q0 14 14 14h48q14 0 14 -14v-36q66 60 160 60q100 0 162 -67.5t68 -160.5v-26q0 -14 -14 -14h-372q4 -72 50 -114t115 -42q90 0 147 65q6 6 12 6
t12 -6l26 -26q5 -5 5 -11t-6 -12q-82 -82 -196 -82q-101 0 -169 62v-38q0 -14 -14 -14h-32q-15 0 -20 14zM431 200v84q0 46 -30 79q-48 51 -115 51q-73 0 -118.5 -48.5t-45.5 -131.5q0 -81 44.5 -129.5t117.5 -48.5q76 0 123 61q24 29 24 83zM511 274h306q-3 58 -44 99
t-104 41q-66 0 -107.5 -38t-50.5 -102zM398 526l-26 36q-3 4 -3 9t7 10l161 115q5 4 9 4q7 0 11 -7l26 -36q3 -5 3 -9q0 -5 -7 -10l-161 -115q-5 -4 -9 -4q-7 0 -11 7z" />
    <glyph glyph-name="circumflex" unicode="&#x2c6;" horiz-adv-x="438" 
d="M89 533l-26 36q-3 5 -3 9q0 5 7 10l143 108q6 4 9 4t9 -4l143 -108q7 -5 7 -10q0 -4 -3 -9l-26 -36q-4 -7 -11 -7q-4 0 -9 4l-110 82l-110 -82q-5 -4 -9 -4q-7 0 -11 7z" />
    <glyph glyph-name="caron" unicode="&#x2c7;" horiz-adv-x="438" 
d="M63 657l26 36q4 7 11 7q4 0 9 -4l110 -82l110 82q5 4 9 4q7 0 11 -7l26 -36q3 -5 3 -9q0 -5 -7 -10l-143 -108q-6 -4 -9 -4t-9 4l-143 108q-7 5 -7 10q0 4 3 9z" />
    <glyph glyph-name="breve" unicode="&#x2d8;" horiz-adv-x="330" 
d="M64 674h35q14 0 14 -14q0 -63 52 -63t52 63q0 14 14 14h35q14 0 14 -14q0 -53 -31.5 -87t-83.5 -34t-83.5 34t-31.5 87q0 14 14 14z" />
    <glyph glyph-name="dotaccent" unicode="&#x2d9;" horiz-adv-x="220" 
d="M54 614q0 23 16.5 39.5t39.5 16.5t39.5 -16.5t16.5 -39.5t-16.5 -39.5t-39.5 -16.5t-39.5 16.5t-16.5 39.5z" />
    <glyph glyph-name="ring" unicode="&#x2da;" horiz-adv-x="282" 
d="M50 619q0 38 26 64.5t65 26.5t65 -26.5t26 -64.5t-26 -64.5t-65 -26.5t-65 26.5t-26 64.5zM141 574q19 0 31 12.5t12 32.5t-12 32.5t-31 12.5t-31 -12.5t-12 -32.5t12 -32.5t31 -12.5z" />
    <glyph glyph-name="ogonek" unicode="&#x2db;" horiz-adv-x="268" 
d="M251 -115l9 -32q1 -4 1 -6q0 -8 -7 -10q-42 -16 -79 -16q-44 0 -73.5 25t-29.5 66q0 72 78 111q8 3 17 3q7 0 16 -3l23 -9q8 -3 8 -8q0 -3 -6 -6q-66 -27 -66 -72q0 -20 13 -31.5t34 -11.5q18 0 32.5 4.5t18.5 4.5q10 0 11 -9z" />
    <glyph glyph-name="tilde" unicode="&#x2dc;" horiz-adv-x="498" 
d="M118 559l-41 21q-5 3 -5 8q0 3 2 9q38 82 110 82q40 0 75 -25.5t55 -25.5q29 0 49 45q3 7 9 7q4 0 8 -2l41 -21q5 -3 5 -8q0 -3 -2 -9q-38 -82 -110 -82q-40 0 -75 25.5t-55 25.5q-29 0 -49 -45q-3 -7 -9 -7q-4 0 -8 2z" />
    <glyph glyph-name="hungarumlaut" unicode="&#x2dd;" horiz-adv-x="524" 
d="M79 526l-26 36q-3 4 -3 9t7 10l161 115q5 4 9 4q7 0 11 -7l26 -36q3 -5 3 -9q0 -5 -7 -10l-161 -115q-5 -4 -9 -4q-7 0 -11 7zM286 526l-26 36q-3 4 -3 9t7 10l161 115q5 4 9 4q7 0 11 -7l26 -36q3 -5 3 -9q0 -5 -7 -10l-161 -115q-5 -4 -9 -4q-7 0 -11 7z" />
    <glyph glyph-name="pi" unicode="&#x3c0;" horiz-adv-x="598" 
d="M132 14v390h-86q-14 0 -14 14v38q0 14 14 14h506q14 0 14 -14v-38q0 -14 -14 -14h-85v-298q0 -50 36 -50q13 0 22 3t13 3q10 0 10 -11v-36q0 -11 -10 -15q-23 -10 -46 -10q-47 0 -74 25.5t-27 75.5v313h-183v-390q0 -14 -14 -14h-48q-14 0 -14 14z" />
    <glyph glyph-name="endash" unicode="&#x2013;" horiz-adv-x="520" 
d="M38 324v42q0 14 14 14h412q14 0 14 -14v-42q0 -14 -14 -14h-412q-14 0 -14 14z" />
    <glyph glyph-name="emdash" unicode="&#x2014;" horiz-adv-x="810" 
d="M38 324v42q0 14 14 14h702q14 0 14 -14v-42q0 -14 -14 -14h-702q-14 0 -14 14z" />
    <glyph glyph-name="quoteleft" unicode="&#x2018;" horiz-adv-x="257" 
d="M130 487h-39q-19 0 -19 20q0 91 70 183q9 10 16 10q5 0 11 -3l23 -15q13 -8 13 -16q0 -6 -3 -11q-51 -68 -51 -148q0 -13 -9 -18q-6 -2 -12 -2z" />
    <glyph glyph-name="quoteright" unicode="&#x2019;" horiz-adv-x="257" 
d="M88 490l-23 15q-13 8 -13 16q0 7 3 11q51 68 51 148q0 14 9 18q6 2 12 2h39q19 0 19 -20q0 -91 -70 -183q-9 -10 -16 -10q-5 0 -11 3z" />
    <glyph glyph-name="quotesinglbase" unicode="&#x201a;" horiz-adv-x="257" 
d="M88 -110l-23 15q-13 8 -13 16q0 7 3 11q51 68 51 148q0 14 9 18q6 2 12 2h39q19 0 19 -20q0 -91 -70 -183q-9 -10 -16 -10q-5 0 -11 3z" />
    <glyph glyph-name="quotedblleft" unicode="&#x201c;" horiz-adv-x="399" 
d="M130 487h-39q-19 0 -19 20q0 91 70 183q9 10 16 10q5 0 11 -3l23 -15q13 -8 13 -16q0 -6 -3 -11q-51 -68 -51 -148q0 -13 -9 -18q-6 -2 -12 -2zM272 487h-39q-19 0 -19 20q0 91 70 183q9 10 16 10q5 0 11 -3l23 -15q13 -8 13 -16q0 -6 -3 -11q-51 -68 -51 -148
q0 -13 -9 -18q-6 -2 -12 -2z" />
    <glyph glyph-name="quotedblright" unicode="&#x201d;" horiz-adv-x="399" 
d="M230 490l-23 15q-13 8 -13 16q0 7 3 11q51 68 51 148q0 14 9 18q6 2 12 2h39q19 0 19 -20q0 -91 -70 -183q-9 -10 -16 -10q-5 0 -11 3zM88 490l-23 15q-13 8 -13 16q0 7 3 11q51 68 51 148q0 14 9 18q6 2 12 2h39q19 0 19 -20q0 -91 -70 -183q-9 -10 -16 -10q-5 0 -11 3z
" />
    <glyph glyph-name="quotedblbase" unicode="&#x201e;" horiz-adv-x="399" 
d="M230 -110l-23 15q-13 8 -13 16q0 7 3 11q51 68 51 148q0 14 9 18q6 2 12 2h39q19 0 19 -20q0 -91 -70 -183q-9 -10 -16 -10q-5 0 -11 3zM88 -110l-23 15q-13 8 -13 16q0 7 3 11q51 68 51 148q0 14 9 18q6 2 12 2h39q19 0 19 -20q0 -91 -70 -183q-9 -10 -16 -10
q-5 0 -11 3z" />
    <glyph glyph-name="dagger" unicode="&#x2020;" horiz-adv-x="538" 
d="M228 -216v606h-160q-14 0 -14 14v42q0 14 14 14h160v226q0 14 14 14h54q14 0 14 -14v-226h160q14 0 14 -14v-42q0 -14 -14 -14h-160v-606q0 -14 -14 -14h-54q-14 0 -14 14z" />
    <glyph glyph-name="daggerdbl" unicode="&#x2021;" horiz-adv-x="538" 
d="M228 -216v396h-160q-14 0 -14 14v42q0 14 14 14h160v140h-160q-14 0 -14 14v42q0 14 14 14h160v226q0 14 14 14h54q14 0 14 -14v-226h160q14 0 14 -14v-42q0 -14 -14 -14h-160v-140h160q14 0 14 -14v-42q0 -14 -14 -14h-160v-396q0 -14 -14 -14h-54q-14 0 -14 14z" />
    <glyph glyph-name="bullet" unicode="&#x2022;" horiz-adv-x="322" 
d="M64 350q0 40 28 68.5t69 28.5t69 -28.5t28 -68.5t-28 -68.5t-69 -28.5t-69 28.5t-28 68.5z" />
    <glyph glyph-name="ellipsis" unicode="&#x2026;" horiz-adv-x="618" 
d="M52 50q0 24 16.5 41t39.5 17q24 0 41 -17t17 -41q0 -23 -17 -39.5t-41 -16.5q-23 0 -39.5 16.5t-16.5 39.5zM252 50q0 24 16.5 41t39.5 17q24 0 41 -17t17 -41q0 -23 -17 -39.5t-41 -16.5q-23 0 -39.5 16.5t-16.5 39.5zM452 50q0 24 16.5 41t39.5 17q24 0 41 -17t17 -41
q0 -23 -17 -39.5t-41 -16.5q-23 0 -39.5 16.5t-16.5 39.5z" />
    <glyph glyph-name="perthousand" unicode="&#x2030;" horiz-adv-x="1170" 
d="M977 -10q-71 0 -116 44t-45 123q0 76 44 121.5t117 45.5t117 -45.5t44 -121.5q0 -79 -45 -123t-116 -44zM977 50q42 0 67.5 29t25.5 77t-26.5 78t-66.5 30t-66.5 -30t-26.5 -78t25.5 -77t67.5 -29zM606 -10q-71 0 -116 44t-45 123q0 76 44 121.5t117 45.5t117 -45.5
t44 -121.5q0 -79 -45 -123t-116 -44zM606 50q42 0 67.5 29t25.5 77t-26.5 78t-66.5 30t-66.5 -30t-26.5 -78t25.5 -77t67.5 -29zM193 376q-71 0 -116 44t-45 123q0 76 44 121.5t117 45.5t117 -45.5t44 -121.5q0 -79 -45 -123t-116 -44zM193 436q42 0 67.5 29t25.5 77
t-26.5 78t-66.5 30t-66.5 -30t-26.5 -78t25.5 -77t67.5 -29zM123 20l474 665q11 15 25 15h45q12 0 12 -11q0 -5 -3 -9l-474 -665q-11 -15 -25 -15h-45q-12 0 -12 11q0 5 3 9z" />
    <glyph glyph-name="guilsinglleft" unicode="&#x2039;" horiz-adv-x="373" 
d="M50 306v48q0 13 10 21l242 188q4 3 9 3q10 0 10 -11v-61q0 -13 -9 -20l-185 -144l185 -144q9 -7 9 -20v-61q0 -11 -10 -11q-5 0 -9 3l-242 188q-10 8 -10 21z" />
    <glyph glyph-name="guilsinglright" unicode="&#x203a;" horiz-adv-x="373" 
d="M52 105v61q0 13 9 20l185 144l-185 144q-9 7 -9 20v61q0 11 10 11q4 0 9 -3l242 -188q10 -8 10 -21v-48q0 -13 -10 -21l-242 -188q-5 -3 -9 -3q-10 0 -10 11z" />
    <glyph glyph-name="fraction" unicode="&#x2044;" horiz-adv-x="581" 
d="M14 20l474 665q10 15 25 15h45q12 0 12 -11q0 -5 -3 -9l-474 -665q-11 -15 -25 -15h-45q-12 0 -12 11q0 5 3 9z" />
    <glyph glyph-name="zerosuperior" unicode="&#x2070;" horiz-adv-x="346" 
d="M173 367q-61 0 -95 45t-34 124q0 80 36 124.5t93 44.5t93 -44.5t36 -124.5q0 -79 -34.5 -124t-94.5 -45zM173 419q32 0 52 29.5t20 87.5q0 56 -19 86.5t-53 30.5t-53 -30.5t-19 -86.5q0 -58 20 -87.5t52 -29.5z" />
    <glyph glyph-name="foursuperior" unicode="&#x2074;" horiz-adv-x="312" 
d="M32 450v28q0 9 5 19l107 194q5 9 15 9h43q10 0 5 -11l-112 -201h85v90q0 14 14 14h29q14 0 14 -14v-90h23q14 0 14 -14v-24q0 -14 -14 -14h-23v-50q0 -14 -14 -14h-29q-14 0 -14 14v50h-134q-14 0 -14 14z" />
    <glyph glyph-name="fivesuperior" unicode="&#x2075;" horiz-adv-x="306" 
d="M56 451l29 14q12 6 16 -6q6 -14 24 -27t39 -13q24 0 39 15.5t15 41.5q0 28 -15 42.5t-39 14.5q-31 0 -52 -21q-8 -8 -17 -4l-26 11q-8 3 -10 6t-1 13l22 149q3 13 15 13h149q14 0 14 -14v-24q0 -14 -14 -14h-116l-16 -82q28 19 62 19q43 0 71.5 -27.5t28.5 -81.5
q0 -48 -31.5 -78.5t-79.5 -30.5q-40 0 -69.5 21t-42.5 48q-5 11 5 15z" />
    <glyph glyph-name="sixsuperior" unicode="&#x2076;" horiz-adv-x="326" 
d="M263 656l-20 -28q-6 -8 -13 -1q-29 26 -58 26q-26 0 -43 -22t-22 -60q26 22 64 22q46 0 75 -31t29 -82q0 -47 -33.5 -80t-80.5 -33q-52 0 -85.5 39t-33.5 110q0 80 36.5 134.5t95.5 54.5q52 0 89 -37q5 -5 0 -12zM101 488v-14q0 -26 18.5 -42.5t42.5 -16.5t40.5 17.5
t16.5 47.5t-16.5 47.5t-40.5 17.5q-25 0 -43 -16t-18 -41z" />
    <glyph glyph-name="sevensuperior" unicode="&#x2077;" horiz-adv-x="320" 
d="M108 384l114 264h-130q-14 0 -14 14v24q0 14 14 14h186q14 0 14 -14v-12q0 -9 -5 -20l-117 -271q-4 -11 -17 -11h-39q-11 0 -6 12z" />
    <glyph glyph-name="eightsuperior" unicode="&#x2078;" horiz-adv-x="302" 
d="M87 555q-31 28 -31 64q0 39 27.5 62.5t67.5 23.5t67.5 -24t27.5 -62q0 -36 -31 -64q48 -28 48 -85q0 -44 -32.5 -73.5t-79.5 -29.5t-79.5 29.5t-32.5 73.5q0 57 48 85zM151 417q22 0 37 14.5t15 41.5q0 26 -15 40.5t-37 14.5t-37 -14.5t-15 -40.5q0 -27 14.5 -41.5
t37.5 -14.5zM111 618q0 -19 12 -30.5t28 -11.5t28 11.5t12 30.5t-11.5 30.5t-28.5 11.5t-28.5 -11.5t-11.5 -30.5z" />
    <glyph glyph-name="ninesuperior" unicode="&#x2079;" horiz-adv-x="299" 
d="M52 420l23 25q8 6 13 1q27 -27 61 -27q28 0 43.5 22.5t17.5 59.5q-24 -21 -61 -21q-47 0 -77 30.5t-30 81.5q0 47 33.5 80t80.5 33q119 0 119 -143q0 -89 -32.5 -142t-93.5 -53q-56 0 -97 41q-6 6 0 12zM216 584v17q0 26 -17.5 41t-41.5 15q-26 0 -42.5 -17t-16.5 -48
q0 -30 16.5 -47.5t40.5 -17.5q25 0 43 16t18 41z" />
    <glyph glyph-name="zeroinferior" unicode="&#x2080;" horiz-adv-x="346" 
d="M173 -235q-61 0 -95 45t-34 124q0 80 36 124.5t93 44.5t93 -44.5t36 -124.5q0 -79 -34.5 -124t-94.5 -45zM173 -183q32 0 52 29.5t20 87.5q0 56 -19 86.5t-53 30.5t-53 -30.5t-19 -86.5q0 -58 20 -87.5t52 -29.5z" />
    <glyph glyph-name="oneinferior" unicode="&#x2081;" horiz-adv-x="274" 
d="M55 -216v24q0 14 13 14h49v208l-39 -37q-3 -3 -7 -3q-5 0 -10 5l-17 17q-5 5 -5 10t6 11l57 50q16 15 38 15h18q16 0 16 -16v-260h48q14 0 14 -14v-24q0 -14 -14 -14h-154q-13 0 -13 14z" />
    <glyph glyph-name="twoinferior" unicode="&#x2082;" horiz-adv-x="315" 
d="M51 -216v27q0 10 6 16l114 105q34 31 34 70q0 22 -14 35.5t-37 13.5q-39 0 -61 -53q-1 -4 -4 -4q-2 0 -6 2l-36 18q-3 2 -3 4l1 4q12 33 40.5 57t68.5 24q50 0 79 -26t29 -68q0 -34 -15 -61t-49 -59l-72 -67h129q14 0 14 -14v-24q0 -14 -14 -14h-190q-14 0 -14 14z" />
    <glyph glyph-name="threeinferior" unicode="&#x2083;" horiz-adv-x="310" 
d="M44 -154l38 23q4 2 5 2q3 0 5 -3q13 -26 27.5 -38.5t39.5 -12.5q23 0 35.5 15t12.5 41q0 27 -17 43t-49 16h-15q-14 0 -14 14v16q0 14 9 23l59 65h-115q-10 0 -10 10v28q0 10 10 10h178q10 0 10 -9v-25q0 -5 -10 -17l-62 -68q84 -21 84 -107q0 -47 -31 -77t-78 -30
q-78 0 -113 71q-2 4 -2 6t3 4z" />
    <glyph glyph-name="fourinferior" unicode="&#x2084;" horiz-adv-x="312" 
d="M32 -152v28q0 9 5 19l107 194q5 9 15 9h43q10 0 5 -11l-112 -201h85v90q0 14 14 14h29q14 0 14 -14v-90h23q14 0 14 -14v-24q0 -14 -14 -14h-23v-50q0 -14 -14 -14h-29q-14 0 -14 14v50h-134q-14 0 -14 14z" />
    <glyph glyph-name="fiveinferior" unicode="&#x2085;" horiz-adv-x="306" 
d="M56 -151l29 14q12 6 16 -6q6 -14 24 -27t39 -13q24 0 39 15.5t15 41.5q0 28 -15 42.5t-39 14.5q-31 0 -52 -21q-8 -8 -17 -4l-26 11q-8 3 -10 6t-1 13l22 149q3 13 15 13h149q14 0 14 -14v-24q0 -14 -14 -14h-116l-16 -82q28 19 62 19q43 0 71.5 -27.5t28.5 -81.5
q0 -48 -31.5 -78.5t-79.5 -30.5q-40 0 -69.5 21t-42.5 48q-5 11 5 15z" />
    <glyph glyph-name="sixinferior" unicode="&#x2086;" horiz-adv-x="326" 
d="M263 54l-20 -28q-6 -8 -13 -1q-29 26 -58 26q-26 0 -43 -22t-22 -60q26 22 64 22q46 0 75 -31t29 -82q0 -47 -33.5 -80t-80.5 -33q-52 0 -85.5 39t-33.5 110q0 80 36.5 134.5t95.5 54.5q52 0 89 -37q5 -4 0 -12zM101 -114v-14q0 -26 18.5 -42.5t42.5 -16.5t40.5 17.5
t16.5 47.5t-16.5 47.5t-40.5 17.5q-25 0 -43 -16t-18 -41z" />
    <glyph glyph-name="seveninferior" unicode="&#x2087;" horiz-adv-x="320" 
d="M108 -218l114 264h-130q-14 0 -14 14v24q0 14 14 14h186q14 0 14 -14v-12q0 -9 -5 -20l-117 -271q-4 -11 -17 -11h-39q-11 0 -6 12z" />
    <glyph glyph-name="eightinferior" unicode="&#x2088;" horiz-adv-x="302" 
d="M87 -47q-31 28 -31 64q0 39 27.5 62.5t67.5 23.5t67.5 -24t27.5 -62q0 -36 -31 -64q48 -28 48 -85q0 -44 -32.5 -73.5t-79.5 -29.5t-79.5 29.5t-32.5 73.5q0 57 48 85zM151 -185q22 0 37 14.5t15 41.5q0 26 -15 40.5t-37 14.5t-37 -14.5t-15 -40.5q0 -27 14.5 -41.5
t37.5 -14.5zM111 16q0 -19 12 -30.5t28 -11.5t28 11.5t12 30.5t-11.5 30.5t-28.5 11.5t-28.5 -11.5t-11.5 -30.5z" />
    <glyph glyph-name="nineinferior" unicode="&#x2089;" horiz-adv-x="299" 
d="M52 -182l23 25q8 6 13 1q27 -27 61 -27q28 0 43.5 22.5t17.5 59.5q-24 -21 -61 -21q-47 0 -77 30.5t-30 81.5q0 47 33.5 80t80.5 33q119 0 119 -143q0 -89 -32.5 -142t-93.5 -53q-56 0 -97 41q-6 6 0 12zM216 -18v17q0 26 -17.5 41t-41.5 15q-26 0 -42.5 -17t-16.5 -48
q0 -30 16.5 -47.5t40.5 -17.5q25 0 43 16t18 41z" />
    <glyph glyph-name="Euro" unicode="&#x20ac;" horiz-adv-x="736" 
d="M30 254v42q0 14 14 14h55q-2 13 -2 40t2 40h-55q-14 0 -14 14v42q0 14 14 14h65q30 118 117 184t195 66q166 0 260 -130q3 -4 3 -9t-4 -9l-38 -32q-7 -5 -10 -5q-5 0 -9 4q-50 58 -94 83.5t-108 25.5q-80 0 -139 -46t-83 -132h247q14 0 14 -14v-42q0 -14 -14 -14h-260
q-1 -13 -1 -40q0 -14 2 -40h219q14 0 14 -14v-42q0 -14 -14 -14h-207q24 -87 84.5 -132.5t137.5 -45.5q73 0 120 32t84 95q4 7 12 7q4 0 10 -3l38 -21q7 -4 7 -9q0 -4 -2 -8q-46 -84 -109 -124.5t-160 -40.5q-113 0 -198 65.5t-114 184.5h-65q-14 0 -14 14z" />
    <glyph glyph-name="trademark" unicode="&#x2122;" horiz-adv-x="703" 
d="M124 382v262h-85q-7 0 -7 7v42q0 7 7 7h233q7 0 7 -7v-42q0 -7 -7 -7h-85v-262q0 -10 -9 -10h-44q-10 0 -10 10zM290 382l36 309q1 9 12 9h44q8 0 11 -9l84 -234l82 234q5 9 12 9h43q11 0 12 -9l36 -309q0 -10 -9 -10h-41q-8 0 -10 10l-20 209l-76 -209q-3 -10 -12 -10
h-36q-8 0 -11 10l-75 209l-22 -209q-2 -10 -9 -10h-41q-10 0 -10 10z" />
    <glyph glyph-name="Omega" unicode="&#x2126;" horiz-adv-x="756" 
d="M48 14v44q0 14 14 14h164q-81 56 -129 138t-48 185q0 139 93.5 227t235.5 88t235.5 -88t93.5 -227q0 -103 -48 -185t-129 -138h164q14 0 14 -14v-44q0 -14 -14 -14h-253q-14 0 -14 14v43q0 16 10 25q101 76 141.5 147.5t40.5 164.5q0 114 -69 179t-172 65t-172 -65
t-69 -179q0 -93 40.5 -164.5t141.5 -147.5q10 -9 10 -25v-43q0 -14 -14 -14h-253q-14 0 -14 14z" />
    <glyph glyph-name="onethird" unicode="&#x2153;" horiz-adv-x="506" 
d="M38 252v28q0 14 14 14h402q14 0 14 -14v-28q0 -14 -14 -14h-402q-14 0 -14 14zM171 386v24q0 14 13 14h49v208l-39 -37q-3 -3 -7 -3q-5 0 -10 5l-17 17q-5 5 -5 10t6 11l57 50q16 15 38 15h18q16 0 16 -16v-260h48q14 0 14 -14v-24q0 -14 -14 -14h-154q-13 0 -13 14z
M144 -98l38 23q4 2 5 2q3 0 5 -3q13 -26 27.5 -38.5t39.5 -12.5q23 0 35.5 15t12.5 41q0 27 -17 43t-49 16h-15q-14 0 -14 14v16q0 14 9 23l59 65h-115q-10 0 -10 10v28q0 10 10 10h178q10 0 10 -9v-25q0 -5 -10 -17l-62 -68q84 -21 84 -107q0 -47 -31 -77t-78 -30
q-78 0 -113 71q-2 4 -2 6t3 4z" />
    <glyph glyph-name="twothirds" unicode="&#x2154;" horiz-adv-x="506" 
d="M38 252v28q0 14 14 14h402q14 0 14 -14v-28q0 -14 -14 -14h-402q-14 0 -14 14zM148 386v27q0 10 6 16l114 105q34 31 34 70q0 22 -14 35.5t-37 13.5q-39 0 -61 -53q-1 -4 -4 -4q-2 0 -6 2l-36 18q-3 2 -3 4l1 4q12 33 40.5 57t68.5 24q50 0 79 -26t29 -68q0 -34 -15 -61
t-49 -59l-72 -67h129q14 0 14 -14v-24q0 -14 -14 -14h-190q-14 0 -14 14zM144 -98l38 23q4 2 5 2q3 0 5 -3q13 -26 27.5 -38.5t39.5 -12.5q23 0 35.5 15t12.5 41q0 27 -17 43t-49 16h-15q-14 0 -14 14v16q0 14 9 23l59 65h-115q-10 0 -10 10v28q0 10 10 10h178q10 0 10 -9
v-25q0 -5 -10 -17l-62 -68q84 -21 84 -107q0 -47 -31 -77t-78 -30q-78 0 -113 71q-2 4 -2 6t3 4z" />
    <glyph glyph-name="oneeighth" unicode="&#x215b;" horiz-adv-x="506" 
d="M38 252v28q0 14 14 14h402q14 0 14 -14v-28q0 -14 -14 -14h-402q-14 0 -14 14zM171 386v24q0 14 13 14h49v208l-39 -37q-3 -3 -7 -3q-5 0 -10 5l-17 17q-5 5 -5 10t6 11l57 50q16 15 38 15h18q16 0 16 -16v-260h48q14 0 14 -14v-24q0 -14 -14 -14h-154q-13 0 -13 14z
M189 9q-31 28 -31 64q0 39 27.5 62.5t67.5 23.5t67.5 -24t27.5 -62q0 -36 -31 -64q48 -28 48 -85q0 -44 -32.5 -73.5t-79.5 -29.5t-79.5 29.5t-32.5 73.5q0 57 48 85zM253 -129q22 0 37 14.5t15 41.5q0 26 -15 40.5t-37 14.5t-37 -14.5t-15 -40.5q0 -27 14.5 -41.5
t37.5 -14.5zM213 72q0 -19 12 -30.5t28 -11.5t28 11.5t12 30.5t-11.5 30.5t-28.5 11.5t-28.5 -11.5t-11.5 -30.5z" />
    <glyph glyph-name="threeeighths" unicode="&#x215c;" horiz-adv-x="506" 
d="M38 252v28q0 14 14 14h402q14 0 14 -14v-28q0 -14 -14 -14h-402q-14 0 -14 14zM189 9q-31 28 -31 64q0 39 27.5 62.5t67.5 23.5t67.5 -24t27.5 -62q0 -36 -31 -64q48 -28 48 -85q0 -44 -32.5 -73.5t-79.5 -29.5t-79.5 29.5t-32.5 73.5q0 57 48 85zM253 -129q22 0 37 14.5
t15 41.5q0 26 -15 40.5t-37 14.5t-37 -14.5t-15 -40.5q0 -27 14.5 -41.5t37.5 -14.5zM213 72q0 -19 12 -30.5t28 -11.5t28 11.5t12 30.5t-11.5 30.5t-28.5 11.5t-28.5 -11.5t-11.5 -30.5zM144 448l38 23q4 2 5 2q3 0 5 -3q13 -26 27.5 -38.5t39.5 -12.5q23 0 35.5 15
t12.5 41q0 27 -17 43t-49 16h-15q-14 0 -14 14v16q0 14 9 23l59 65h-115q-10 0 -10 10v28q0 10 10 10h178q10 0 10 -9v-25q0 -5 -10 -17l-62 -68q84 -21 84 -107q0 -47 -31 -77t-78 -30q-78 0 -113 71q-2 4 -2 6t3 4z" />
    <glyph glyph-name="fiveeighths" unicode="&#x215d;" horiz-adv-x="506" 
d="M38 252v28q0 14 14 14h402q14 0 14 -14v-28q0 -14 -14 -14h-402q-14 0 -14 14zM148 451l29 14q12 6 16 -6q6 -14 24 -27t39 -13q24 0 39 15.5t15 41.5q0 28 -15 42.5t-39 14.5q-31 0 -52 -21q-8 -8 -17 -4l-26 11q-8 3 -10 6t-1 13l22 149q3 13 15 13h149q14 0 14 -14
v-24q0 -14 -14 -14h-116l-16 -82q28 19 62 19q43 0 71.5 -27.5t28.5 -81.5q0 -48 -31.5 -78.5t-79.5 -30.5q-40 0 -69.5 21t-42.5 48q-5 11 5 15zM189 9q-31 28 -31 64q0 39 27.5 62.5t67.5 23.5t67.5 -24t27.5 -62q0 -36 -31 -64q48 -28 48 -85q0 -44 -32.5 -73.5
t-79.5 -29.5t-79.5 29.5t-32.5 73.5q0 57 48 85zM253 -129q22 0 37 14.5t15 41.5q0 26 -15 40.5t-37 14.5t-37 -14.5t-15 -40.5q0 -27 14.5 -41.5t37.5 -14.5zM213 72q0 -19 12 -30.5t28 -11.5t28 11.5t12 30.5t-11.5 30.5t-28.5 11.5t-28.5 -11.5t-11.5 -30.5z" />
    <glyph glyph-name="seveneighths" unicode="&#x215e;" horiz-adv-x="506" 
d="M38 252v28q0 14 14 14h402q14 0 14 -14v-28q0 -14 -14 -14h-402q-14 0 -14 14zM198 384l114 264h-130q-14 0 -14 14v24q0 14 14 14h186q14 0 14 -14v-12q0 -9 -5 -20l-117 -271q-4 -11 -17 -11h-39q-11 0 -6 12zM189 9q-31 28 -31 64q0 39 27.5 62.5t67.5 23.5t67.5 -24
t27.5 -62q0 -36 -31 -64q48 -28 48 -85q0 -44 -32.5 -73.5t-79.5 -29.5t-79.5 29.5t-32.5 73.5q0 57 48 85zM253 -129q22 0 37 14.5t15 41.5q0 26 -15 40.5t-37 14.5t-37 -14.5t-15 -40.5q0 -27 14.5 -41.5t37.5 -14.5zM213 72q0 -19 12 -30.5t28 -11.5t28 11.5t12 30.5
t-11.5 30.5t-28.5 11.5t-28.5 -11.5t-11.5 -30.5z" />
    <glyph glyph-name="partialdiff" unicode="&#x2202;" horiz-adv-x="568" 
d="M153 607l-26 30q-4 5 -4 9q0 5 5 10q64 54 147 54q129 0 188 -105t59 -308q0 -135 -70.5 -221t-193.5 -86q-90 0 -153 58.5t-63 158.5q0 111 72 192t187 81q97 0 139 -62q-6 102 -52 164t-108 62q-54 0 -102 -38q-7 -5 -13 -5t-12 6zM267 56q73 0 121.5 56t48.5 142
q0 77 -36.5 118.5t-96.5 41.5q-79 0 -129.5 -60.5t-50.5 -145.5q0 -72 41 -112t102 -40z" />
    <glyph glyph-name="Delta" unicode="&#x2206;" horiz-adv-x="670" 
d="M44 14v38q0 21 7 39l236 590q7 19 27 19h42q20 0 27 -19l236 -590q7 -18 7 -39v-38q0 -14 -14 -14h-554q-14 0 -14 14zM130 72h410l-205 523z" />
    <glyph glyph-name="product" unicode="&#x220f;" horiz-adv-x="624" 
d="M86 -126v812q0 14 14 14h424q14 0 14 -14v-812q0 -14 -14 -14h-54q-14 0 -14 14v754h-288v-754q0 -14 -14 -14h-54q-14 0 -14 14z" />
    <glyph glyph-name="summation" unicode="&#x2211;" horiz-adv-x="573" 
d="M66 -126v34q0 18 14 40l226 332l-218 332q-14 20 -14 40v34q0 14 14 14h402q14 0 14 -14v-44q0 -14 -14 -14h-318l208 -318q11 -17 11 -30t-11 -30l-218 -318h339q14 0 14 -14v-44q0 -14 -14 -14h-421q-14 0 -14 14z" />
    <glyph glyph-name="minus" unicode="&#x2212;" horiz-adv-x="510" 
d="M38 324v42q0 14 14 14h402q14 0 14 -14v-42q0 -14 -14 -14h-402q-14 0 -14 14z" />
    <glyph glyph-name="radical" unicode="&#x221a;" horiz-adv-x="551" 
d="M214 -54l-109 282h-67q-14 0 -14 14v44q0 14 14 14h108q15 0 19 -13l83 -229l211 628q5 14 17 14h55q11 0 11 -8q0 -3 -1 -6l-260 -740q-5 -16 -19 -16h-26q-16 0 -22 16z" />
    <glyph glyph-name="infinity" unicode="&#x221e;" horiz-adv-x="894" 
d="M447 184q-32 -56 -81 -89t-110 -33q-91 0 -152.5 59.5t-61.5 149.5t61 149.5t153 59.5q61 0 110 -33t81 -89q32 56 81 89t110 33q92 0 153 -59.5t61 -149.5t-61.5 -149.5t-152.5 -59.5q-61 0 -110 33t-81 89zM411 271q-22 56 -62 96.5t-93 40.5q-61 0 -99.5 -37.5
t-38.5 -99.5t38.5 -99.5t99.5 -37.5q53 0 93 40.5t62 96.5zM483 271q22 -56 62 -96.5t93 -40.5q61 0 99.5 37.5t38.5 99.5t-38.5 99.5t-99.5 37.5q-53 0 -93 -40.5t-62 -96.5z" />
    <glyph glyph-name="integral" unicode="&#x222b;" horiz-adv-x="379" 
d="M-16 -212v38q0 13 10 13q2 0 23.5 -6.5t40.5 -6.5q78 0 78 89v644q0 71 42.5 111t109.5 40q40 0 66 -13q10 -5 10 -15v-38q0 -13 -10 -13q-2 0 -23.5 6.5t-40.5 6.5q-78 0 -78 -89v-644q0 -71 -42.5 -111t-109.5 -40q-29 0 -66 13q-10 3 -10 15z" />
    <glyph glyph-name="approxequal" unicode="&#x2248;" horiz-adv-x="489" 
d="M86 158l-44 23q-9 5 -9 11q0 2 2 8q43 101 132 101q30 0 53.5 -10.5t36 -22.5t29.5 -22.5t34 -10.5q39 0 65 59q4 9 10 9q4 0 8 -2l44 -23q9 -5 9 -11q0 -2 -2 -8q-43 -101 -132 -101q-30 0 -53.5 10.5t-36 22.5t-29.5 22.5t-34 10.5q-39 0 -65 -59q-4 -9 -10 -9
q-4 0 -8 2zM86 338l-44 23q-9 5 -9 11q0 2 2 8q43 101 132 101q30 0 53.5 -10.5t36 -22.5t29.5 -22.5t34 -10.5q39 0 65 59q4 9 10 9q4 0 8 -2l44 -23q9 -5 9 -11q0 -2 -2 -8q-43 -101 -132 -101q-30 0 -53.5 10.5t-36 22.5t-29.5 22.5t-34 10.5q-39 0 -65 -59q-4 -9 -10 -9
q-4 0 -8 2z" />
    <glyph glyph-name="notequal" unicode="&#x2260;" horiz-adv-x="510" 
d="M80 88l53 92h-81q-14 0 -14 14v42q0 14 14 14h121l80 140h-201q-14 0 -14 14v42q0 14 14 14h241l73 127q5 8 10 8q4 0 9 -3l36 -21q8 -5 8 -10q0 -3 -3 -9l-53 -92h81q14 0 14 -14v-42q0 -14 -14 -14h-121l-80 -140h201q14 0 14 -14v-42q0 -14 -14 -14h-241l-73 -127
q-5 -8 -10 -8q-4 0 -9 3l-36 21q-8 5 -8 10q0 3 3 9z" />
    <glyph glyph-name="lessequal" unicode="&#x2264;" horiz-adv-x="510" 
d="M78 362v56q0 13 14 22l317 200q5 3 9 3q10 0 10 -11v-59q0 -13 -14 -22l-260 -161l260 -161q14 -9 14 -22v-59q0 -11 -10 -11q-4 0 -9 3l-317 200q-14 9 -14 22zM38 14v42q0 14 14 14h402q14 0 14 -14v-42q0 -14 -14 -14h-402q-14 0 -14 14z" />
    <glyph glyph-name="greaterequal" unicode="&#x2265;" horiz-adv-x="510" 
d="M78 148v59q0 13 14 22l260 161l-260 161q-14 9 -14 22v59q0 11 10 11q4 0 9 -3l317 -200q14 -9 14 -22v-56q0 -13 -14 -22l-317 -200q-5 -3 -9 -3q-10 0 -10 11zM38 14v42q0 14 14 14h402q14 0 14 -14v-42q0 -14 -14 -14h-402q-14 0 -14 14z" />
    <glyph glyph-name="uni24B6" unicode="&#x24b6;" 
d="M104 820v-940h932v940h-932zM32 -188v1076h1076v-1076h-1076zM279 14l251 670q5 16 23 16h34q18 0 23 -16l251 -670q0 -14 -14 -14h-52q-13 0 -18 14l-71 193h-272l-71 -193q-5 -14 -18 -14h-52q-14 0 -14 14zM461 279h218l-109 299z" />
    <glyph glyph-name="uni24B7" unicode="&#x24b7;" 
d="M104 820v-940h932v940h-932zM32 -188v1076h1076v-1076h-1076zM317 14v672q0 14 14 14h217q94 0 147.5 -51.5t53.5 -127.5q0 -40 -19.5 -76.5t-53.5 -58.5q147 -42 147 -184q0 -89 -56.5 -145.5t-164.5 -56.5h-271q-14 0 -14 14zM399 72h192q71 0 110.5 34.5t39.5 95.5
q0 60 -38.5 95t-111.5 35h-192v-260zM399 404h149q51 0 85 30t34 82q0 57 -33 84.5t-86 27.5h-149v-224z" />
    <glyph glyph-name="uni24B8" unicode="&#x24b8;" 
d="M104 820v-940h932v940h-932zM32 -188v1076h1076v-1076h-1076zM785 135l26 -32q4 -5 4 -10t-5 -10q-55 -53 -110 -73t-126 -20q-135 0 -229.5 95t-94.5 265q0 166 97 263t235 97q130 0 223 -85q5 -5 5 -9q0 -5 -4 -10l-24 -31q-7 -10 -15 -10q-5 0 -13 6q-46 38 -85 52.5
t-92 14.5q-101 0 -170 -74t-69 -214q0 -137 70.5 -212.5t168.5 -75.5q51 0 92 17.5t89 59.5q7 6 13 6t14 -10z" />
    <glyph glyph-name="uni24B9" unicode="&#x24b9;" 
d="M104 820v-940h932v940h-932zM32 -188v1076h1076v-1076h-1076zM316 14v672q0 14 14 14h170q147 0 246.5 -92t99.5 -258q0 -87 -27.5 -155t-75.5 -110t-109.5 -63.5t-133.5 -21.5h-170q-14 0 -14 14zM398 72h102q111 0 184.5 69.5t73.5 208.5q0 140 -73 209t-185 69h-102
v-556z" />
    <glyph glyph-name="uni24BA" unicode="&#x24ba;" 
d="M104 820v-940h932v940h-932zM32 -188v1076h1076v-1076h-1076zM340 14v672q0 14 14 14h416q14 0 14 -14v-44q0 -14 -14 -14h-348v-224h282q14 0 14 -14v-44q0 -14 -14 -14h-282v-260h362q14 0 14 -14v-44q0 -14 -14 -14h-430q-14 0 -14 14z" />
    <glyph glyph-name="uni24BB" unicode="&#x24bb;" 
d="M104 820v-940h932v940h-932zM32 -188v1076h1076v-1076h-1076zM346 14v672q0 14 14 14h428q14 0 14 -14v-44q0 -14 -14 -14h-360v-236h294q14 0 14 -14v-44q0 -14 -14 -14h-294v-306q0 -14 -14 -14h-54q-14 0 -14 14z" />
    <glyph glyph-name="uni24BC" unicode="&#x24bc;" 
d="M104 820v-940h932v940h-932zM32 -188v1076h1076v-1076h-1076zM502 306v44q0 14 14 14h361q14 0 14 -14v-21q0 -147 -81.5 -243t-222.5 -96q-143 0 -240.5 94.5t-97.5 265.5q0 166 99.5 263t241.5 97q84 0 157.5 -37t114.5 -99q6 -9 6 -16t-6 -12l-34 -28q-7 -5 -11 -5
q-8 0 -14 9q-81 116 -218 116q-48 0 -91.5 -17.5t-79 -51.5t-56.5 -90.5t-21 -128.5q0 -136 72 -212t176 -76q101 0 158.5 61t62.5 169h-290q-14 0 -14 14z" />
    <glyph glyph-name="uni24BD" unicode="&#x24bd;" 
d="M104 820v-940h932v940h-932zM32 -188v1076h1076v-1076h-1076zM321 14v672q0 14 14 14h54q14 0 14 -14v-282h335v282q0 14 14 14h54q14 0 14 -14v-672q0 -14 -14 -14h-54q-14 0 -14 14v318h-335v-318q0 -14 -14 -14h-54q-14 0 -14 14z" />
    <glyph glyph-name="uni24BE" unicode="&#x24be;" 
d="M104 820v-940h932v940h-932zM32 -188v1076h1076v-1076h-1076zM394 14v44q0 14 14 14h121v556h-111q-14 0 -14 14v44q0 14 14 14h304q14 0 14 -14v-44q0 -14 -14 -14h-111v-556h121q14 0 14 -14v-44q0 -14 -14 -14h-324q-14 0 -14 14z" />
    <glyph glyph-name="uni24BF" unicode="&#x24bf;" 
d="M104 820v-940h932v940h-932zM32 -188v1076h1076v-1076h-1076zM317 167l50 20q6 2 8 2q7 0 10 -8q37 -119 148 -119q63 0 98.5 40.5t35.5 120.5v405h-218q-14 0 -14 14v44q0 14 14 14h363q14 0 14 -14v-22q0 -13 -14 -18l-63 -18v-402q0 -112 -60.5 -174t-155.5 -62
q-86 0 -141.5 45.5t-80.5 112.5q-2 6 -2 9q0 6 8 10z" />
    <glyph glyph-name="uni24C0" unicode="&#x24c0;" 
d="M104 820v-940h932v940h-932zM32 -188v1076h1076v-1076h-1076zM333 14v672q0 14 14 14h54q14 0 14 -14v-271l261 274q9 11 24 11h68q11 0 11 -9q0 -5 -4 -9l-245 -258l273 -401q4 -5 4 -11q0 -12 -12 -12h-59q-16 0 -27 16l-237 347l-57 -60v-289q0 -14 -14 -14h-54
q-14 0 -14 14z" />
    <glyph glyph-name="uni24C1" unicode="&#x24c1;" 
d="M104 820v-940h932v940h-932zM32 -188v1076h1076v-1076h-1076zM351 14v672q0 14 14 14h54q14 0 14 -14v-614h343q14 0 14 -14v-44q0 -14 -14 -14h-411q-14 0 -14 14z" />
    <glyph glyph-name="uni24C2" unicode="&#x24c2;" 
d="M104 820v-940h932v940h-932zM32 -188v1076h1076v-1076h-1076zM205 14l71 672q2 14 15 14h49q13 0 19 -14l211 -560l211 560q6 14 19 14h49q13 0 15 -14l71 -672q0 -14 -15 -14h-52q-14 0 -15 14l-50 527l-193 -527q-5 -14 -18 -14h-44q-13 0 -18 14l-193 527l-50 -527
q-1 -14 -15 -14h-52q-15 0 -15 14z" />
    <glyph glyph-name="uni24C3" unicode="&#x24c3;" 
d="M104 820v-940h932v940h-932zM32 -188v1076h1076v-1076h-1076zM313 14v672q0 14 14 14h41q14 0 23 -14l354 -531v531q0 14 14 14h54q14 0 14 -14v-672q0 -14 -14 -14h-41q-14 0 -23 14l-354 531v-531q0 -14 -14 -14h-54q-14 0 -14 14z" />
    <glyph glyph-name="uni24C4" unicode="&#x24c4;" 
d="M104 820v-940h932v940h-932zM32 -188v1076h1076v-1076h-1076zM570 -10q-89 0 -163.5 39.5t-123 123t-48.5 197.5q0 165 99.5 262.5t235.5 97.5t235.5 -97.5t99.5 -262.5q0 -114 -48.5 -197.5t-123 -123t-163.5 -39.5zM570 62q103 0 175 74.5t72 213.5q0 140 -72 214
t-175 74t-175 -74t-72 -214q0 -139 72 -213.5t175 -74.5z" />
    <glyph glyph-name="uni24C5" unicode="&#x24c5;" 
d="M104 820v-940h932v940h-932zM32 -188v1076h1076v-1076h-1076zM319 14v672q0 14 14 14h261q101 0 164 -56.5t63 -148.5q0 -89 -58.5 -145.5t-151.5 -56.5h-210v-279q0 -14 -14 -14h-54q-14 0 -14 14zM401 365h204q65 0 99.5 36.5t34.5 93.5t-35 95t-99 38h-204v-263z" />
    <glyph glyph-name="uni24C6" unicode="&#x24c6;" 
d="M104 820v-940h932v940h-932zM32 -188v1076h1076v-1076h-1076zM746 -38l-33 58q-66 -30 -143 -30q-89 0 -163.5 39.5t-123 123t-48.5 197.5q0 165 99.5 262.5t235.5 97.5t235.5 -97.5t99.5 -262.5q0 -188 -126 -289l35 -64q2 -4 2 -8q0 -5 -5 -8l-41 -23q-7 -4 -12 -4
q-7 0 -12 8zM678 86l-74 139q-2 4 -2 7q0 6 8 11l44 24q4 2 8 2q6 0 10 -7l69 -129q76 79 76 217q0 140 -72 214t-175 74t-175 -74t-72 -214q0 -139 72 -213.5t175 -74.5q58 0 108 24z" />
    <glyph glyph-name="uni24C7" unicode="&#x24c7;" 
d="M104 820v-940h932v940h-932zM32 -188v1076h1076v-1076h-1076zM325 14v672q0 14 14 14h245q101 0 159.5 -51.5t58.5 -130.5q0 -78 -56 -130t-145 -52h-12l223 -316q3 -4 3 -9q0 -11 -13 -11h-59q-16 0 -27 15l-225 321h-84v-322q0 -14 -14 -14h-54q-14 0 -14 14zM407 408
h178q135 0 135 110t-135 110h-178v-220z" />
    <glyph glyph-name="uni24C8" unicode="&#x24c8;" 
d="M104 820v-940h932v940h-932zM32 -188v1076h1076v-1076h-1076zM333 165l50 26q6 3 9 3q5 0 9 -7q34 -62 79 -93.5t112 -31.5q60 0 96.5 34.5t36.5 96.5q0 51 -41 82t-128 56q-82 23 -138 72.5t-56 123.5q0 83 59.5 133t153.5 50q129 0 209 -105q4 -5 4 -9q0 -5 -6 -10
l-38 -31q-7 -5 -10 -5q-5 0 -10 6q-65 82 -149 82q-57 0 -94 -26.5t-37 -75.5q0 -50 41.5 -82t115.5 -54q45 -14 79 -29t66.5 -38.5t49.5 -57t17 -76.5q0 -92 -63 -150.5t-162 -58.5q-89 0 -157 43t-100 112q-4 8 -4 12q0 5 6 8z" />
    <glyph glyph-name="uni24C9" unicode="&#x24c9;" 
d="M104 820v-940h932v940h-932zM32 -188v1076h1076v-1076h-1076zM529 14v614h-209q-14 0 -14 14v44q0 14 14 14h500q14 0 14 -14v-44q0 -14 -14 -14h-209v-614q0 -14 -14 -14h-54q-14 0 -14 14z" />
    <glyph glyph-name="uni24CA" unicode="&#x24ca;" 
d="M104 820v-940h932v940h-932zM32 -188v1076h1076v-1076h-1076zM305 299v387q0 14 14 14h54q14 0 14 -14v-376q0 -248 183 -248t183 248v376q0 14 14 14h54q14 0 14 -14v-387q0 -151 -66.5 -230t-198.5 -79t-198.5 79t-66.5 230z" />
    <glyph glyph-name="uni24CB" unicode="&#x24cb;" 
d="M104 820v-940h932v940h-932zM32 -188v1076h1076v-1076h-1076zM520 20l-229 664q0 16 14 16h55q14 0 20 -16l190 -574l190 574q6 16 20 16h55q14 0 14 -16l-229 -664q-6 -20 -24 -20h-52q-18 0 -24 20z" />
    <glyph glyph-name="uni24CC" unicode="&#x24cc;" 
d="M104 820v-940h932v940h-932zM32 -188v1076h1076v-1076h-1076zM325 20l-180 660q0 20 20 20h42q9 0 13 -4.5t7 -15.5l145 -546l156 546q6 20 25 20h34q19 0 25 -20l156 -546l145 546q3 11 7 15.5t13 4.5h42q20 0 20 -20l-180 -660q-6 -20 -26 -20h-37q-19 0 -25 20
l-157 544l-157 -544q-6 -20 -25 -20h-37q-20 0 -26 20z" />
    <glyph glyph-name="uni24CD" unicode="&#x24cd;" 
d="M104 820v-940h932v940h-932zM32 -188v1076h1076v-1076h-1076zM311 22l214 349l-187 305q-4 7 -4 11q0 13 14 13h50q14 0 22 -12l150 -244l150 244q8 12 22 12h50q14 0 14 -13q0 -4 -4 -11l-187 -305l214 -349q4 -7 4 -11q0 -11 -11 -11h-50q-17 0 -26 15l-176 284
l-176 -284q-9 -15 -26 -15h-50q-11 0 -11 11q0 4 4 11z" />
    <glyph glyph-name="uni24CE" unicode="&#x24ce;" 
d="M104 820v-940h932v940h-932zM32 -188v1076h1076v-1076h-1076zM434 15l107 240l-221 421q-3 6 -3 11q0 13 14 13h55q17 0 25 -15l171 -338l153 338q6 15 23 15h55q10 0 10 -8q0 -3 -2 -7l-300 -671q-6 -14 -20 -14h-59q-10 0 -10 8q0 3 2 7z" />
    <glyph glyph-name="uni24CF" unicode="&#x24cf;" 
d="M104 820v-940h932v940h-932zM32 -188v1076h1076v-1076h-1076zM327 20v32q0 13 11 30l359 546h-338q-14 0 -14 14v44q0 14 14 14h421q14 0 14 -14v-26q0 -18 -14 -40l-355 -548h375q14 0 14 -14v-44q0 -14 -14 -14h-453q-20 0 -20 20z" />
    <glyph glyph-name="lozenge" unicode="&#x25ca;" horiz-adv-x="566" 
d="M232 17l-190 316q-5 9 -5 17q0 10 5 17l190 316q10 17 30 17h42q20 0 30 -17l190 -316q5 -8 5 -17q0 -8 -5 -17l-190 -316q-10 -17 -30 -17h-42q-20 0 -30 17zM283 76l165 274l-165 274l-165 -274z" />
    <glyph glyph-name="apple" unicode="&#xf8ff;" horiz-adv-x="764" 
d="M86 22v595q0 17 16 22l270 78q6 2 10 2t10 -2l270 -78q16 -5 16 -22v-595q0 -9 -6.5 -15.5t-15.5 -6.5q-3 0 -7 1l-267 77l-267 -77q-4 -1 -7 -1q-9 0 -15.5 6.5t-6.5 15.5zM360 366v303l-230 -67q6 -94 71.5 -161t158.5 -75zM404 669v-303q93 8 158.5 75t71.5 161z
M129 51l231 67v204q-73 6 -134 43.5t-97 97.5v-412zM404 118l231 -67v412q-37 -60 -97.5 -97.5t-133.5 -43.5v-204z" />
    <glyph glyph-name="zero.tn" horiz-adv-x="610" 
d="M305 -10q-128 0 -201.5 96t-73.5 264q0 169 76.5 264.5t198.5 95.5t198.5 -95.5t76.5 -264.5q0 -168 -73.5 -264t-201.5 -96zM305 62q85 0 136 73t51 215q0 138 -51.5 213t-135.5 75t-135.5 -75t-51.5 -213q0 -142 51 -215t136 -73z" />
    <glyph glyph-name="one.tn" horiz-adv-x="610" 
d="M134 14v44q0 14 14 14h121v524l-91 -85q-5 -5 -10 -5t-9 5l-31 41q-4 5 -4 10t4 9l129 116q13 13 30 13h50q14 0 14 -14v-614h121q14 0 14 -14v-44q0 -14 -14 -14h-324q-14 0 -14 14z" />
    <glyph glyph-name="two.tn" horiz-adv-x="610" 
d="M93 14v41q0 16 12 29l220 222q61 63 85.5 107t24.5 100q0 57 -37 91t-98 34q-99 0 -146 -117q-4 -9 -12 -9q-4 0 -8 2l-47 21q-8 3 -8 10q0 2 2 8q23 66 79.5 111.5t139.5 45.5q96 0 157.5 -53t61.5 -136q0 -76 -32.5 -131.5t-106.5 -131.5l-183 -186h321q14 0 14 -14
v-44q0 -14 -14 -14h-411q-14 0 -14 14z" />
    <glyph glyph-name="three.tn" horiz-adv-x="610" 
d="M81 157l44 26q5 3 8 3q6 0 9 -6q58 -118 172 -118q58 0 99.5 39t41.5 105q0 75 -44 120.5t-127 45.5h-27q-20 0 -20 20v24q0 16 12 30l161 182h-277q-20 0 -20 20v32q0 20 20 20h348q20 0 20 -20v-42q0 -18 -14 -35l-148 -164q98 -19 148 -80t50 -152q0 -93 -63 -155
t-160 -62q-90 0 -149 42.5t-89 105.5q-2 5 -2 8q0 7 7 11z" />
    <glyph glyph-name="four.tn" horiz-adv-x="610" 
d="M58 189v48q0 9 9 25l237 428q5 10 15 10h67q7 0 7 -6q0 -2 -1 -4l-246 -443h212v209q0 14 10 14h58q14 0 14 -14v-209h105q14 0 14 -14v-44q0 -14 -14 -14h-105v-155q0 -20 -20 -20h-42q-20 0 -20 20v155h-286q-14 0 -14 14z" />
    <glyph glyph-name="five.tn" horiz-adv-x="610" 
d="M77 161l46 27q5 3 8 3q6 0 9 -7q58 -122 165 -122q68 0 110 43t42 117q0 78 -43 119t-105 41q-86 0 -145 -67q-6 -7 -12 -7q-3 0 -7 1l-49 11q-6 2 -6 7v4l51 350q3 19 20 19h315q14 0 14 -14v-44q0 -14 -14 -14h-267l-33 -214q59 40 134 40q99 0 164 -58t65 -174
q0 -103 -66 -167.5t-168 -64.5q-85 0 -145 45.5t-88 110.5q-1 3 -1 5q0 6 6 10z" />
    <glyph glyph-name="six.tn" horiz-adv-x="610" 
d="M507 620l-27 -33q-8 -9 -14 -9t-10 4q-59 56 -125 56q-70 0 -119 -72.5t-54 -169.5q24 31 70 52.5t95 21.5q94 0 157 -66.5t63 -173.5q0 -101 -68 -170.5t-167 -69.5q-104 0 -172.5 79.5t-68.5 218.5q0 186 70 304t194 118q99 0 176 -72q4 -4 4 -9q0 -4 -4 -9zM161 268
v-52q0 -69 43 -111.5t106 -42.5t107 45t44 123q0 77 -44.5 122.5t-106.5 45.5q-58 0 -107 -42q-41 -36 -42 -88z" />
    <glyph glyph-name="seven.tn" horiz-adv-x="610" 
d="M185 19l262 609h-356q-14 0 -14 14v44q0 14 14 14h428q14 0 14 -14v-41q0 -12 -9 -32l-256 -600q-6 -13 -26 -13h-46q-13 0 -13 11q0 2 2 8z" />
    <glyph glyph-name="eight.tn" horiz-adv-x="610" 
d="M197 390q-81 53 -81 142q0 79 56 128.5t133 49.5t133 -49.5t56 -128.5q0 -89 -81 -142q51 -25 83.5 -73.5t32.5 -110.5q0 -94 -62.5 -155t-161.5 -61t-161.5 61t-62.5 155q0 62 32.5 110.5t83.5 73.5zM305 62q59 0 100.5 39t41.5 105t-42.5 104.5t-99.5 38.5t-99.5 -38.5
t-42.5 -104.5q0 -67 41.5 -105.5t100.5 -38.5zM194 530q0 -49 34 -79t77 -30t77 30t34 79q0 50 -32 79t-79 29t-79 -29t-32 -79z" />
    <glyph glyph-name="nine.tn" horiz-adv-x="610" 
d="M95 101l32 34q5 5 11 5t10 -4q69 -74 140 -74q73 0 116 58.5t46 163.5q-26 -25 -66 -39.5t-81 -14.5q-101 0 -167.5 66t-66.5 174q0 101 68 170.5t167 69.5q160 0 217 -138q24 -58 24 -174q0 -197 -65.5 -302.5t-191.5 -105.5q-110 0 -193 88q-5 5 -5 11q0 7 5 12z
M451 422v73q0 56 -24 88q-42 55 -125 55q-63 0 -107 -45t-44 -123q0 -77 44.5 -122.5t106.5 -45.5q66 0 107 32q42 32 42 88z" />
    </font>
</defs>
</svg>
